G04*
G04 #@! TF.GenerationSoftware,Altium Limited,Altium Designer,22.2.1 (43)*
G04*
G04 Layer_Color=8421504*
%FSLAX25Y25*%
%MOIN*%
G70*
G04*
G04 #@! TF.SameCoordinates,A0DC7013-DE40-4D07-A028-2F209A2C4820*
G04*
G04*
G04 #@! TF.FilePolarity,Positive*
G04*
G01*
G75*
%ADD21R,0.03150X0.05512*%
%ADD22R,0.04194X0.03494*%
%ADD23R,0.04724X0.03543*%
%ADD24R,0.03494X0.04194*%
%ADD25R,0.03150X0.06299*%
%ADD26R,0.04331X0.03543*%
%ADD27R,0.05630X0.05630*%
%ADD28R,0.03937X0.08268*%
%ADD29R,0.08268X0.03937*%
%ADD30R,0.17717X0.13386*%
%ADD31R,0.24803X0.15748*%
%ADD32R,0.05512X0.03150*%
%ADD33R,0.09252X0.08740*%
%ADD34R,0.06299X0.02362*%
%ADD35R,0.05512X0.13780*%
%ADD36R,0.13386X0.17717*%
%ADD37R,0.15748X0.24803*%
%ADD38R,0.07874X0.07480*%
%ADD39R,0.08661X0.06693*%
%ADD40R,0.01968X0.05709*%
%ADD41R,0.08268X0.04724*%
%ADD42R,0.04528X0.02559*%
%ADD43R,0.02559X0.04528*%
%ADD44R,0.06693X0.06693*%
%ADD45R,0.12205X0.08268*%
%ADD46R,0.05118X0.06693*%
%ADD47R,0.13386X0.06693*%
%ADD48R,0.02756X0.05748*%
G04:AMPARAMS|DCode=49|XSize=66.93mil|YSize=53.15mil|CornerRadius=0mil|HoleSize=0mil|Usage=FLASHONLY|Rotation=225.000|XOffset=0mil|YOffset=0mil|HoleType=Round|Shape=Rectangle|*
%AMROTATEDRECTD49*
4,1,4,0.00487,0.04245,0.04245,0.00487,-0.00487,-0.04245,-0.04245,-0.00487,0.00487,0.04245,0.0*
%
%ADD49ROTATEDRECTD49*%

%ADD50R,0.06496X0.05118*%
%ADD51R,0.01575X0.05118*%
%ADD52R,0.05118X0.01575*%
%ADD53R,0.04331X0.02362*%
D21*
X317126Y79134D02*
D03*
X324606D02*
D03*
X30906Y6299D02*
D03*
X38386D02*
D03*
X30906Y12992D02*
D03*
X38386D02*
D03*
X30906Y19685D02*
D03*
X38386D02*
D03*
X141339Y137402D02*
D03*
X148819D02*
D03*
X249409Y25787D02*
D03*
X241929D02*
D03*
D22*
X317716Y67913D02*
D03*
X324016D02*
D03*
X317716Y48819D02*
D03*
X324016D02*
D03*
X69489Y12008D02*
D03*
X63189D02*
D03*
X100000Y123228D02*
D03*
X106300D02*
D03*
X252756Y230709D02*
D03*
X246456D02*
D03*
X236437D02*
D03*
X230137D02*
D03*
X253937Y85039D02*
D03*
X260237D02*
D03*
X236220Y163779D02*
D03*
X242520D02*
D03*
X245275Y158893D02*
D03*
X251575D02*
D03*
X245275Y154493D02*
D03*
X251575D02*
D03*
X242126Y145866D02*
D03*
X248426D02*
D03*
X227315Y130516D02*
D03*
X233615D02*
D03*
X166535Y131764D02*
D03*
X172835D02*
D03*
X166534Y137008D02*
D03*
X172834D02*
D03*
X161416Y143307D02*
D03*
X167717D02*
D03*
X165354Y167717D02*
D03*
X171653D02*
D03*
X199430Y177457D02*
D03*
X193130D02*
D03*
D23*
X324587Y53740D02*
D03*
Y61221D02*
D03*
X317146Y57480D02*
D03*
X56870Y12008D02*
D03*
Y19488D02*
D03*
X49429Y15748D02*
D03*
X44094Y115748D02*
D03*
X51535Y119488D02*
D03*
Y112008D02*
D03*
X236043Y243898D02*
D03*
Y236417D02*
D03*
X243484Y240158D02*
D03*
X219291Y236417D02*
D03*
Y243898D02*
D03*
X211850Y240158D02*
D03*
D24*
X112205Y22441D02*
D03*
Y28741D02*
D03*
X77165Y14174D02*
D03*
Y7874D02*
D03*
X42913Y19292D02*
D03*
Y12992D02*
D03*
X57480Y118898D02*
D03*
Y112598D02*
D03*
X230315Y237598D02*
D03*
Y243898D02*
D03*
X225020D02*
D03*
Y237598D02*
D03*
X123622Y160236D02*
D03*
Y166536D02*
D03*
X203150Y87402D02*
D03*
Y81102D02*
D03*
Y93307D02*
D03*
Y99607D02*
D03*
X217323Y119685D02*
D03*
Y113385D02*
D03*
X212205D02*
D03*
Y119685D02*
D03*
X207087Y113385D02*
D03*
Y119685D02*
D03*
X201969Y113385D02*
D03*
Y119685D02*
D03*
X187402Y141142D02*
D03*
Y134842D02*
D03*
X209646Y193505D02*
D03*
Y187205D02*
D03*
D25*
X89173Y13976D02*
D03*
X100984D02*
D03*
X106890D02*
D03*
D26*
X112402Y11024D02*
D03*
X83661D02*
D03*
X112402Y3150D02*
D03*
X83661D02*
D03*
D27*
X69429Y65492D02*
D03*
Y58268D02*
D03*
Y51043D02*
D03*
X62205Y65492D02*
D03*
Y58268D02*
D03*
Y51043D02*
D03*
X54980Y65492D02*
D03*
Y58268D02*
D03*
Y51043D02*
D03*
D28*
X32677Y95669D02*
D03*
X37677D02*
D03*
X42677D02*
D03*
X47677D02*
D03*
X52677D02*
D03*
X57677D02*
D03*
X62677D02*
D03*
X67677D02*
D03*
X72677D02*
D03*
X77677D02*
D03*
X82677D02*
D03*
X87677D02*
D03*
X92677D02*
D03*
X97677D02*
D03*
Y28740D02*
D03*
X92677D02*
D03*
X87677D02*
D03*
X82677D02*
D03*
X77677D02*
D03*
X72677D02*
D03*
X67677D02*
D03*
X62677D02*
D03*
X57677D02*
D03*
X52677D02*
D03*
X47677D02*
D03*
X42677D02*
D03*
X37677D02*
D03*
X32677D02*
D03*
D29*
X101614Y84705D02*
D03*
Y79705D02*
D03*
Y74705D02*
D03*
Y69705D02*
D03*
Y64705D02*
D03*
Y59705D02*
D03*
Y54705D02*
D03*
Y49705D02*
D03*
Y44705D02*
D03*
Y39705D02*
D03*
D30*
X62894Y175000D02*
D03*
D31*
X27657Y152165D02*
D03*
Y202953D02*
D03*
D32*
X44882Y137598D02*
D03*
Y130118D02*
D03*
X80709Y141732D02*
D03*
Y134252D02*
D03*
X74016Y141732D02*
D03*
Y134252D02*
D03*
X117717Y167126D02*
D03*
Y159646D02*
D03*
X189370Y115551D02*
D03*
Y108071D02*
D03*
X182677Y115551D02*
D03*
Y108071D02*
D03*
X244291Y39961D02*
D03*
Y47441D02*
D03*
X250984Y39961D02*
D03*
Y47441D02*
D03*
X257677Y39961D02*
D03*
Y47441D02*
D03*
X259842Y92716D02*
D03*
Y100197D02*
D03*
X253150Y92716D02*
D03*
Y100197D02*
D03*
X157283Y153740D02*
D03*
Y161221D02*
D03*
X176969Y177457D02*
D03*
Y184937D02*
D03*
X185272Y177457D02*
D03*
Y184937D02*
D03*
D33*
X70197Y112598D02*
D03*
X87402D02*
D03*
D34*
X92323Y129114D02*
D03*
Y134114D02*
D03*
Y139114D02*
D03*
Y144114D02*
D03*
X113976D02*
D03*
Y139114D02*
D03*
Y134114D02*
D03*
Y129114D02*
D03*
X189567Y103169D02*
D03*
Y98169D02*
D03*
Y93169D02*
D03*
Y88169D02*
D03*
X167913D02*
D03*
Y93169D02*
D03*
Y98169D02*
D03*
Y103169D02*
D03*
X244488Y100157D02*
D03*
Y95157D02*
D03*
Y90158D02*
D03*
Y85158D02*
D03*
X222835D02*
D03*
Y90158D02*
D03*
Y95157D02*
D03*
Y100157D02*
D03*
D35*
X99016Y112598D02*
D03*
X107283D02*
D03*
D36*
X164370Y63583D02*
D03*
D37*
X187205Y28346D02*
D03*
X136417D02*
D03*
D38*
X233858Y8465D02*
D03*
X203937D02*
D03*
D39*
X231102Y19203D02*
D03*
X206693D02*
D03*
D40*
X213779Y19685D02*
D03*
X216339D02*
D03*
X218898D02*
D03*
X221457D02*
D03*
X224016D02*
D03*
D41*
X233465Y220394D02*
D03*
Y210394D02*
D03*
Y200394D02*
D03*
Y190394D02*
D03*
Y180394D02*
D03*
D42*
X250394Y243307D02*
D03*
X261417D02*
D03*
X204153D02*
D03*
X193130D02*
D03*
X230906Y32677D02*
D03*
X241929D02*
D03*
D43*
X80315Y182677D02*
D03*
Y193701D02*
D03*
X148819Y129528D02*
D03*
Y118504D02*
D03*
D44*
X80315Y203543D02*
D03*
X94488D02*
D03*
D45*
X82677Y161417D02*
D03*
X106299D02*
D03*
D46*
X130709Y147244D02*
D03*
X139764D02*
D03*
X148819D02*
D03*
D47*
X139764Y172441D02*
D03*
D48*
X223917Y32776D02*
D03*
X220177D02*
D03*
X216437D02*
D03*
Y42028D02*
D03*
X220177D02*
D03*
X223917D02*
D03*
D49*
X179647Y163724D02*
D03*
X169347Y153424D02*
D03*
X185772Y157600D02*
D03*
X175471Y147299D02*
D03*
D50*
X141339Y183051D02*
D03*
Y203563D02*
D03*
X106693Y183051D02*
D03*
Y203563D02*
D03*
D51*
X201772Y169488D02*
D03*
X203740D02*
D03*
X205709D02*
D03*
X207677D02*
D03*
X209646D02*
D03*
X211614D02*
D03*
X213583D02*
D03*
X215551D02*
D03*
X217520D02*
D03*
X219488D02*
D03*
X221457D02*
D03*
X223425D02*
D03*
Y136024D02*
D03*
X221457D02*
D03*
X219488D02*
D03*
X217520D02*
D03*
X215551D02*
D03*
X213583D02*
D03*
X211614D02*
D03*
X209646D02*
D03*
X207677D02*
D03*
X205709D02*
D03*
X203740D02*
D03*
X201772D02*
D03*
D52*
X229331Y163583D02*
D03*
Y161614D02*
D03*
Y159646D02*
D03*
Y157677D02*
D03*
Y155709D02*
D03*
Y153740D02*
D03*
Y151772D02*
D03*
Y149803D02*
D03*
Y147835D02*
D03*
Y145866D02*
D03*
Y143898D02*
D03*
Y141929D02*
D03*
X195866D02*
D03*
Y143898D02*
D03*
Y145866D02*
D03*
Y147835D02*
D03*
Y149803D02*
D03*
Y151772D02*
D03*
Y153740D02*
D03*
Y155709D02*
D03*
Y157677D02*
D03*
Y159646D02*
D03*
Y161614D02*
D03*
Y163583D02*
D03*
D53*
X157874Y102953D02*
D03*
Y98622D02*
D03*
M02*
