G04*
G04 #@! TF.GenerationSoftware,Altium Limited,Altium Designer,22.2.1 (43)*
G04*
G04 Layer_Color=32896*
%FSLAX25Y25*%
%MOIN*%
G70*
G04*
G04 #@! TF.SameCoordinates,A0DC7013-DE40-4D07-A028-2F209A2C4820*
G04*
G04*
G04 #@! TF.FilePolarity,Positive*
G04*
G01*
G75*
%ADD10C,0.00787*%
%ADD12C,0.01000*%
%ADD16C,0.00394*%
%ADD17C,0.00984*%
%ADD19C,0.00591*%
G36*
X294488Y63976D02*
X292126Y66339D01*
Y61614D01*
X294488Y63976D01*
D02*
G37*
D10*
X298102Y123228D02*
G03*
X298102Y123228I-4402J0D01*
G01*
X311708Y91433D02*
G03*
X317276Y91433I2784J0D01*
G01*
X321579D01*
X307405D02*
X311708D01*
X307405Y56394D02*
Y91433D01*
Y56394D02*
X321579D01*
Y91433D01*
D12*
X285055Y54543D02*
Y55199D01*
Y54871D01*
X287023D01*
X286695Y54543D01*
D16*
X327953Y20472D02*
Y24409D01*
X316929Y20472D02*
X327953D01*
X316929D02*
Y24409D01*
X327953D01*
X302953Y31496D02*
X315158D01*
Y6890D02*
Y31496D01*
X297835Y6890D02*
X315158D01*
X297835D02*
Y31496D01*
X302953D01*
X305906Y32283D02*
X307087Y33268D01*
X304921D02*
X305906Y32283D01*
X304921Y33268D02*
X305906Y32283D01*
Y34646D01*
X344291D01*
Y34252D02*
Y34646D01*
Y34252D02*
X359252D01*
Y13583D02*
Y34252D01*
X344291Y13583D02*
X359252D01*
X344291D02*
Y34252D01*
X304528Y13386D02*
Y18110D01*
X302559Y13386D02*
Y18110D01*
X305118Y19685D02*
X309055D01*
X305118D02*
Y30709D01*
X309055D01*
Y19685D02*
Y30709D01*
X310236Y19685D02*
X314173D01*
X310236D02*
Y30709D01*
X314173D01*
Y19685D02*
Y30709D01*
X298819Y26181D02*
X303543D01*
X298819Y24213D02*
X303543D01*
X310236Y7480D02*
X314173D01*
X310236D02*
Y18504D01*
X314173D01*
Y7480D02*
Y18504D01*
X322047Y7874D02*
X326772D01*
Y18898D01*
X322047D02*
X326772D01*
X322047Y7874D02*
Y18898D01*
X332874Y8071D02*
Y19094D01*
Y8071D02*
X336811D01*
Y19094D01*
X332874D02*
X336811D01*
X321850Y32283D02*
X327756D01*
X321850Y25984D02*
X327756D01*
X298425Y42913D02*
X303150D01*
X298425Y40945D02*
X303150D01*
X305512Y42913D02*
X310236D01*
X305512Y40945D02*
X310236D01*
X312598Y42913D02*
X317323D01*
X312598Y40945D02*
X317323D01*
X287795Y55512D02*
Y59449D01*
X298819D01*
Y55512D02*
Y59449D01*
X287795Y55512D02*
X298819D01*
X294488Y62008D02*
Y65945D01*
X287796Y71653D02*
Y75590D01*
X298819D01*
Y71653D02*
Y75590D01*
X287796Y71653D02*
X298819D01*
X287795Y76772D02*
Y80709D01*
X298819D01*
Y76772D02*
Y80709D01*
X287795Y76772D02*
X298819D01*
X289764Y81890D02*
Y92913D01*
Y81890D02*
X293701D01*
Y92913D01*
X289764D02*
X293701D01*
X294882Y81890D02*
X298819D01*
X294882D02*
Y92913D01*
X298819D01*
Y81890D02*
Y92913D01*
X336417Y94882D02*
X344210D01*
Y57898D02*
Y94882D01*
X329134Y57898D02*
X344210D01*
X329134D02*
Y94882D01*
X336417D01*
X334646Y58661D02*
X338583D01*
X334646D02*
Y69685D01*
X338583D01*
Y58661D02*
Y69685D01*
X343701Y58661D02*
Y69685D01*
X339764D02*
X343701D01*
X339764Y58661D02*
Y69685D01*
Y58661D02*
X343701D01*
X334646Y70472D02*
Y81496D01*
Y70472D02*
X338583D01*
Y81496D01*
X334646D02*
X338583D01*
X339764Y70472D02*
X343701D01*
X339764D02*
Y81496D01*
X343701D01*
Y70472D02*
Y81496D01*
X333858Y82284D02*
Y93307D01*
X329921D02*
X333858D01*
X329921Y82284D02*
Y93307D01*
Y82284D02*
X333858D01*
X334646D02*
X338583D01*
X334646D02*
Y93307D01*
X338583D01*
Y82284D02*
Y93307D01*
X339764Y93307D02*
X343701D01*
Y82284D02*
Y93307D01*
X339764Y82284D02*
X343701D01*
X339764D02*
Y93307D01*
X345669Y86614D02*
X351969D01*
X345669Y84252D02*
X351969D01*
X345669Y68504D02*
X351969D01*
X345669Y66142D02*
X351969D01*
X341142Y53347D02*
Y57284D01*
X352165D01*
Y53347D02*
Y57284D01*
X341142Y53347D02*
X352165D01*
X328740Y57284D02*
X339764D01*
X328740Y53347D02*
Y57284D01*
Y53347D02*
X339764D01*
Y57284D01*
X301575Y96850D02*
X312598D01*
X301575Y92913D02*
Y96850D01*
Y92913D02*
X312598D01*
Y96850D01*
X306102Y98032D02*
Y102756D01*
X308071Y98032D02*
Y102756D01*
D17*
X281890Y52953D02*
X296457D01*
Y10433D02*
Y52953D01*
X281890Y10433D02*
X296457D01*
X281890D02*
Y52953D01*
D19*
X336417Y96063D02*
X337598Y98032D01*
X335236D02*
X336417Y96063D01*
X335236Y98032D02*
X336417Y96063D01*
Y113976D01*
X341732D01*
X355906Y99016D02*
Y128937D01*
X341732Y99016D02*
X355906D01*
X341732D02*
Y128937D01*
X355906D01*
X300984Y131035D02*
X298885D01*
X299935D01*
Y127887D01*
X297836D02*
Y131035D01*
X296261D01*
X295737Y130511D01*
Y129461D01*
X296261Y128937D01*
X297836D01*
X294687Y127362D02*
X292588D01*
X289439Y130511D02*
X289964Y131035D01*
X291014D01*
X291539Y130511D01*
Y128412D01*
X291014Y127887D01*
X289964D01*
X289439Y128412D01*
Y129461D01*
X290489D01*
X288390Y127887D02*
Y131035D01*
X286291Y127887D01*
Y131035D01*
X285241D02*
Y127887D01*
X283667D01*
X283142Y128412D01*
Y130511D01*
X283667Y131035D01*
X285241D01*
X294685Y6693D02*
Y9448D01*
X293767Y8530D01*
X292848Y9448D01*
Y6693D01*
X291930D02*
Y8530D01*
X291012Y9448D01*
X290093Y8530D01*
Y6693D01*
Y8070D01*
X291930D01*
X289175Y9448D02*
X288257D01*
X288716D01*
Y6693D01*
X289175D01*
X288257D01*
X286879D02*
Y9448D01*
X285043Y6693D01*
Y9448D01*
X327033Y6692D02*
Y4069D01*
X326508Y3544D01*
X325459D01*
X324934Y4069D01*
Y6692D01*
X323885Y4069D02*
X323360Y3544D01*
X322310D01*
X321786Y4069D01*
Y6168D01*
X322310Y6692D01*
X323360D01*
X323885Y6168D01*
Y5643D01*
X323360Y5118D01*
X321786D01*
X316600Y54921D02*
Y52297D01*
X316075Y51772D01*
X315026D01*
X314501Y52297D01*
Y54921D01*
X313452Y54396D02*
X312927Y54921D01*
X311877D01*
X311353Y54396D01*
Y53871D01*
X311877Y53347D01*
X311353Y52822D01*
Y52297D01*
X311877Y51772D01*
X312927D01*
X313452Y52297D01*
Y52822D01*
X312927Y53347D01*
X313452Y53871D01*
Y54396D01*
X312927Y53347D02*
X311877D01*
X341075Y27756D02*
Y30905D01*
X339501D01*
X338976Y30380D01*
Y29331D01*
X339501Y28806D01*
X341075D01*
X340025D02*
X338976Y27756D01*
X337926Y30905D02*
X335827D01*
X336877D01*
Y27756D01*
X334778D02*
X333728D01*
X334253D01*
Y30905D01*
X334778Y30380D01*
X337269Y20867D02*
Y24015D01*
X335695D01*
X335170Y23491D01*
Y22441D01*
X335695Y21916D01*
X337269D01*
X336220D02*
X335170Y20867D01*
X334120Y23491D02*
X333596Y24015D01*
X332546D01*
X332021Y23491D01*
Y22966D01*
X332546Y22441D01*
X333071D01*
X332546D01*
X332021Y21916D01*
Y21391D01*
X332546Y20867D01*
X333596D01*
X334120Y21391D01*
X330972Y24015D02*
X328873D01*
Y23491D01*
X330972Y21391D01*
Y20867D01*
X350001Y23952D02*
X353149D01*
Y25526D01*
X352624Y26050D01*
X351575D01*
X351050Y25526D01*
Y23952D01*
Y25001D02*
X350001Y26050D01*
X352624Y27100D02*
X353149Y27625D01*
Y28674D01*
X352624Y29199D01*
X352100D01*
X351575Y28674D01*
Y28150D01*
Y28674D01*
X351050Y29199D01*
X350525D01*
X350001Y28674D01*
Y27625D01*
X350525Y27100D01*
X353149Y32348D02*
X352624Y31298D01*
X351575Y30249D01*
X350525D01*
X350001Y30773D01*
Y31823D01*
X350525Y32348D01*
X351050D01*
X351575Y31823D01*
Y30249D01*
X357874Y22899D02*
X354725D01*
Y21325D01*
X355250Y20800D01*
X356299D01*
X356824Y21325D01*
Y22899D01*
Y21849D02*
X357874Y20800D01*
X355250Y19750D02*
X354725Y19226D01*
Y18176D01*
X355250Y17651D01*
X355774D01*
X356299Y18176D01*
Y18701D01*
Y18176D01*
X356824Y17651D01*
X357349D01*
X357874Y18176D01*
Y19226D01*
X357349Y19750D01*
X354725Y14503D02*
Y16602D01*
X356299D01*
X355774Y15552D01*
Y15027D01*
X356299Y14503D01*
X357349D01*
X357874Y15027D01*
Y16077D01*
X357349Y16602D01*
X354922Y24542D02*
X358070D01*
Y26116D01*
X357546Y26641D01*
X356496D01*
X355971Y26116D01*
Y24542D01*
Y25592D02*
X354922Y26641D01*
X357546Y27691D02*
X358070Y28215D01*
Y29265D01*
X357546Y29790D01*
X357021D01*
X356496Y29265D01*
Y28740D01*
Y29265D01*
X355971Y29790D01*
X355447D01*
X354922Y29265D01*
Y28215D01*
X355447Y27691D01*
X354922Y32414D02*
X358070D01*
X356496Y30839D01*
Y32938D01*
X347048Y100133D02*
X350196D01*
Y101707D01*
X349672Y102232D01*
X348622D01*
X348097Y101707D01*
Y100133D01*
Y101182D02*
X347048Y102232D01*
X349672Y103281D02*
X350196Y103806D01*
Y104856D01*
X349672Y105380D01*
X349147D01*
X348622Y104856D01*
Y104331D01*
Y104856D01*
X348097Y105380D01*
X347572D01*
X347048Y104856D01*
Y103806D01*
X347572Y103281D01*
X347048Y106430D02*
Y107479D01*
Y106955D01*
X350196D01*
X349672Y106430D01*
X298489Y93898D02*
Y97047D01*
X296915D01*
X296390Y96522D01*
Y95473D01*
X296915Y94948D01*
X298489D01*
X297440D02*
X296390Y93898D01*
X295341Y96522D02*
X294816Y97047D01*
X293767D01*
X293242Y96522D01*
Y95997D01*
X293767Y95473D01*
X294291D01*
X293767D01*
X293242Y94948D01*
Y94423D01*
X293767Y93898D01*
X294816D01*
X295341Y94423D01*
X292192Y96522D02*
X291668Y97047D01*
X290618D01*
X290093Y96522D01*
Y94423D01*
X290618Y93898D01*
X291668D01*
X292192Y94423D01*
Y96522D01*
X298489Y98229D02*
Y101377D01*
X296915D01*
X296390Y100853D01*
Y99803D01*
X296915Y99278D01*
X298489D01*
X297440D02*
X296390Y98229D01*
X293242D02*
X295341D01*
X293242Y100328D01*
Y100853D01*
X293767Y101377D01*
X294816D01*
X295341Y100853D01*
X292192Y98754D02*
X291668Y98229D01*
X290618D01*
X290093Y98754D01*
Y100853D01*
X290618Y101377D01*
X291668D01*
X292192Y100853D01*
Y100328D01*
X291668Y99803D01*
X290093D01*
X350458Y49213D02*
Y52362D01*
X348884D01*
X348359Y51837D01*
Y50787D01*
X348884Y50263D01*
X350458D01*
X349408D02*
X348359Y49213D01*
X345210D02*
X347309D01*
X345210Y51312D01*
Y51837D01*
X345735Y52362D01*
X346785D01*
X347309Y51837D01*
X344161D02*
X343636Y52362D01*
X342586D01*
X342062Y51837D01*
Y51312D01*
X342586Y50787D01*
X342062Y50263D01*
Y49738D01*
X342586Y49213D01*
X343636D01*
X344161Y49738D01*
Y50263D01*
X343636Y50787D01*
X344161Y51312D01*
Y51837D01*
X343636Y50787D02*
X342586D01*
X351378Y109581D02*
X354527D01*
Y111156D01*
X354002Y111680D01*
X352953D01*
X352428Y111156D01*
Y109581D01*
Y110631D02*
X351378Y111680D01*
Y114829D02*
Y112730D01*
X353478Y114829D01*
X354002D01*
X354527Y114304D01*
Y113255D01*
X354002Y112730D01*
X354527Y115879D02*
Y117978D01*
X354002D01*
X351903Y115879D01*
X351378D01*
X307151Y50985D02*
Y54133D01*
X305577D01*
X305052Y53609D01*
Y52559D01*
X305577Y52034D01*
X307151D01*
X306101D02*
X305052Y50985D01*
X301903D02*
X304002D01*
X301903Y53084D01*
Y53609D01*
X302428Y54133D01*
X303478D01*
X304002Y53609D01*
X298755Y54133D02*
X299804Y53609D01*
X300854Y52559D01*
Y51509D01*
X300329Y50985D01*
X299279D01*
X298755Y51509D01*
Y52034D01*
X299279Y52559D01*
X300854D01*
X351378Y119227D02*
X354527D01*
Y120801D01*
X354002Y121326D01*
X352953D01*
X352428Y120801D01*
Y119227D01*
Y120277D02*
X351378Y121326D01*
Y124475D02*
Y122376D01*
X353478Y124475D01*
X354002D01*
X354527Y123950D01*
Y122900D01*
X354002Y122376D01*
X354527Y127623D02*
Y125524D01*
X352953D01*
X353478Y126574D01*
Y127099D01*
X352953Y127623D01*
X351903D01*
X351378Y127099D01*
Y126049D01*
X351903Y125524D01*
X295079Y103282D02*
X298228D01*
Y104857D01*
X297703Y105381D01*
X296654D01*
X296129Y104857D01*
Y103282D01*
Y104332D02*
X295079Y105381D01*
Y108530D02*
Y106431D01*
X297178Y108530D01*
X297703D01*
X298228Y108005D01*
Y106956D01*
X297703Y106431D01*
X295079Y111154D02*
X298228D01*
X296654Y109579D01*
Y111678D01*
X347245Y119227D02*
X350393D01*
Y120801D01*
X349868Y121326D01*
X348819D01*
X348294Y120801D01*
Y119227D01*
Y120277D02*
X347245Y121326D01*
Y124475D02*
Y122376D01*
X349344Y124475D01*
X349868D01*
X350393Y123950D01*
Y122900D01*
X349868Y122376D01*
Y125524D02*
X350393Y126049D01*
Y127099D01*
X349868Y127623D01*
X349344D01*
X348819Y127099D01*
Y126574D01*
Y127099D01*
X348294Y127623D01*
X347769D01*
X347245Y127099D01*
Y126049D01*
X347769Y125524D01*
X292454Y4921D02*
X293503D01*
X292979D01*
Y2297D01*
X293503Y1772D01*
X294028D01*
X294553Y2297D01*
X291404Y4396D02*
X290880Y4921D01*
X289830D01*
X289305Y4396D01*
Y3871D01*
X289830Y3347D01*
X289305Y2822D01*
Y2297D01*
X289830Y1772D01*
X290880D01*
X291404Y2297D01*
Y2822D01*
X290880Y3347D01*
X291404Y3871D01*
Y4396D01*
X290880Y3347D02*
X289830D01*
X295734Y70866D02*
Y67717D01*
X294160D01*
X293635Y68242D01*
Y70341D01*
X294160Y70866D01*
X295734D01*
X290486D02*
X291536Y70341D01*
X292585Y69291D01*
Y68242D01*
X292061Y67717D01*
X291011D01*
X290486Y68242D01*
Y68767D01*
X291011Y69291D01*
X292585D01*
X348294Y26247D02*
X348818Y25723D01*
Y24673D01*
X348294Y24148D01*
X346195D01*
X345670Y24673D01*
Y25723D01*
X346195Y26247D01*
X345670Y28871D02*
X348818D01*
X347244Y27297D01*
Y29396D01*
X348818Y30446D02*
Y32545D01*
X348294D01*
X346195Y30446D01*
X345670D01*
X351705Y22113D02*
X352230Y22637D01*
X353280D01*
X353804Y22113D01*
Y20013D01*
X353280Y19489D01*
X352230D01*
X351705Y20013D01*
X349081Y19489D02*
Y22637D01*
X350656Y21063D01*
X348557D01*
X345408Y22637D02*
X346458Y22113D01*
X347507Y21063D01*
Y20013D01*
X346983Y19489D01*
X345933D01*
X345408Y20013D01*
Y20538D01*
X345933Y21063D01*
X347507D01*
X340420Y11681D02*
X340944Y11156D01*
Y10106D01*
X340420Y9581D01*
X338321D01*
X337796Y10106D01*
Y11156D01*
X338321Y11681D01*
X337796Y14304D02*
X340944D01*
X339370Y12730D01*
Y14829D01*
X340944Y17978D02*
Y15879D01*
X339370D01*
X339895Y16928D01*
Y17453D01*
X339370Y17978D01*
X338321D01*
X337796Y17453D01*
Y16403D01*
X338321Y15879D01*
X354199Y102232D02*
X354724Y101707D01*
Y100657D01*
X354199Y100133D01*
X352100D01*
X351575Y100657D01*
Y101707D01*
X352100Y102232D01*
X351575Y104856D02*
X354724D01*
X353150Y103281D01*
Y105380D01*
X351575Y108004D02*
X354724D01*
X353150Y106430D01*
Y108529D01*
X336548Y51837D02*
X337073Y52362D01*
X338122D01*
X338647Y51837D01*
Y49738D01*
X338122Y49213D01*
X337073D01*
X336548Y49738D01*
X333924Y49213D02*
Y52362D01*
X335498Y50787D01*
X333399D01*
X332350Y51837D02*
X331825Y52362D01*
X330775D01*
X330251Y51837D01*
Y51312D01*
X330775Y50787D01*
X331300D01*
X330775D01*
X330251Y50263D01*
Y49738D01*
X330775Y49213D01*
X331825D01*
X332350Y49738D01*
X329396Y39830D02*
X329921Y39305D01*
Y38256D01*
X329396Y37731D01*
X327297D01*
X326772Y38256D01*
Y39305D01*
X327297Y39830D01*
X326772Y42454D02*
X329921D01*
X328346Y40880D01*
Y42979D01*
X326772Y46127D02*
Y44028D01*
X328871Y46127D01*
X329396D01*
X329921Y45603D01*
Y44553D01*
X329396Y44028D01*
X325262Y39830D02*
X325787Y39305D01*
Y38256D01*
X325262Y37731D01*
X323163D01*
X322638Y38256D01*
Y39305D01*
X323163Y39830D01*
X322638Y42454D02*
X325787D01*
X324213Y40880D01*
Y42979D01*
X322638Y44028D02*
Y45078D01*
Y44553D01*
X325787D01*
X325262Y44028D01*
X321325Y39830D02*
X321850Y39305D01*
Y38256D01*
X321325Y37731D01*
X319226D01*
X318701Y38256D01*
Y39305D01*
X319226Y39830D01*
X318701Y42454D02*
X321850D01*
X320276Y40880D01*
Y42979D01*
X321325Y44028D02*
X321850Y44553D01*
Y45603D01*
X321325Y46127D01*
X319226D01*
X318701Y45603D01*
Y44553D01*
X319226Y44028D01*
X321325D01*
X355971Y64633D02*
X356496Y64109D01*
Y63059D01*
X355971Y62534D01*
X353872D01*
X353347Y63059D01*
Y64109D01*
X353872Y64633D01*
X355971Y65683D02*
X356496Y66207D01*
Y67257D01*
X355971Y67782D01*
X355446D01*
X354921Y67257D01*
Y66732D01*
Y67257D01*
X354397Y67782D01*
X353872D01*
X353347Y67257D01*
Y66207D01*
X353872Y65683D01*
Y68831D02*
X353347Y69356D01*
Y70406D01*
X353872Y70930D01*
X355971D01*
X356496Y70406D01*
Y69356D01*
X355971Y68831D01*
X355446D01*
X354921Y69356D01*
Y70930D01*
X349868Y111680D02*
X350393Y111156D01*
Y110106D01*
X349868Y109581D01*
X347769D01*
X347245Y110106D01*
Y111156D01*
X347769Y111680D01*
X349868Y112730D02*
X350393Y113255D01*
Y114304D01*
X349868Y114829D01*
X349344D01*
X348819Y114304D01*
Y113779D01*
Y114304D01*
X348294Y114829D01*
X347769D01*
X347245Y114304D01*
Y113255D01*
X347769Y112730D01*
X349868Y115879D02*
X350393Y116403D01*
Y117453D01*
X349868Y117978D01*
X349344D01*
X348819Y117453D01*
X348294Y117978D01*
X347769D01*
X347245Y117453D01*
Y116403D01*
X347769Y115879D01*
X348294D01*
X348819Y116403D01*
X349344Y115879D01*
X349868D01*
X348819Y116403D02*
Y117453D01*
X292782Y105184D02*
X293307Y104660D01*
Y103610D01*
X292782Y103085D01*
X290683D01*
X290158Y103610D01*
Y104660D01*
X290683Y105184D01*
X292782Y106234D02*
X293307Y106759D01*
Y107808D01*
X292782Y108333D01*
X292257D01*
X291732Y107808D01*
Y107283D01*
Y107808D01*
X291208Y108333D01*
X290683D01*
X290158Y107808D01*
Y106759D01*
X290683Y106234D01*
X293307Y109382D02*
Y111482D01*
X292782D01*
X290683Y109382D01*
X290158D01*
X355971Y83137D02*
X356496Y82612D01*
Y81563D01*
X355971Y81038D01*
X353872D01*
X353347Y81563D01*
Y82612D01*
X353872Y83137D01*
X355971Y84187D02*
X356496Y84711D01*
Y85761D01*
X355971Y86286D01*
X355446D01*
X354921Y85761D01*
Y85236D01*
Y85761D01*
X354397Y86286D01*
X353872D01*
X353347Y85761D01*
Y84711D01*
X353872Y84187D01*
X356496Y89434D02*
X355971Y88385D01*
X354921Y87335D01*
X353872D01*
X353347Y87860D01*
Y88910D01*
X353872Y89434D01*
X354397D01*
X354921Y88910D01*
Y87335D01*
X309383Y106561D02*
X309907Y107086D01*
X310957D01*
X311482Y106561D01*
Y104462D01*
X310957Y103937D01*
X309907D01*
X309383Y104462D01*
X308333Y106561D02*
X307808Y107086D01*
X306759D01*
X306234Y106561D01*
Y106037D01*
X306759Y105512D01*
X307283D01*
X306759D01*
X306234Y104987D01*
Y104462D01*
X306759Y103937D01*
X307808D01*
X308333Y104462D01*
X303085Y107086D02*
X305184D01*
Y105512D01*
X304135Y106037D01*
X303610D01*
X303085Y105512D01*
Y104462D01*
X303610Y103937D01*
X304660D01*
X305184Y104462D01*
X319619Y96128D02*
X320144Y96653D01*
X321193D01*
X321718Y96128D01*
Y94029D01*
X321193Y93504D01*
X320144D01*
X319619Y94029D01*
X318569Y96128D02*
X318044Y96653D01*
X316995D01*
X316470Y96128D01*
Y95604D01*
X316995Y95079D01*
X317520D01*
X316995D01*
X316470Y94554D01*
Y94029D01*
X316995Y93504D01*
X318044D01*
X318569Y94029D01*
X313846Y93504D02*
Y96653D01*
X315421Y95079D01*
X313322D01*
X345735Y121326D02*
X346259Y120801D01*
Y119752D01*
X345735Y119227D01*
X343636D01*
X343111Y119752D01*
Y120801D01*
X343636Y121326D01*
X345735Y122376D02*
X346259Y122900D01*
Y123950D01*
X345735Y124475D01*
X345210D01*
X344685Y123950D01*
Y123425D01*
Y123950D01*
X344160Y124475D01*
X343636D01*
X343111Y123950D01*
Y122900D01*
X343636Y122376D01*
X345735Y125524D02*
X346259Y126049D01*
Y127099D01*
X345735Y127623D01*
X345210D01*
X344685Y127099D01*
Y126574D01*
Y127099D01*
X344160Y127623D01*
X343636D01*
X343111Y127099D01*
Y126049D01*
X343636Y125524D01*
M02*
