G04*
G04 #@! TF.GenerationSoftware,Altium Limited,Altium Designer,22.2.1 (43)*
G04*
G04 Layer_Physical_Order=1*
G04 Layer_Color=255*
%FSLAX25Y25*%
%MOIN*%
G70*
G04*
G04 #@! TF.SameCoordinates,A0DC7013-DE40-4D07-A028-2F209A2C4820*
G04*
G04*
G04 #@! TF.FilePolarity,Positive*
G04*
G01*
G75*
%ADD12C,0.01000*%
%ADD54C,0.08268*%
%ADD67C,0.02362*%
%ADD68R,0.02756X0.05118*%
%ADD69R,0.03800X0.03100*%
%ADD70R,0.04331X0.03150*%
%ADD71R,0.03100X0.03800*%
%ADD72R,0.02756X0.05906*%
%ADD73R,0.03937X0.03150*%
%ADD74R,0.05236X0.05236*%
%ADD75R,0.03543X0.07874*%
%ADD76R,0.07874X0.03543*%
%ADD77R,0.17323X0.12992*%
%ADD78R,0.24410X0.15354*%
%ADD79R,0.05118X0.02756*%
%ADD80R,0.08858X0.08346*%
%ADD81R,0.05906X0.01968*%
%ADD82R,0.05118X0.13386*%
%ADD83R,0.12992X0.17323*%
%ADD84R,0.15354X0.24410*%
%ADD85R,0.07480X0.07087*%
%ADD86R,0.08268X0.06299*%
%ADD87R,0.01575X0.05315*%
%ADD88R,0.07874X0.04331*%
%ADD89R,0.04134X0.02165*%
%ADD90R,0.02165X0.04134*%
%ADD91R,0.06299X0.06299*%
%ADD92R,0.11811X0.07874*%
%ADD93R,0.04724X0.06299*%
%ADD94R,0.12992X0.06299*%
%ADD95R,0.02362X0.05354*%
G04:AMPARAMS|DCode=96|XSize=62.99mil|YSize=49.21mil|CornerRadius=0mil|HoleSize=0mil|Usage=FLASHONLY|Rotation=225.000|XOffset=0mil|YOffset=0mil|HoleType=Round|Shape=Rectangle|*
%AMROTATEDRECTD96*
4,1,4,0.00487,0.03967,0.03967,0.00487,-0.00487,-0.03967,-0.03967,-0.00487,0.00487,0.03967,0.0*
%
%ADD96ROTATEDRECTD96*%

%ADD97R,0.06102X0.04724*%
%ADD98R,0.01181X0.04724*%
%ADD99R,0.04724X0.01181*%
%ADD100R,0.03937X0.01968*%
%ADD101C,0.01500*%
%ADD102C,0.02500*%
%ADD103C,0.02000*%
%ADD104C,0.01100*%
%ADD105C,0.03000*%
%ADD106C,0.01200*%
%ADD107C,0.03500*%
%ADD108C,0.01473*%
%ADD109C,0.00800*%
%ADD110C,0.07000*%
%ADD111C,0.06000*%
%ADD112C,0.07874*%
%ADD113O,0.06693X0.04724*%
%ADD114C,0.03937*%
%ADD115C,0.01181*%
%ADD116O,0.07874X0.15748*%
%ADD117O,0.15748X0.07874*%
%ADD118O,0.07087X0.14173*%
%ADD119O,0.14173X0.07087*%
%ADD120C,0.09843*%
%ADD121C,0.11811*%
%ADD122C,0.01968*%
%ADD123C,0.01772*%
G36*
X195276Y257874D02*
X195276Y242323D01*
X194685Y241732D01*
X185039Y241732D01*
X180512Y246260D01*
Y260039D01*
X182480Y262008D01*
X191142D01*
X195276Y257874D01*
D02*
G37*
G36*
X231890Y249803D02*
X234842Y246850D01*
X237795D01*
X238976Y245669D01*
Y242126D01*
X237992Y241142D01*
X229331D01*
X228150Y242323D01*
Y249213D01*
X228740Y249803D01*
X231890Y249803D01*
D02*
G37*
G36*
X274410Y258071D02*
Y247638D01*
X266142Y239370D01*
X259055D01*
X257874Y240551D01*
X257874Y258071D01*
X261614Y261811D01*
X270669D01*
X274410Y258071D01*
D02*
G37*
G36*
X253346Y256890D02*
Y240158D01*
X250787Y237598D01*
X241732D01*
X240748Y238583D01*
Y246654D01*
X238976Y248425D01*
X236024D01*
X232480Y251969D01*
Y260433D01*
X234646Y262598D01*
X247638D01*
X253346Y256890D01*
D02*
G37*
G36*
X223031Y259646D02*
Y250984D01*
X220079Y248031D01*
X216339D01*
X214567Y246260D01*
Y237992D01*
X213779Y237205D01*
X206299D01*
X201575Y241929D01*
Y257677D01*
X205709Y261811D01*
X220866D01*
X223031Y259646D01*
D02*
G37*
G36*
X227559Y238779D02*
Y234055D01*
X228346Y233268D01*
X231890D01*
X232677Y232480D01*
Y229134D01*
X231890Y228346D01*
X218110D01*
X216535Y229921D01*
Y238779D01*
X217717Y239961D01*
X226378D01*
X227559Y238779D01*
D02*
G37*
G36*
X251081Y221085D02*
X247419Y217423D01*
X238402D01*
Y219644D01*
X233465D01*
X228528D01*
Y217423D01*
X225394D01*
X224828Y217311D01*
X224348Y216990D01*
X220247Y212889D01*
X219785Y213081D01*
Y216710D01*
X227288Y224213D01*
X251081D01*
Y221085D01*
D02*
G37*
G36*
X135433Y208661D02*
X146063Y208661D01*
X147244Y207480D01*
X147244Y199213D01*
X146063Y198031D01*
X130709D01*
X108268Y220472D01*
X88189Y220472D01*
X83858Y224803D01*
Y233465D01*
X87795Y237402D01*
X106693D01*
X135433Y208661D01*
D02*
G37*
G36*
X111811Y208661D02*
X111811Y198031D01*
X110630Y196850D01*
X91732Y196850D01*
X90158Y198425D01*
X90158Y208268D01*
X91732Y209842D01*
X110630D01*
X111811Y208661D01*
D02*
G37*
G36*
X160630Y220472D02*
Y187008D01*
X154331Y180709D01*
X145390D01*
Y182051D01*
X141339D01*
X137287D01*
Y180709D01*
X135039D01*
X133071Y182677D01*
Y187795D01*
X136221Y190945D01*
X146850Y190945D01*
X151575Y195669D01*
Y209449D01*
X146850Y214173D01*
X136221Y214173D01*
X124803Y225590D01*
Y231890D01*
X130315Y237402D01*
X143701D01*
X160630Y220472D01*
D02*
G37*
G36*
X46063Y280315D02*
X46063Y248819D01*
X46063Y233858D01*
X69291Y210630D01*
X81496D01*
X84252Y207874D01*
X84252Y192520D01*
X81496Y189764D01*
X74016D01*
X69291Y194488D01*
X38189Y225591D01*
X31890Y225590D01*
X26378Y231102D01*
Y281890D01*
X31496Y287008D01*
X39370D01*
X46063Y280315D01*
D02*
G37*
G36*
X202362Y181102D02*
Y167126D01*
X201181D01*
Y171260D01*
X196653Y173524D01*
Y179921D01*
X195079Y181496D01*
X170276D01*
X161811Y173031D01*
X161811Y160039D01*
X160039Y158268D01*
X154921D01*
X152559Y155905D01*
X152559Y129724D01*
X151364Y128529D01*
X150902Y128720D01*
Y128778D01*
X148819D01*
X146736D01*
Y128523D01*
X146274Y128332D01*
X145669Y128937D01*
X145669Y164173D01*
X148425Y166929D01*
Y169685D01*
X166732Y187992D01*
X195472D01*
X202362Y181102D01*
D02*
G37*
G36*
X72047Y186221D02*
X81496D01*
X83065Y184651D01*
Y180485D01*
X81713Y179134D01*
X77548D01*
X72835Y174421D01*
X72835Y163386D01*
X70472Y161024D01*
X57874D01*
X48031Y170866D01*
X48031Y189764D01*
X52362Y194095D01*
X64173D01*
X72047Y186221D01*
D02*
G37*
G36*
X240293Y106829D02*
X240773Y106508D01*
X241339Y106396D01*
X261396D01*
X265784Y102007D01*
X265465Y101618D01*
X264915Y101987D01*
X264173Y102134D01*
X263102D01*
Y102275D01*
X256583D01*
Y102275D01*
X256409D01*
Y102275D01*
X249891D01*
Y102095D01*
X244488D01*
X243747Y101947D01*
X243589Y101842D01*
X240835D01*
Y98473D01*
X243589D01*
X243747Y98368D01*
X244488Y98220D01*
X249891D01*
Y98119D01*
X256409D01*
Y98119D01*
X256583Y98119D01*
X256583Y98119D01*
X263102D01*
Y98119D01*
X263575Y98055D01*
X264961Y96670D01*
X264969Y96629D01*
X265429Y95941D01*
X266117Y95481D01*
X266929Y95319D01*
X267741Y95481D01*
X268429Y95941D01*
X268889Y96629D01*
X269051Y97441D01*
X268904Y98180D01*
X269072Y98348D01*
X269316Y98475D01*
X272931Y94860D01*
Y49232D01*
X272908Y49214D01*
X272431Y49051D01*
X271764Y49717D01*
X271533Y49872D01*
X271260Y49926D01*
X270390D01*
X270143Y50029D01*
X269291Y50141D01*
X267323D01*
X266471Y50029D01*
X266224Y49926D01*
X263288D01*
X262131Y51083D01*
Y53347D01*
X262077Y53620D01*
X261922Y53851D01*
X259757Y56016D01*
X259525Y56171D01*
X259252Y56226D01*
X242520Y56226D01*
X242247Y56171D01*
X242015Y56016D01*
X239850Y53851D01*
X239695Y53620D01*
X239641Y53347D01*
Y44488D01*
X239695Y44215D01*
X239850Y43984D01*
X240081Y43829D01*
X240354Y43775D01*
X264749D01*
X264872Y43275D01*
X264386Y42641D01*
X264047Y41823D01*
X264030Y41695D01*
X268307D01*
Y40195D01*
X264030D01*
X264047Y40067D01*
X264386Y39249D01*
X264925Y38547D01*
X265319Y38244D01*
Y37614D01*
X264996Y37366D01*
X264473Y36685D01*
X264145Y35891D01*
X264033Y35039D01*
X264145Y34188D01*
X264473Y33394D01*
X264996Y32713D01*
X265415Y32391D01*
Y31782D01*
X264996Y31460D01*
X264473Y30779D01*
X264145Y29985D01*
X264033Y29134D01*
X264145Y28282D01*
X264473Y27489D01*
X264996Y26807D01*
X265415Y26486D01*
Y25876D01*
X264996Y25555D01*
X264473Y24873D01*
X264145Y24080D01*
X264033Y23228D01*
X264145Y22377D01*
X264473Y21583D01*
X264996Y20902D01*
X265415Y20580D01*
Y19971D01*
X264996Y19649D01*
X264473Y18968D01*
X264145Y18174D01*
X264033Y17323D01*
X264145Y16471D01*
X264473Y15678D01*
X264996Y14996D01*
X265678Y14473D01*
X266471Y14145D01*
X267323Y14032D01*
X269291D01*
X270143Y14145D01*
X270936Y14473D01*
X271618Y14996D01*
X272141Y15678D01*
X272470Y16471D01*
X272582Y17323D01*
X272470Y18174D01*
X272141Y18968D01*
X271618Y19649D01*
X271199Y19971D01*
Y20580D01*
X271618Y20902D01*
X272141Y21583D01*
X272470Y22377D01*
X272582Y23228D01*
X272511Y23766D01*
X277453Y28708D01*
X277953Y28501D01*
Y7874D01*
X273228Y3150D01*
X126969D01*
X120079Y10039D01*
Y28937D01*
X117110Y31905D01*
X119746Y34541D01*
X120067Y35021D01*
X120179Y35587D01*
Y51947D01*
X143329Y75096D01*
X174978D01*
X178088Y71986D01*
X178568Y71666D01*
X179134Y71553D01*
X198556D01*
X198943Y71053D01*
X198866Y70669D01*
X199012Y69934D01*
X199429Y69311D01*
X200052Y68894D01*
X200787Y68748D01*
X201523Y68894D01*
X201966Y69191D01*
X209480D01*
X209747Y68691D01*
X209538Y68378D01*
X209400Y67681D01*
X209538Y66984D01*
X209933Y66394D01*
Y66000D01*
X209538Y65409D01*
X209400Y64713D01*
X209538Y64016D01*
X209933Y63425D01*
X210524Y63030D01*
X211221Y62892D01*
X211917Y63030D01*
X212097Y63151D01*
X212202Y63171D01*
X212383Y63292D01*
X214663D01*
X217272Y60683D01*
Y50734D01*
X215257Y48719D01*
X214896Y48178D01*
X214769Y47539D01*
Y45405D01*
X214556D01*
Y38650D01*
X214769D01*
Y36153D01*
X214556D01*
Y29398D01*
X214769D01*
Y28334D01*
X214896Y27696D01*
X215257Y27154D01*
X217272Y25139D01*
Y23043D01*
X215567D01*
Y23343D01*
X214529D01*
Y19685D01*
Y16028D01*
X215567D01*
Y16328D01*
X225503D01*
Y19474D01*
X225545Y19685D01*
Y22973D01*
X225871Y23253D01*
X226269Y22962D01*
X226269Y22572D01*
Y15353D01*
X235936D01*
Y23052D01*
X226766D01*
X226316Y23052D01*
X225996Y23439D01*
X231987Y29430D01*
X232318Y29926D01*
X232435Y30512D01*
Y30895D01*
X233672D01*
Y34460D01*
X228139D01*
Y30895D01*
X228472D01*
X228663Y30433D01*
X225979Y27748D01*
X225518Y27994D01*
X225586Y28334D01*
Y29398D01*
X225798D01*
Y36153D01*
X225586D01*
Y38650D01*
X225798D01*
Y45405D01*
X225586D01*
Y47539D01*
X225459Y48178D01*
X225097Y48719D01*
X223082Y50734D01*
Y62398D01*
X222955Y63037D01*
X222593Y63578D01*
X217558Y68613D01*
X217442Y68691D01*
X217594Y69191D01*
X253543D01*
X254109Y69303D01*
X254589Y69624D01*
X261282Y76317D01*
X261602Y76797D01*
X261715Y77363D01*
Y82789D01*
X262837D01*
Y87289D01*
X257637D01*
Y82789D01*
X258758D01*
Y77975D01*
X252931Y72148D01*
X229026D01*
X228834Y72610D01*
X238841Y82616D01*
X239161Y83096D01*
X239274Y83661D01*
Y102362D01*
X239161Y102928D01*
X238841Y103408D01*
X225494Y116754D01*
Y120974D01*
X225956Y121166D01*
X240293Y106829D01*
D02*
G37*
G36*
X22441Y281496D02*
Y227165D01*
X29331Y220276D01*
X35433D01*
X60439Y195270D01*
X60247Y194808D01*
X52362D01*
X52089Y194754D01*
X51858Y194599D01*
X47527Y190268D01*
X47372Y190037D01*
X47318Y189764D01*
X47318Y170866D01*
X47372Y170593D01*
X47527Y170361D01*
X57369Y160519D01*
X57601Y160364D01*
X57874Y160310D01*
X70472D01*
X70746Y160364D01*
X70977Y160519D01*
X73339Y162881D01*
X73494Y163113D01*
X73548Y163386D01*
X73548Y174125D01*
X77843Y178420D01*
X81713D01*
X81987Y178474D01*
X82218Y178629D01*
X83570Y179981D01*
X83724Y180212D01*
X83779Y180485D01*
Y184651D01*
X83724Y184925D01*
X83570Y185156D01*
X82001Y186725D01*
X81769Y186880D01*
X81496Y186934D01*
X72343D01*
X68204Y191074D01*
X68395Y191535D01*
X71235D01*
X73511Y189259D01*
X73743Y189104D01*
X74016Y189050D01*
X81496D01*
X81769Y189104D01*
X82001Y189259D01*
X84277Y191535D01*
X135095D01*
X135302Y191035D01*
X132566Y188300D01*
X132412Y188068D01*
X132357Y187795D01*
Y182677D01*
X132412Y182404D01*
X132566Y182173D01*
X134535Y180204D01*
X134766Y180049D01*
X135039Y179995D01*
X137090D01*
X137587Y179989D01*
X137587Y179989D01*
X137587Y179989D01*
X145090D01*
X145090Y179989D01*
Y179989D01*
X145587Y179995D01*
X154331D01*
X154604Y180049D01*
X154835Y180204D01*
X161135Y186503D01*
X161289Y186735D01*
X161344Y187008D01*
Y207210D01*
X178347Y224213D01*
X222453D01*
X222644Y223751D01*
X217262Y218368D01*
X216941Y217889D01*
X216829Y217323D01*
Y181947D01*
X216393Y181628D01*
X216134Y181865D01*
X216295Y182677D01*
X216134Y183489D01*
X215674Y184178D01*
X214985Y184637D01*
X214173Y184799D01*
X213361Y184637D01*
X212673Y184178D01*
X212213Y183489D01*
X212051Y182677D01*
X212056Y182651D01*
X211535Y182130D01*
X211073Y182321D01*
Y183805D01*
X211013Y184105D01*
X211335Y184605D01*
X211896D01*
Y189805D01*
X207396D01*
Y184605D01*
X207957D01*
X208278Y184105D01*
X208218Y183805D01*
Y172550D01*
X207187D01*
Y175002D01*
X207484Y175446D01*
X207630Y176181D01*
X207484Y176916D01*
X207067Y177540D01*
X206444Y177956D01*
X205709Y178102D01*
X204974Y177956D01*
X204350Y177540D01*
X203934Y176916D01*
X203787Y176181D01*
X203934Y175446D01*
X204230Y175002D01*
Y172850D01*
X203076D01*
Y181102D01*
X203022Y181376D01*
X202867Y181607D01*
X195977Y188497D01*
X195746Y188652D01*
X195472Y188706D01*
X166732D01*
X166459Y188652D01*
X166228Y188497D01*
X147921Y170190D01*
X147766Y169958D01*
X147760Y169928D01*
X147260Y169977D01*
Y171691D01*
X140514D01*
Y168291D01*
X147212D01*
X147260Y168291D01*
X147712Y168175D01*
Y167225D01*
X145165Y164678D01*
X145010Y164446D01*
X144956Y164173D01*
X144956Y128937D01*
X145010Y128664D01*
X145165Y128432D01*
X145770Y127827D01*
X146001Y127673D01*
X146274Y127618D01*
X146536Y127670D01*
X146548Y127673D01*
X147036Y127334D01*
Y126761D01*
X150602D01*
Y127531D01*
X151090Y127869D01*
X151102Y127867D01*
X151364Y127815D01*
X151637Y127869D01*
X151868Y128024D01*
X153064Y129220D01*
X153218Y129451D01*
X153273Y129724D01*
X153273Y151245D01*
X153724Y151362D01*
Y151362D01*
X156534D01*
Y153740D01*
Y156118D01*
X154434D01*
X154243Y156580D01*
X155217Y157554D01*
X160039D01*
X160312Y157608D01*
X160544Y157763D01*
X162316Y159535D01*
X162470Y159766D01*
X162525Y160039D01*
X162525Y165166D01*
X164603D01*
Y167717D01*
Y170266D01*
X162525D01*
Y172736D01*
X170571Y180782D01*
X194757D01*
X195021Y180459D01*
X194826Y180007D01*
X193880D01*
Y177457D01*
Y174907D01*
X195940D01*
Y173524D01*
X195962Y173411D01*
X195976Y173298D01*
X195989Y173276D01*
X195994Y173250D01*
X196058Y173155D01*
X196114Y173056D01*
X196135Y173040D01*
X196149Y173019D01*
X196244Y172955D01*
X196334Y172885D01*
X200467Y170819D01*
Y167126D01*
X200481Y167057D01*
Y166426D01*
X201112D01*
X201181Y166412D01*
X202150D01*
Y166126D01*
X202990D01*
Y166426D01*
X203062D01*
Y167057D01*
X203076Y167126D01*
Y169488D01*
X204230D01*
X204343Y168922D01*
X204418Y168810D01*
Y166426D01*
X204490D01*
Y166126D01*
X205331D01*
Y166426D01*
X223721D01*
X223913Y165964D01*
X222970Y165022D01*
X222650Y164542D01*
X222537Y163976D01*
Y161417D01*
X222650Y160852D01*
X222970Y160372D01*
X224742Y158600D01*
X225222Y158280D01*
X225787Y158167D01*
X226269D01*
Y156387D01*
Y152450D01*
Y148513D01*
Y144576D01*
Y140639D01*
X232393D01*
Y144439D01*
X239526D01*
Y143616D01*
X244726D01*
Y148116D01*
X239526D01*
Y147294D01*
X232393D01*
Y152362D01*
X239173D01*
X241142Y150394D01*
X260236D01*
X262598Y152756D01*
Y159843D01*
X260236Y162205D01*
X245420D01*
Y163030D01*
X242520D01*
X239620D01*
Y163024D01*
X239261Y162734D01*
X238820Y162924D01*
Y166030D01*
X237902D01*
Y167670D01*
X238180Y168086D01*
X238342Y168898D01*
X238180Y169710D01*
X237720Y170398D01*
X237032Y170858D01*
X236220Y171019D01*
X235408Y170858D01*
X234720Y170398D01*
X234260Y169710D01*
X234098Y168898D01*
X234260Y168086D01*
X234538Y167670D01*
Y166030D01*
X233620D01*
Y165061D01*
X229331D01*
X228765Y164948D01*
X228652Y164873D01*
X227657D01*
X227465Y165335D01*
X228408Y166277D01*
X228728Y166757D01*
X228841Y167323D01*
Y177528D01*
X233434D01*
X233691Y177495D01*
X233948Y177528D01*
X238102D01*
Y177642D01*
X251772D01*
X252463Y177733D01*
X253108Y178000D01*
X253662Y178425D01*
X254086Y178979D01*
X254353Y179623D01*
X254445Y180315D01*
X254353Y181007D01*
X254086Y181651D01*
X253662Y182205D01*
X253108Y182630D01*
X252463Y182897D01*
X251772Y182988D01*
X238102D01*
Y183259D01*
X228841D01*
Y185451D01*
X230918Y187528D01*
X238102D01*
Y193259D01*
X228828D01*
Y189619D01*
X227137Y187929D01*
X226675Y188120D01*
Y198206D01*
X227384Y198915D01*
X228828D01*
Y197528D01*
X238102D01*
Y203259D01*
X228828D01*
Y201872D01*
X226772D01*
X226206Y201760D01*
X225726Y201439D01*
X224775Y200488D01*
X224313Y200679D01*
Y206474D01*
X226754Y208915D01*
X228828D01*
Y207528D01*
X238102D01*
Y213259D01*
X228828D01*
Y211872D01*
X226142D01*
X225576Y211760D01*
X225096Y211439D01*
X222413Y208755D01*
X221951Y208947D01*
Y210411D01*
X226006Y214467D01*
X248031D01*
X248597Y214579D01*
X249077Y214899D01*
X253605Y219427D01*
X253925Y219907D01*
X254037Y220472D01*
Y224213D01*
X271850D01*
X277953Y218110D01*
Y97877D01*
X277453Y97670D01*
X264234Y110888D01*
X263755Y111208D01*
X263189Y111321D01*
X242922D01*
X231531Y122711D01*
X231696Y123254D01*
X232023Y123319D01*
X232712Y123779D01*
X233172Y124467D01*
X233333Y125279D01*
X233172Y126091D01*
X232712Y126780D01*
X232023Y127240D01*
X231800Y127284D01*
X231690Y127466D01*
X231973Y127966D01*
X232865D01*
Y129766D01*
X230715D01*
Y129336D01*
X230215Y129069D01*
X230147Y129114D01*
Y129716D01*
X230019Y130359D01*
X229915Y130515D01*
Y132766D01*
X226781D01*
X224944Y134602D01*
Y135983D01*
X224832Y136549D01*
X224716Y136722D01*
Y139086D01*
X223047D01*
Y139386D01*
X222207D01*
Y139086D01*
X222134D01*
Y136702D01*
X222059Y136590D01*
X221947Y136024D01*
X220967D01*
X220854Y136590D01*
X220779Y136702D01*
Y139086D01*
X220707D01*
Y139386D01*
X219866D01*
Y139086D01*
X200481D01*
Y136702D01*
X200406Y136589D01*
X200293Y136024D01*
Y134864D01*
X197616Y132187D01*
X193444D01*
X193430Y132209D01*
X193080Y132442D01*
Y133044D01*
X193233Y133145D01*
X193693Y133834D01*
X193854Y134646D01*
X193693Y135458D01*
X193233Y136146D01*
X193211Y136161D01*
Y138954D01*
X194707Y140451D01*
X195866D01*
X196432Y140563D01*
X196545Y140639D01*
X198928D01*
Y144576D01*
Y148213D01*
X199228D01*
Y149053D01*
X198928D01*
Y149125D01*
X196545D01*
X196432Y149201D01*
X195866Y149313D01*
Y150344D01*
X196413Y150453D01*
X196455Y150481D01*
X198928D01*
Y150553D01*
X199228D01*
Y151394D01*
X198928D01*
Y156387D01*
Y160324D01*
Y164873D01*
X192804D01*
Y161159D01*
X192618Y161039D01*
X192304Y160968D01*
X188015Y165257D01*
X187535Y165577D01*
X186970Y165690D01*
X183125D01*
X180134Y168681D01*
X178425Y166972D01*
X176636Y168762D01*
X176156Y169082D01*
X175591Y169195D01*
X174253D01*
Y169966D01*
X169053D01*
Y165466D01*
X174253D01*
Y166238D01*
X174978D01*
X176335Y164882D01*
X174690Y163237D01*
X179160Y158767D01*
X183125Y162733D01*
X185357D01*
X185549Y162271D01*
X183855Y160577D01*
X186302Y158130D01*
X185772Y157600D01*
X186302Y157069D01*
X183368Y154135D01*
X185284Y152218D01*
X184987Y151842D01*
X182410Y149265D01*
X178950D01*
X175958Y152256D01*
X170514Y146812D01*
X171704Y145623D01*
X171266Y145185D01*
X171199Y145140D01*
X170844Y144785D01*
X170317D01*
Y145557D01*
X165117D01*
Y141057D01*
X170317D01*
Y141829D01*
X171457D01*
X172022Y141941D01*
X172502Y142262D01*
X173245Y143005D01*
X173312Y143049D01*
X173794Y143532D01*
X174984Y142342D01*
X178950Y146308D01*
X182952D01*
X183078Y146141D01*
X183181Y145830D01*
X175934Y138583D01*
X175434Y138790D01*
Y139258D01*
X170234D01*
Y134758D01*
X171269D01*
X171407Y134315D01*
X171051Y134014D01*
X170235D01*
Y129514D01*
X175435D01*
Y134014D01*
X174617D01*
X174262Y134314D01*
X174407Y134758D01*
X175434D01*
Y135581D01*
X176378D01*
X176378Y135581D01*
X176925Y135689D01*
X177388Y135999D01*
X179638Y138250D01*
X180180Y138084D01*
X180586Y137476D01*
X181275Y137016D01*
X182087Y136855D01*
X182899Y137016D01*
X183587Y137476D01*
X184047Y138164D01*
X184209Y138976D01*
X184203Y139002D01*
X184652Y139451D01*
X185152Y139243D01*
Y138542D01*
X189652D01*
Y143742D01*
X189596D01*
X189405Y144204D01*
X191557Y146356D01*
X192804D01*
Y142729D01*
X190687Y140612D01*
X190366Y140133D01*
X190254Y139567D01*
Y138117D01*
X189952Y137742D01*
X188152D01*
Y134842D01*
Y131942D01*
X189649D01*
X189834Y131699D01*
X189953Y131443D01*
X189807Y130709D01*
X189969Y129897D01*
X190429Y129208D01*
X191117Y128748D01*
X191929Y128587D01*
X192741Y128748D01*
X193430Y129208D01*
X193444Y129230D01*
X198228D01*
X198794Y129343D01*
X199274Y129663D01*
X201851Y132240D01*
X202313Y132049D01*
Y129528D01*
X200959Y128175D01*
X200650Y127712D01*
X200541Y127165D01*
X200541Y127165D01*
Y122285D01*
X199718D01*
Y117085D01*
X204219D01*
Y122285D01*
X203396D01*
Y126574D01*
X204125Y127304D01*
X204623Y127254D01*
X204699Y127140D01*
X205659Y126180D01*
Y122285D01*
X204837D01*
Y117085D01*
X209337D01*
Y122285D01*
X208514D01*
Y126359D01*
X209014Y126566D01*
X210777Y124802D01*
Y122285D01*
X209955D01*
Y117085D01*
X214455D01*
Y122285D01*
X213632D01*
Y124104D01*
X214094Y124295D01*
X215604Y122785D01*
X215397Y122285D01*
X215073D01*
Y117085D01*
X219045D01*
X219335Y116732D01*
X219407Y116372D01*
X219089Y115985D01*
X215073D01*
Y110785D01*
X215844D01*
Y109055D01*
X215957Y108489D01*
X216277Y108010D01*
X219146Y105141D01*
X218955Y104679D01*
X218350D01*
X213734Y109295D01*
Y110785D01*
X214455D01*
Y115985D01*
X209955D01*
Y110785D01*
X210675D01*
Y108661D01*
X210792Y108076D01*
X211123Y107580D01*
X216295Y102409D01*
X216127Y101869D01*
X215889Y101825D01*
X208616Y109098D01*
Y110785D01*
X209337D01*
Y115985D01*
X204837D01*
Y110785D01*
X205557D01*
Y108465D01*
X205674Y107879D01*
X206005Y107383D01*
X214312Y99076D01*
X214808Y98744D01*
X215394Y98628D01*
X219182D01*
Y98473D01*
X226487D01*
Y101620D01*
X228107D01*
X230164Y99563D01*
Y93744D01*
X228107Y91687D01*
X226487D01*
Y91842D01*
X219182D01*
Y88473D01*
X226487D01*
Y88628D01*
X228740D01*
X229325Y88744D01*
X229822Y89076D01*
X232774Y92029D01*
X233061Y92458D01*
X233330Y92451D01*
X233561Y92375D01*
Y86833D01*
X223600Y76872D01*
X180337D01*
X177620Y79589D01*
X177141Y79909D01*
X176575Y80022D01*
X140945D01*
X140379Y79909D01*
X139900Y79589D01*
X115293Y54982D01*
X114973Y54503D01*
X114860Y53937D01*
Y41951D01*
X110962Y38053D01*
X108268Y40748D01*
Y97638D01*
X103543Y102362D01*
X54054D01*
X54043Y102416D01*
X53723Y102896D01*
X47896Y108723D01*
X47416Y109043D01*
X46850Y109156D01*
X43247D01*
X43233Y109178D01*
X42544Y109637D01*
X41732Y109799D01*
X40920Y109637D01*
X40232Y109178D01*
X39772Y108489D01*
X39610Y107677D01*
X39772Y106865D01*
X40232Y106177D01*
X40920Y105717D01*
X41732Y105555D01*
X42544Y105717D01*
X43233Y106177D01*
X43247Y106199D01*
X43917D01*
X44069Y105699D01*
X43972Y105634D01*
X43512Y104946D01*
X43351Y104134D01*
X43512Y103322D01*
X43819Y102862D01*
X43552Y102362D01*
X17717D01*
X3347Y116732D01*
Y282677D01*
X7677Y287008D01*
X16929D01*
X22441Y281496D01*
D02*
G37*
G36*
X360630Y128937D02*
X360630Y37402D01*
Y7087D01*
X355512Y1969D01*
X289173D01*
X284252Y6890D01*
Y24723D01*
X284714Y24915D01*
X286097Y23531D01*
X286097Y21457D01*
X286152Y21183D01*
X286306Y20952D01*
X287315Y19943D01*
X287340Y19332D01*
X287240Y19256D01*
X286717Y18574D01*
X286389Y17781D01*
X286277Y16929D01*
X286389Y16078D01*
X286717Y15284D01*
X287240Y14603D01*
X287922Y14080D01*
X288715Y13751D01*
X289567Y13639D01*
X291535D01*
X292387Y13751D01*
X293181Y14080D01*
X293862Y14603D01*
X294385Y15284D01*
X294714Y16078D01*
X294826Y16929D01*
X294714Y17781D01*
X294385Y18574D01*
X293862Y19256D01*
X293763Y19332D01*
X293787Y19943D01*
X294796Y20952D01*
X294951Y21184D01*
X295005Y21457D01*
Y24213D01*
X294951Y24486D01*
X294796Y24717D01*
X293787Y25726D01*
X293763Y26337D01*
X293862Y26414D01*
X294385Y27095D01*
X294714Y27889D01*
X294826Y28740D01*
X294714Y29592D01*
X294385Y30385D01*
X293862Y31067D01*
X293763Y31143D01*
X293787Y31754D01*
X294996Y32963D01*
X296784D01*
X297428Y33091D01*
X297974Y33456D01*
X298223Y33705D01*
X298701Y33560D01*
X298733Y33401D01*
X299215Y32680D01*
X299936Y32197D01*
X300037Y32177D01*
Y34252D01*
X300787D01*
Y35002D01*
X302862D01*
X302842Y35103D01*
X302360Y35824D01*
X301638Y36307D01*
X301479Y36338D01*
X301334Y36817D01*
X311654Y47137D01*
X315116D01*
Y46569D01*
X320316D01*
Y51069D01*
X315116D01*
Y50501D01*
X311039D01*
X310693Y50760D01*
X310599Y50854D01*
X310657Y51144D01*
Y55785D01*
X313780Y58908D01*
X314280Y58701D01*
Y55206D01*
X320011D01*
Y55798D01*
X321721D01*
Y51465D01*
X321471Y51069D01*
X321416D01*
Y46569D01*
X326616D01*
Y51069D01*
X326866Y51465D01*
X327452D01*
Y55798D01*
X329134D01*
X329778Y55926D01*
X330324Y56291D01*
X334654Y60621D01*
X335019Y61167D01*
X335147Y61811D01*
X335147Y61811D01*
Y74410D01*
X335019Y75053D01*
X334654Y75599D01*
X329930Y80323D01*
X329384Y80688D01*
X328740Y80816D01*
X326684D01*
Y82393D01*
X323058D01*
Y106299D01*
X322891Y107138D01*
X322416Y107849D01*
X316758Y113508D01*
X316672Y114161D01*
X316372Y114883D01*
X315897Y115503D01*
X315277Y115979D01*
X314555Y116278D01*
X314529Y116281D01*
Y113386D01*
X313779D01*
Y112636D01*
X310884D01*
X310887Y112611D01*
X311187Y111889D01*
X311662Y111269D01*
X312282Y110793D01*
X313005Y110494D01*
X313657Y110408D01*
X318674Y105391D01*
Y82393D01*
X315048D01*
Y75875D01*
X315444D01*
Y70163D01*
X315116D01*
Y66052D01*
X312179D01*
X311666Y66395D01*
X310827Y66562D01*
X307283D01*
X306445Y66395D01*
X305733Y65920D01*
X301403Y61589D01*
X300927Y60878D01*
X300761Y60039D01*
Y52930D01*
X296480Y48649D01*
X294486D01*
X293615Y49520D01*
X293383Y49675D01*
X293110Y49729D01*
X291669D01*
X291535Y49747D01*
X289567D01*
X289433Y49729D01*
X288249D01*
X288042Y50230D01*
X288886Y51074D01*
X295622D01*
X296038Y50796D01*
X296850Y50634D01*
X297662Y50796D01*
X298351Y51256D01*
X298811Y51944D01*
X298972Y52756D01*
X298811Y53568D01*
X298351Y54256D01*
X297662Y54716D01*
X296850Y54878D01*
X296038Y54716D01*
X295622Y54438D01*
X288189D01*
X287545Y54310D01*
X286999Y53945D01*
X284714Y51660D01*
X284252Y51851D01*
Y127165D01*
X288779Y131693D01*
X357874D01*
X360630Y128937D01*
D02*
G37*
G36*
X259252Y55512D02*
X261417Y53347D01*
Y50787D01*
X262992Y49213D01*
X271260Y49213D01*
X272047Y48425D01*
Y45472D01*
X271063Y44488D01*
X240354D01*
Y53347D01*
X242520Y55512D01*
X259252Y55512D01*
D02*
G37*
G36*
X295669Y46457D02*
X293110Y43898D01*
X287992D01*
X286811Y45079D01*
Y47835D01*
X287992Y49016D01*
X293110D01*
X295669Y46457D01*
D02*
G37*
G36*
X76968Y72441D02*
X76968Y44291D01*
X75984Y43307D01*
X43307Y43307D01*
X34449Y34449D01*
Y33677D01*
X33427D01*
Y28740D01*
Y23803D01*
X34055D01*
X34055Y4561D01*
X33741Y4306D01*
X33283Y4504D01*
Y5549D01*
X30906D01*
X28528D01*
Y3543D01*
X24606D01*
X23622Y4528D01*
Y6317D01*
X24122Y6584D01*
X24383Y6410D01*
X24484Y6390D01*
Y8465D01*
Y10539D01*
X24383Y10519D01*
X24122Y10345D01*
X23622Y10612D01*
Y14979D01*
X24122Y15246D01*
X24383Y15071D01*
X24484Y15051D01*
Y17126D01*
Y19201D01*
X24383Y19181D01*
X24122Y19006D01*
X23622Y19273D01*
Y23640D01*
X24122Y23907D01*
X24383Y23733D01*
X24484Y23713D01*
Y25787D01*
Y27862D01*
X24383Y27842D01*
X24122Y27667D01*
X23622Y27935D01*
Y33483D01*
X24122Y33750D01*
X24383Y33575D01*
X24484Y33555D01*
Y35630D01*
Y37705D01*
X24383Y37685D01*
X24122Y37510D01*
X23622Y37777D01*
Y66535D01*
X32874Y75787D01*
X73622D01*
X76968Y72441D01*
D02*
G37*
G36*
X295669Y40551D02*
X293110Y37992D01*
X287992D01*
X286811Y39173D01*
Y41929D01*
X287992Y43110D01*
X293110D01*
X295669Y40551D01*
D02*
G37*
G36*
Y34646D02*
X293110Y32087D01*
X287992D01*
X286811Y33268D01*
Y36024D01*
X287992Y37205D01*
X293110D01*
X295669Y34646D01*
D02*
G37*
G36*
X294291Y24213D02*
Y21457D01*
X293110Y20276D01*
X287992D01*
X286811Y21457D01*
X286811Y24606D01*
X287598Y25394D01*
X293110Y25394D01*
X294291Y24213D01*
D02*
G37*
G36*
X44291Y32874D02*
X44685Y32480D01*
X44685Y22244D01*
X47441Y19488D01*
X50591D01*
X52362Y17717D01*
Y14173D01*
X51575Y13386D01*
X47638D01*
X47047Y13976D01*
Y15354D01*
X45276Y17126D01*
X41535D01*
X41142Y17520D01*
Y24016D01*
X40551Y24606D01*
Y32480D01*
X40945Y32874D01*
X44291Y32874D01*
D02*
G37*
G36*
X39567Y32677D02*
Y24016D01*
X39961Y23622D01*
Y17323D01*
X40945Y16339D01*
X44488D01*
X46260Y14567D01*
Y9941D01*
X47146Y9055D01*
X50787D01*
X52756Y7087D01*
Y5512D01*
X50591Y3347D01*
X36811D01*
X35630Y4528D01*
Y32677D01*
X35827Y32874D01*
X39370D01*
X39567Y32677D01*
D02*
G37*
%LPC*%
G36*
X247957Y223297D02*
Y221972D01*
X249281D01*
X249261Y222074D01*
X248779Y222795D01*
X248058Y223277D01*
X247957Y223297D01*
D02*
G37*
G36*
X246457D02*
X246356Y223277D01*
X245634Y222795D01*
X245152Y222074D01*
X245132Y221972D01*
X246457D01*
Y223297D01*
D02*
G37*
G36*
X242876Y222547D02*
Y221222D01*
X244201D01*
X244180Y221323D01*
X243699Y222045D01*
X242977Y222527D01*
X242876Y222547D01*
D02*
G37*
G36*
X241376D02*
X241275Y222527D01*
X240553Y222045D01*
X240071Y221323D01*
X240051Y221222D01*
X241376D01*
Y222547D01*
D02*
G37*
G36*
X238402Y223559D02*
X234215D01*
Y221144D01*
X238402D01*
Y223559D01*
D02*
G37*
G36*
X232715D02*
X228528D01*
Y221144D01*
X232715D01*
Y223559D01*
D02*
G37*
G36*
X249281Y220472D02*
X247957D01*
Y219148D01*
X248058Y219168D01*
X248779Y219650D01*
X249261Y220371D01*
X249281Y220472D01*
D02*
G37*
G36*
X246457D02*
X245132D01*
X245152Y220371D01*
X245634Y219650D01*
X246356Y219168D01*
X246457Y219148D01*
Y220472D01*
D02*
G37*
G36*
X244201Y219722D02*
X242876D01*
Y218398D01*
X242977Y218418D01*
X243699Y218900D01*
X244180Y219621D01*
X244201Y219722D01*
D02*
G37*
G36*
X241376D02*
X240051D01*
X240071Y219621D01*
X240553Y218900D01*
X241275Y218418D01*
X241376Y218398D01*
Y219722D01*
D02*
G37*
G36*
X92876Y233621D02*
Y229490D01*
X97007D01*
X96936Y230029D01*
X96438Y231230D01*
X95647Y232261D01*
X94616Y233053D01*
X93415Y233550D01*
X92876Y233621D01*
D02*
G37*
G36*
X91376D02*
X90837Y233550D01*
X89636Y233053D01*
X88605Y232261D01*
X87814Y231230D01*
X87316Y230029D01*
X87245Y229490D01*
X91376D01*
Y233621D01*
D02*
G37*
G36*
X97007Y227990D02*
X92876D01*
Y223859D01*
X93415Y223930D01*
X94616Y224428D01*
X95647Y225219D01*
X96438Y226250D01*
X96936Y227451D01*
X97007Y227990D01*
D02*
G37*
G36*
X91376D02*
X87245D01*
X87316Y227451D01*
X87814Y226250D01*
X88605Y225219D01*
X89636Y224428D01*
X90837Y223930D01*
X91376Y223859D01*
Y227990D01*
D02*
G37*
G36*
X145390Y206925D02*
X142089D01*
Y204313D01*
X145390D01*
Y206925D01*
D02*
G37*
G36*
X140589D02*
X137287D01*
Y204313D01*
X140589D01*
Y206925D01*
D02*
G37*
G36*
X145390Y202813D02*
X142089D01*
Y200201D01*
X145390D01*
Y202813D01*
D02*
G37*
G36*
X140589D02*
X137287D01*
Y200201D01*
X140589D01*
Y202813D01*
D02*
G37*
G36*
X132246Y233621D02*
Y229490D01*
X136377D01*
X136306Y230029D01*
X135809Y231230D01*
X135017Y232261D01*
X133986Y233053D01*
X132785Y233550D01*
X132246Y233621D01*
D02*
G37*
G36*
X130746D02*
X130207Y233550D01*
X129006Y233053D01*
X127975Y232261D01*
X127184Y231230D01*
X126686Y230029D01*
X126615Y229490D01*
X130746D01*
Y233621D01*
D02*
G37*
G36*
X136377Y227990D02*
X132246D01*
Y223859D01*
X132785Y223930D01*
X133986Y224428D01*
X135017Y225219D01*
X135809Y226250D01*
X136306Y227451D01*
X136377Y227990D01*
D02*
G37*
G36*
X130746D02*
X126615D01*
X126686Y227451D01*
X127184Y226250D01*
X127975Y225219D01*
X129006Y224428D01*
X130207Y223930D01*
X130746Y223859D01*
Y227990D01*
D02*
G37*
G36*
X145390Y186413D02*
X142339D01*
Y184051D01*
X145390D01*
Y186413D01*
D02*
G37*
G36*
X140339D02*
X137287D01*
Y184051D01*
X140339D01*
Y186413D01*
D02*
G37*
G36*
X35002Y282440D02*
Y278309D01*
X39133D01*
X39062Y278848D01*
X38564Y280049D01*
X37773Y281080D01*
X36742Y281872D01*
X35541Y282369D01*
X35002Y282440D01*
D02*
G37*
G36*
X33502D02*
X32963Y282369D01*
X31762Y281872D01*
X30731Y281080D01*
X29939Y280049D01*
X29442Y278848D01*
X29371Y278309D01*
X33502D01*
Y282440D01*
D02*
G37*
G36*
Y276809D02*
X29371D01*
X29442Y276270D01*
X29939Y275069D01*
X30731Y274038D01*
X31762Y273247D01*
X32963Y272749D01*
X33502Y272678D01*
Y276809D01*
D02*
G37*
G36*
X39133D02*
X35002D01*
Y272678D01*
X35541Y272749D01*
X36742Y273247D01*
X37773Y274038D01*
X38564Y275069D01*
X39062Y276270D01*
X39133Y276809D01*
D02*
G37*
G36*
X35002Y239920D02*
Y235789D01*
X39133D01*
X39062Y236328D01*
X38564Y237529D01*
X37773Y238561D01*
X36742Y239352D01*
X35541Y239849D01*
X35002Y239920D01*
D02*
G37*
G36*
X33502D02*
X32963Y239849D01*
X31762Y239352D01*
X30731Y238561D01*
X29939Y237529D01*
X29442Y236328D01*
X29371Y235789D01*
X33502D01*
Y239920D01*
D02*
G37*
G36*
Y234289D02*
X29371D01*
X29442Y233751D01*
X29939Y232550D01*
X30731Y231518D01*
X31762Y230727D01*
X32963Y230229D01*
X33502Y230158D01*
Y234289D01*
D02*
G37*
G36*
X39133D02*
X35002D01*
Y230158D01*
X35541Y230229D01*
X36742Y230727D01*
X37773Y231518D01*
X38564Y232550D01*
X39062Y233751D01*
X39133Y234289D01*
D02*
G37*
G36*
X180527Y187315D02*
X177718D01*
Y185687D01*
X180527D01*
Y187315D01*
D02*
G37*
G36*
X188831D02*
X186022D01*
Y185687D01*
X188831D01*
Y187315D01*
D02*
G37*
G36*
X184522D02*
X181713D01*
Y185687D01*
X184522D01*
Y187315D01*
D02*
G37*
G36*
X176218D02*
X173409D01*
Y185687D01*
X176218D01*
Y187315D01*
D02*
G37*
G36*
X188831Y184187D02*
X186022D01*
Y182559D01*
X188831D01*
Y184187D01*
D02*
G37*
G36*
X184522D02*
X181713D01*
Y182559D01*
X184522D01*
Y184187D01*
D02*
G37*
G36*
X180527D02*
X177718D01*
Y182559D01*
X180527D01*
Y184187D01*
D02*
G37*
G36*
X176218D02*
X173409D01*
Y182559D01*
X176218D01*
Y184187D01*
D02*
G37*
G36*
X157837Y173925D02*
Y172600D01*
X159161D01*
X159141Y172701D01*
X158659Y173423D01*
X157938Y173905D01*
X157837Y173925D01*
D02*
G37*
G36*
X156337D02*
X156236Y173905D01*
X155514Y173423D01*
X155032Y172701D01*
X155012Y172600D01*
X156337D01*
Y173925D01*
D02*
G37*
G36*
X159161Y171100D02*
X157837D01*
Y169776D01*
X157938Y169796D01*
X158659Y170278D01*
X159141Y170999D01*
X159161Y171100D01*
D02*
G37*
G36*
X156337D02*
X155012D01*
X155032Y170999D01*
X155514Y170278D01*
X156236Y169796D01*
X156337Y169776D01*
Y171100D01*
D02*
G37*
G36*
X157837Y168019D02*
Y166695D01*
X159161D01*
X159141Y166796D01*
X158659Y167517D01*
X157938Y167999D01*
X157837Y168019D01*
D02*
G37*
G36*
X156337D02*
X156236Y167999D01*
X155514Y167517D01*
X155032Y166796D01*
X155012Y166695D01*
X156337D01*
Y168019D01*
D02*
G37*
G36*
X151931D02*
Y166695D01*
X153256D01*
X153236Y166796D01*
X152754Y167517D01*
X152032Y167999D01*
X151931Y168019D01*
D02*
G37*
G36*
X150431D02*
X150330Y167999D01*
X149609Y167517D01*
X149127Y166796D01*
X149107Y166695D01*
X150431D01*
Y168019D01*
D02*
G37*
G36*
X159161Y165195D02*
X157837D01*
Y163870D01*
X157938Y163890D01*
X158659Y164372D01*
X159141Y165094D01*
X159161Y165195D01*
D02*
G37*
G36*
X156337D02*
X155012D01*
X155032Y165094D01*
X155514Y164372D01*
X156236Y163890D01*
X156337Y163870D01*
Y165195D01*
D02*
G37*
G36*
X153256D02*
X151931D01*
Y163870D01*
X152032Y163890D01*
X152754Y164372D01*
X153236Y165094D01*
X153256Y165195D01*
D02*
G37*
G36*
X150431D02*
X149107D01*
X149127Y165094D01*
X149609Y164372D01*
X150330Y163890D01*
X150431Y163870D01*
Y165195D01*
D02*
G37*
G36*
X151931Y162114D02*
Y160789D01*
X153256D01*
X153236Y160890D01*
X152754Y161612D01*
X152032Y162094D01*
X151931Y162114D01*
D02*
G37*
G36*
X150431D02*
X150330Y162094D01*
X149609Y161612D01*
X149127Y160890D01*
X149107Y160789D01*
X150431D01*
Y162114D01*
D02*
G37*
G36*
X153256Y159289D02*
X149107D01*
X149127Y159188D01*
X149609Y158467D01*
X149912Y158264D01*
X149717Y157793D01*
X149016Y157932D01*
X148165Y157763D01*
X147443Y157281D01*
X146961Y156560D01*
X146941Y156459D01*
X151090D01*
X151070Y156560D01*
X150588Y157281D01*
X150285Y157484D01*
X150480Y157955D01*
X151181Y157816D01*
X152032Y157985D01*
X152754Y158467D01*
X153236Y159188D01*
X153256Y159289D01*
D02*
G37*
G36*
X151090Y154959D02*
X149766D01*
Y153634D01*
X149867Y153654D01*
X150588Y154136D01*
X151070Y154858D01*
X151090Y154959D01*
D02*
G37*
G36*
X148266D02*
X146941D01*
X146961Y154858D01*
X147443Y154136D01*
X148165Y153654D01*
X148266Y153634D01*
Y154959D01*
D02*
G37*
G36*
X151197Y140961D02*
X149569D01*
Y138152D01*
X151197D01*
Y140961D01*
D02*
G37*
G36*
X148069D02*
X146441D01*
Y138152D01*
X148069D01*
Y140961D01*
D02*
G37*
G36*
X151197Y136652D02*
X149569D01*
Y133843D01*
X151197D01*
Y136652D01*
D02*
G37*
G36*
X148069D02*
X146441D01*
Y133843D01*
X148069D01*
Y136652D01*
D02*
G37*
G36*
X150902Y132595D02*
X149569D01*
Y130278D01*
X150902D01*
Y132595D01*
D02*
G37*
G36*
X148069D02*
X146736D01*
Y130278D01*
X148069D01*
Y132595D01*
D02*
G37*
G36*
X248141Y96842D02*
X240835D01*
Y93473D01*
X248141D01*
Y96842D01*
D02*
G37*
G36*
X263402Y95095D02*
X260593D01*
Y93467D01*
X263402D01*
Y95095D01*
D02*
G37*
G36*
X252400D02*
X249591D01*
Y93467D01*
X252400D01*
Y95095D01*
D02*
G37*
G36*
X269254Y92823D02*
Y91498D01*
X270579D01*
X270559Y91599D01*
X270076Y92321D01*
X269355Y92803D01*
X269254Y92823D01*
D02*
G37*
G36*
X267754D02*
X267653Y92803D01*
X266931Y92321D01*
X266449Y91599D01*
X266429Y91498D01*
X267754D01*
Y92823D01*
D02*
G37*
G36*
X263402Y91967D02*
X260593D01*
Y90339D01*
X263402D01*
Y91967D01*
D02*
G37*
G36*
X259092Y95095D02*
X253900D01*
Y92717D01*
Y90339D01*
X259092D01*
Y92717D01*
Y95095D01*
D02*
G37*
G36*
X252400Y91967D02*
X249591D01*
Y90339D01*
X252400D01*
Y91967D01*
D02*
G37*
G36*
X270579Y89998D02*
X269254D01*
Y88673D01*
X269355Y88693D01*
X270076Y89175D01*
X270559Y89897D01*
X270579Y89998D01*
D02*
G37*
G36*
X267754D02*
X266429D01*
X266449Y89897D01*
X266931Y89175D01*
X267653Y88693D01*
X267754Y88673D01*
Y89998D01*
D02*
G37*
G36*
X248141Y91842D02*
X240835D01*
Y88473D01*
X248141D01*
Y91842D01*
D02*
G37*
G36*
X256537Y87289D02*
X251337D01*
Y86687D01*
X248141D01*
Y86842D01*
X240835D01*
Y83473D01*
X248141D01*
Y83628D01*
X251337D01*
Y82789D01*
X256537D01*
Y87289D01*
D02*
G37*
G36*
X269254Y82193D02*
Y80868D01*
X270579D01*
X270559Y80969D01*
X270076Y81691D01*
X269355Y82173D01*
X269254Y82193D01*
D02*
G37*
G36*
X267754D02*
X267653Y82173D01*
X266931Y81691D01*
X266449Y80969D01*
X266429Y80868D01*
X267754D01*
Y82193D01*
D02*
G37*
G36*
X270579Y79368D02*
X269254D01*
Y78044D01*
X269355Y78064D01*
X270076Y78546D01*
X270559Y79267D01*
X270579Y79368D01*
D02*
G37*
G36*
X267754D02*
X266429D01*
X266449Y79267D01*
X266931Y78546D01*
X267653Y78064D01*
X267754Y78044D01*
Y79368D01*
D02*
G37*
G36*
X246813Y78649D02*
Y77325D01*
X248138D01*
X248117Y77426D01*
X247636Y78147D01*
X246914Y78629D01*
X246813Y78649D01*
D02*
G37*
G36*
X245313D02*
X245212Y78629D01*
X244491Y78147D01*
X244008Y77426D01*
X243988Y77325D01*
X245313D01*
Y78649D01*
D02*
G37*
G36*
X248138Y75825D02*
X246813D01*
Y74500D01*
X246914Y74520D01*
X247636Y75002D01*
X248117Y75724D01*
X248138Y75825D01*
D02*
G37*
G36*
X245313D02*
X243988D01*
X244008Y75724D01*
X244491Y75002D01*
X245212Y74520D01*
X245313Y74500D01*
Y75825D01*
D02*
G37*
G36*
X171566Y72944D02*
X157174D01*
Y60387D01*
X153937D01*
X152777Y60234D01*
X151696Y59787D01*
X150768Y59074D01*
X150056Y58146D01*
X149608Y57065D01*
X149455Y55905D01*
X149608Y54746D01*
X150056Y53665D01*
X150768Y52737D01*
X151696Y52024D01*
X152777Y51577D01*
X153937Y51424D01*
X161024D01*
X162184Y51577D01*
X163265Y52024D01*
X164193Y52737D01*
X164905Y53665D01*
X165135Y54221D01*
X171566D01*
Y72944D01*
D02*
G37*
G36*
X181459Y52519D02*
Y44451D01*
X185688D01*
Y47638D01*
X185519Y48927D01*
X185021Y50128D01*
X184230Y51159D01*
X183198Y51950D01*
X181998Y52448D01*
X181459Y52519D01*
D02*
G37*
G36*
X179959D02*
X179420Y52448D01*
X178219Y51950D01*
X177188Y51159D01*
X176396Y50128D01*
X175899Y48927D01*
X175729Y47638D01*
Y44451D01*
X179959D01*
Y52519D01*
D02*
G37*
G36*
X261236Y42339D02*
X258427D01*
Y40711D01*
X261236D01*
Y42339D01*
D02*
G37*
G36*
X243541D02*
X240732D01*
Y40711D01*
X243541D01*
Y42339D01*
D02*
G37*
G36*
X236380Y42035D02*
Y40711D01*
X237705D01*
X237684Y40812D01*
X237202Y41533D01*
X236481Y42015D01*
X236380Y42035D01*
D02*
G37*
G36*
X234880D02*
X234779Y42015D01*
X234057Y41533D01*
X233575Y40812D01*
X233555Y40711D01*
X234880D01*
Y42035D01*
D02*
G37*
G36*
X237705Y39211D02*
X236380D01*
Y37886D01*
X236481Y37906D01*
X237202Y38388D01*
X237684Y39110D01*
X237705Y39211D01*
D02*
G37*
G36*
X234880D02*
X233555D01*
X233575Y39110D01*
X234057Y38388D01*
X234779Y37906D01*
X234880Y37886D01*
Y39211D01*
D02*
G37*
G36*
X261236Y39211D02*
X258427D01*
Y37583D01*
X261236D01*
Y39211D01*
D02*
G37*
G36*
X256927Y42339D02*
X251734D01*
Y39961D01*
Y37583D01*
X256927D01*
Y39961D01*
Y42339D01*
D02*
G37*
G36*
X250234D02*
X245041D01*
Y39961D01*
Y37583D01*
X250234D01*
Y39961D01*
Y42339D01*
D02*
G37*
G36*
X243541Y39211D02*
X240732D01*
Y37583D01*
X243541D01*
Y39211D01*
D02*
G37*
G36*
X258427Y34161D02*
Y32837D01*
X259752D01*
X259732Y32938D01*
X259250Y33659D01*
X258528Y34141D01*
X258427Y34161D01*
D02*
G37*
G36*
X256927D02*
X256826Y34141D01*
X256105Y33659D01*
X255623Y32938D01*
X255603Y32837D01*
X256927D01*
Y34161D01*
D02*
G37*
G36*
X165748Y36082D02*
X162561D01*
Y31852D01*
X170629D01*
X170558Y32391D01*
X170061Y33592D01*
X169269Y34624D01*
X168238Y35415D01*
X167037Y35912D01*
X165748Y36082D01*
D02*
G37*
G36*
X161061D02*
X157874D01*
X156585Y35912D01*
X155384Y35415D01*
X154353Y34624D01*
X153562Y33592D01*
X153064Y32391D01*
X152993Y31852D01*
X161061D01*
Y36082D01*
D02*
G37*
G36*
X259752Y31337D02*
X258427D01*
Y30012D01*
X258528Y30032D01*
X259250Y30514D01*
X259732Y31236D01*
X259752Y31337D01*
D02*
G37*
G36*
X256927D02*
X255603D01*
X255623Y31236D01*
X256105Y30514D01*
X256826Y30032D01*
X256927Y30012D01*
Y31337D01*
D02*
G37*
G36*
X195882Y41551D02*
X187955D01*
Y29096D01*
X195882D01*
Y41551D01*
D02*
G37*
G36*
X185688Y42951D02*
X180709D01*
X175729D01*
Y39764D01*
X175899Y38475D01*
X176396Y37274D01*
X177188Y36243D01*
X178219Y35451D01*
X178528Y35323D01*
Y29096D01*
X186455D01*
Y41551D01*
X185688D01*
Y42951D01*
D02*
G37*
G36*
X145095Y41551D02*
X137167D01*
Y29096D01*
X145095D01*
Y41551D01*
D02*
G37*
G36*
X135667D02*
X127740D01*
Y29096D01*
X135667D01*
Y41551D01*
D02*
G37*
G36*
X251787Y29346D02*
X250159D01*
Y26537D01*
X251787D01*
Y29346D01*
D02*
G37*
G36*
X248659D02*
X247031D01*
Y26537D01*
X248659D01*
Y29346D01*
D02*
G37*
G36*
X170629Y30352D02*
X162561D01*
Y26123D01*
X165748D01*
X167037Y26292D01*
X168238Y26790D01*
X169269Y27581D01*
X170061Y28613D01*
X170558Y29814D01*
X170629Y30352D01*
D02*
G37*
G36*
X161061D02*
X152993D01*
X153064Y29814D01*
X153562Y28613D01*
X154353Y27581D01*
X155384Y26790D01*
X156585Y26292D01*
X157874Y26123D01*
X161061D01*
Y30352D01*
D02*
G37*
G36*
X258624Y26484D02*
Y25159D01*
X259949D01*
X259929Y25260D01*
X259447Y25982D01*
X258725Y26464D01*
X258624Y26484D01*
D02*
G37*
G36*
X257124D02*
X257023Y26464D01*
X256301Y25982D01*
X255820Y25260D01*
X255799Y25159D01*
X257124D01*
Y26484D01*
D02*
G37*
G36*
X259949Y23660D02*
X258624D01*
Y22335D01*
X258725Y22355D01*
X259447Y22837D01*
X259929Y23558D01*
X259949Y23660D01*
D02*
G37*
G36*
X257124D02*
X255799D01*
X255820Y23558D01*
X256301Y22837D01*
X257023Y22355D01*
X257124Y22335D01*
Y23660D01*
D02*
G37*
G36*
X251787Y25037D02*
X250159D01*
Y22228D01*
X251787D01*
Y25037D01*
D02*
G37*
G36*
X248659D02*
X247031D01*
Y22228D01*
X248659D01*
Y25037D01*
D02*
G37*
G36*
X244696Y34460D02*
X239162D01*
Y30895D01*
X239737D01*
Y26184D01*
X239639Y25689D01*
X239737Y25194D01*
Y19882D01*
X239904Y19043D01*
X240379Y18332D01*
X241090Y17857D01*
X241929Y17690D01*
X242768Y17857D01*
X243479Y18332D01*
X243954Y19043D01*
X244121Y19882D01*
Y25591D01*
X244102Y25689D01*
X244121Y25787D01*
Y30895D01*
X244696D01*
Y34460D01*
D02*
G37*
G36*
X213030Y23343D02*
X211992D01*
Y23136D01*
X211527Y23052D01*
X211492Y23052D01*
X201859D01*
Y15353D01*
X211527D01*
Y15944D01*
X211992Y16027D01*
X212027Y16028D01*
X213030D01*
Y19685D01*
Y23343D01*
D02*
G37*
G36*
X195882Y27597D02*
X187955D01*
Y15142D01*
X195882D01*
Y27597D01*
D02*
G37*
G36*
X186455D02*
X178528D01*
Y15142D01*
X186455D01*
Y27597D01*
D02*
G37*
G36*
X145095Y27596D02*
X137167D01*
Y15142D01*
X145095D01*
Y27596D01*
D02*
G37*
G36*
X135667D02*
X127740D01*
Y15142D01*
X135667D01*
Y27596D01*
D02*
G37*
G36*
X161811Y18463D02*
X160497Y18290D01*
X159272Y17783D01*
X158221Y16976D01*
X157414Y15924D01*
X156907Y14700D01*
X156734Y13386D01*
X156907Y12072D01*
X157414Y10847D01*
X158221Y9796D01*
X159272Y8989D01*
X160497Y8482D01*
X161811Y8309D01*
X163125Y8482D01*
X164350Y8989D01*
X165401Y9796D01*
X166208Y10847D01*
X166715Y12072D01*
X166888Y13386D01*
X166715Y14700D01*
X166208Y15924D01*
X165401Y16976D01*
X164350Y17783D01*
X163125Y18290D01*
X161811Y18463D01*
D02*
G37*
G36*
X238298Y12708D02*
X229418D01*
Y4221D01*
X238298D01*
Y12708D01*
D02*
G37*
G36*
X208377D02*
X199497D01*
Y4221D01*
X208377D01*
Y12708D01*
D02*
G37*
G36*
X15317Y282440D02*
Y278309D01*
X19448D01*
X19377Y278848D01*
X18879Y280049D01*
X18088Y281080D01*
X17057Y281872D01*
X15856Y282369D01*
X15317Y282440D01*
D02*
G37*
G36*
X13817D02*
X13278Y282369D01*
X12077Y281872D01*
X11046Y281080D01*
X10255Y280049D01*
X9757Y278848D01*
X9686Y278309D01*
X13817D01*
Y282440D01*
D02*
G37*
G36*
Y276809D02*
X9686D01*
X9757Y276270D01*
X10255Y275069D01*
X11046Y274038D01*
X12077Y273247D01*
X13278Y272749D01*
X13817Y272678D01*
Y276809D01*
D02*
G37*
G36*
X19448D02*
X15317D01*
Y272678D01*
X15856Y272749D01*
X17057Y273247D01*
X18088Y274038D01*
X18879Y275069D01*
X19377Y276270D01*
X19448Y276809D01*
D02*
G37*
G36*
X15317Y239920D02*
Y235789D01*
X19448D01*
X19377Y236328D01*
X18879Y237529D01*
X18088Y238561D01*
X17057Y239352D01*
X15856Y239849D01*
X15317Y239920D01*
D02*
G37*
G36*
X13817D02*
X13278Y239849D01*
X12077Y239352D01*
X11046Y238561D01*
X10255Y237529D01*
X9757Y236328D01*
X9686Y235789D01*
X13817D01*
Y239920D01*
D02*
G37*
G36*
Y234289D02*
X9686D01*
X9757Y233751D01*
X10255Y232550D01*
X11046Y231518D01*
X12077Y230727D01*
X13278Y230229D01*
X13817Y230158D01*
Y234289D01*
D02*
G37*
G36*
X19448D02*
X15317D01*
Y230158D01*
X15856Y230229D01*
X17057Y230727D01*
X18088Y231518D01*
X18879Y232550D01*
X19377Y233751D01*
X19448Y234289D01*
D02*
G37*
G36*
X199175Y222153D02*
Y220829D01*
X200500D01*
X200480Y220930D01*
X199998Y221651D01*
X199276Y222133D01*
X199175Y222153D01*
D02*
G37*
G36*
X197675D02*
X197574Y222133D01*
X196853Y221651D01*
X196371Y220930D01*
X196351Y220829D01*
X197675D01*
Y222153D01*
D02*
G37*
G36*
X185396D02*
Y220829D01*
X186720D01*
X186700Y220930D01*
X186218Y221651D01*
X185497Y222133D01*
X185396Y222153D01*
D02*
G37*
G36*
X183896D02*
X183795Y222133D01*
X183073Y221651D01*
X182591Y220930D01*
X182571Y220829D01*
X183896D01*
Y222153D01*
D02*
G37*
G36*
X200500Y219329D02*
X199175D01*
Y218004D01*
X199276Y218024D01*
X199998Y218506D01*
X200480Y219228D01*
X200500Y219329D01*
D02*
G37*
G36*
X197675D02*
X196351D01*
X196371Y219228D01*
X196853Y218506D01*
X197574Y218024D01*
X197675Y218004D01*
Y219329D01*
D02*
G37*
G36*
X186720D02*
X185396D01*
Y218004D01*
X185497Y218024D01*
X186218Y218506D01*
X186700Y219228D01*
X186720Y219329D01*
D02*
G37*
G36*
X183896D02*
X182571D01*
X182591Y219228D01*
X183073Y218506D01*
X183795Y218024D01*
X183896Y218004D01*
Y219329D01*
D02*
G37*
G36*
X265908Y215657D02*
Y214333D01*
X267232D01*
X267212Y214434D01*
X266730Y215155D01*
X266008Y215637D01*
X265908Y215657D01*
D02*
G37*
G36*
X264407D02*
X264306Y215637D01*
X263585Y215155D01*
X263103Y214434D01*
X263083Y214333D01*
X264407D01*
Y215657D01*
D02*
G37*
G36*
X267232Y212833D02*
X265908D01*
Y211508D01*
X266008Y211528D01*
X266730Y212010D01*
X267212Y212732D01*
X267232Y212833D01*
D02*
G37*
G36*
X264407D02*
X263083D01*
X263103Y212732D01*
X263585Y212010D01*
X264306Y211528D01*
X264407Y211508D01*
Y212833D01*
D02*
G37*
G36*
X199175Y212311D02*
Y210986D01*
X200500D01*
X200480Y211087D01*
X199998Y211809D01*
X199276Y212291D01*
X199175Y212311D01*
D02*
G37*
G36*
X197675D02*
X197574Y212291D01*
X196853Y211809D01*
X196371Y211087D01*
X196351Y210986D01*
X197675D01*
Y212311D01*
D02*
G37*
G36*
X200500Y209486D02*
X199175D01*
Y208162D01*
X199276Y208182D01*
X199998Y208664D01*
X200480Y209385D01*
X200500Y209486D01*
D02*
G37*
G36*
X197675D02*
X196351D01*
X196371Y209385D01*
X196853Y208664D01*
X197574Y208182D01*
X197675Y208162D01*
Y209486D01*
D02*
G37*
G36*
X40862Y211630D02*
X28407D01*
Y203703D01*
X40862D01*
Y211630D01*
D02*
G37*
G36*
X26908D02*
X14453D01*
Y203703D01*
X26908D01*
Y211630D01*
D02*
G37*
G36*
X210396Y201878D02*
Y200553D01*
X211720D01*
X211700Y200654D01*
X211218Y201376D01*
X210497Y201858D01*
X210396Y201878D01*
D02*
G37*
G36*
X208896D02*
X208795Y201858D01*
X208073Y201376D01*
X207591Y200654D01*
X207571Y200553D01*
X208896D01*
Y201878D01*
D02*
G37*
G36*
X266301Y199516D02*
Y198191D01*
X267626D01*
X267606Y198292D01*
X267124Y199013D01*
X266402Y199495D01*
X266301Y199516D01*
D02*
G37*
G36*
X264801D02*
X264700Y199495D01*
X263979Y199013D01*
X263497Y198292D01*
X263476Y198191D01*
X264801D01*
Y199516D01*
D02*
G37*
G36*
X211720Y199053D02*
X210396D01*
Y197729D01*
X210497Y197749D01*
X211218Y198231D01*
X211700Y198952D01*
X211720Y199053D01*
D02*
G37*
G36*
X208896D02*
X207571D01*
X207591Y198952D01*
X208073Y198231D01*
X208795Y197749D01*
X208896Y197729D01*
Y199053D01*
D02*
G37*
G36*
X267626Y196691D02*
X266301D01*
Y195366D01*
X266402Y195386D01*
X267124Y195869D01*
X267606Y196590D01*
X267626Y196691D01*
D02*
G37*
G36*
X264801D02*
X263476D01*
X263497Y196590D01*
X263979Y195869D01*
X264700Y195386D01*
X264801Y195366D01*
Y196691D01*
D02*
G37*
G36*
X190711Y195972D02*
Y194648D01*
X192035D01*
X192015Y194749D01*
X191533Y195470D01*
X190812Y195952D01*
X190711Y195972D01*
D02*
G37*
G36*
X189211D02*
X189110Y195952D01*
X188388Y195470D01*
X187906Y194749D01*
X187886Y194648D01*
X189211D01*
Y195972D01*
D02*
G37*
G36*
X176931D02*
Y194648D01*
X178256D01*
X178236Y194749D01*
X177754Y195470D01*
X177032Y195952D01*
X176931Y195972D01*
D02*
G37*
G36*
X175431D02*
X175330Y195952D01*
X174609Y195470D01*
X174127Y194749D01*
X174107Y194648D01*
X175431D01*
Y195972D01*
D02*
G37*
G36*
X40862Y202203D02*
X28407D01*
Y194276D01*
X40862D01*
Y202203D01*
D02*
G37*
G36*
X26908D02*
X14453D01*
Y194276D01*
X26908D01*
Y202203D01*
D02*
G37*
G36*
X212196Y196405D02*
X210396D01*
Y194255D01*
X212196D01*
Y196405D01*
D02*
G37*
G36*
X208896D02*
X207096D01*
Y194255D01*
X208896D01*
Y196405D01*
D02*
G37*
G36*
X192035Y193148D02*
X190711D01*
Y191823D01*
X190812Y191843D01*
X191533Y192325D01*
X192015Y193047D01*
X192035Y193148D01*
D02*
G37*
G36*
X189211D02*
X187886D01*
X187906Y193047D01*
X188388Y192325D01*
X189110Y191843D01*
X189211Y191823D01*
Y193148D01*
D02*
G37*
G36*
X178256D02*
X176931D01*
Y191823D01*
X177032Y191843D01*
X177754Y192325D01*
X178236Y193047D01*
X178256Y193148D01*
D02*
G37*
G36*
X175431D02*
X174107D01*
X174127Y193047D01*
X174609Y192325D01*
X175330Y191843D01*
X175431Y191823D01*
Y193148D01*
D02*
G37*
G36*
X212196Y192755D02*
X210396D01*
Y190605D01*
X212196D01*
Y192755D01*
D02*
G37*
G36*
X208896D02*
X207096D01*
Y190605D01*
X208896D01*
Y192755D01*
D02*
G37*
G36*
X110744Y186413D02*
X107443D01*
Y183801D01*
X110744D01*
Y186413D01*
D02*
G37*
G36*
X105943D02*
X102642D01*
Y183801D01*
X105943D01*
Y186413D01*
D02*
G37*
G36*
X110744Y182301D02*
X107443D01*
Y179689D01*
X110744D01*
Y182301D01*
D02*
G37*
G36*
X105943D02*
X102642D01*
Y179689D01*
X105943D01*
Y182301D01*
D02*
G37*
G36*
X31163Y186377D02*
Y178309D01*
X35393D01*
Y181496D01*
X35223Y182785D01*
X34726Y183986D01*
X33935Y185017D01*
X32903Y185809D01*
X31702Y186306D01*
X31163Y186377D01*
D02*
G37*
G36*
X29663D02*
X29125Y186306D01*
X27924Y185809D01*
X26892Y185017D01*
X26101Y183986D01*
X25604Y182785D01*
X25434Y181496D01*
Y178309D01*
X29663D01*
Y186377D01*
D02*
G37*
G36*
X180527Y179835D02*
X177718D01*
Y178207D01*
X180527D01*
Y179835D01*
D02*
G37*
G36*
X188831D02*
X186022D01*
Y178207D01*
X188831D01*
Y179835D01*
D02*
G37*
G36*
X192380Y180007D02*
X190230D01*
Y178207D01*
X192380D01*
Y180007D01*
D02*
G37*
G36*
X184522Y179835D02*
X181713D01*
Y178207D01*
X184522D01*
Y179835D01*
D02*
G37*
G36*
X176218D02*
X173409D01*
Y178207D01*
X176218D01*
Y179835D01*
D02*
G37*
G36*
X125750Y176681D02*
Y175356D01*
X127075D01*
X127055Y175457D01*
X126573Y176179D01*
X125851Y176661D01*
X125750Y176681D01*
D02*
G37*
G36*
X124250D02*
X124149Y176661D01*
X123427Y176179D01*
X122945Y175457D01*
X122925Y175356D01*
X124250D01*
Y176681D01*
D02*
G37*
G36*
X118663Y176484D02*
Y175159D01*
X119988D01*
X119968Y175260D01*
X119486Y175982D01*
X118764Y176464D01*
X118663Y176484D01*
D02*
G37*
G36*
X117163D02*
X117062Y176464D01*
X116341Y175982D01*
X115859Y175260D01*
X115839Y175159D01*
X117163D01*
Y176484D01*
D02*
G37*
G36*
X188831Y176707D02*
X186022D01*
Y175079D01*
X188831D01*
Y176707D01*
D02*
G37*
G36*
X184522D02*
X181713D01*
Y175079D01*
X184522D01*
Y176707D01*
D02*
G37*
G36*
X180527D02*
X177718D01*
Y175079D01*
X180527D01*
Y176707D01*
D02*
G37*
G36*
X176218D02*
X173409D01*
Y175079D01*
X176218D01*
Y176707D01*
D02*
G37*
G36*
X192380D02*
X190230D01*
Y174907D01*
X192380D01*
Y176707D01*
D02*
G37*
G36*
X83427Y175303D02*
Y173978D01*
X84752D01*
X84732Y174079D01*
X84250Y174801D01*
X83528Y175283D01*
X83427Y175303D01*
D02*
G37*
G36*
X81927D02*
X81826Y175283D01*
X81105Y174801D01*
X80623Y174079D01*
X80603Y173978D01*
X81927D01*
Y175303D01*
D02*
G37*
G36*
X147260Y176591D02*
X140514D01*
Y173191D01*
X147260D01*
Y176591D01*
D02*
G37*
G36*
X139014D02*
X132268D01*
Y173191D01*
X139014D01*
Y176591D01*
D02*
G37*
G36*
X243466Y174319D02*
Y172994D01*
X244791D01*
X244771Y173095D01*
X244289Y173817D01*
X243568Y174299D01*
X243466Y174319D01*
D02*
G37*
G36*
X241967D02*
X241865Y174299D01*
X241144Y173817D01*
X240662Y173095D01*
X240642Y172994D01*
X241967D01*
Y174319D01*
D02*
G37*
G36*
X185986Y173925D02*
Y172600D01*
X187311D01*
X187291Y172701D01*
X186809Y173423D01*
X186087Y173905D01*
X185986Y173925D01*
D02*
G37*
G36*
X184486D02*
X184385Y173905D01*
X183664Y173423D01*
X183182Y172701D01*
X183162Y172600D01*
X184486D01*
Y173925D01*
D02*
G37*
G36*
X179884D02*
Y172600D01*
X181209D01*
X181188Y172701D01*
X180706Y173423D01*
X179985Y173905D01*
X179884Y173925D01*
D02*
G37*
G36*
X178384D02*
X178283Y173905D01*
X177561Y173423D01*
X177079Y172701D01*
X177059Y172600D01*
X178384D01*
Y173925D01*
D02*
G37*
G36*
X127075Y173856D02*
X125750D01*
Y172532D01*
X125851Y172552D01*
X126573Y173034D01*
X127055Y173755D01*
X127075Y173856D01*
D02*
G37*
G36*
X124250D02*
X122925D01*
X122945Y173755D01*
X123427Y173034D01*
X124149Y172552D01*
X124250Y172532D01*
Y173856D01*
D02*
G37*
G36*
X12697Y182636D02*
X11383Y182463D01*
X10158Y181956D01*
X9107Y181149D01*
X8300Y180098D01*
X7793Y178873D01*
X7620Y177559D01*
X7793Y176245D01*
X8300Y175020D01*
X9107Y173969D01*
X10158Y173162D01*
X11383Y172655D01*
X12697Y172482D01*
X14011Y172655D01*
X15236Y173162D01*
X16287Y173969D01*
X17094Y175020D01*
X17601Y176245D01*
X17774Y177559D01*
X17601Y178873D01*
X17094Y180098D01*
X16287Y181149D01*
X15236Y181956D01*
X14011Y182463D01*
X12697Y182636D01*
D02*
G37*
G36*
X119988Y173659D02*
X118663D01*
Y172335D01*
X118764Y172355D01*
X119486Y172837D01*
X119968Y173558D01*
X119988Y173659D01*
D02*
G37*
G36*
X117163D02*
X115839D01*
X115859Y173558D01*
X116341Y172837D01*
X117062Y172355D01*
X117163Y172335D01*
Y173659D01*
D02*
G37*
G36*
X84752Y172478D02*
X83427D01*
Y171154D01*
X83528Y171174D01*
X84250Y171656D01*
X84732Y172377D01*
X84752Y172478D01*
D02*
G37*
G36*
X81927D02*
X80603D01*
X80623Y172377D01*
X81105Y171656D01*
X81826Y171174D01*
X81927Y171154D01*
Y172478D01*
D02*
G37*
G36*
X244791Y171494D02*
X243466D01*
Y170169D01*
X243568Y170189D01*
X244289Y170672D01*
X244771Y171393D01*
X244791Y171494D01*
D02*
G37*
G36*
X241967D02*
X240642D01*
X240662Y171393D01*
X241144Y170672D01*
X241865Y170189D01*
X241967Y170169D01*
Y171494D01*
D02*
G37*
G36*
X187311Y171100D02*
X185986D01*
Y169776D01*
X186087Y169796D01*
X186809Y170278D01*
X187291Y170999D01*
X187311Y171100D01*
D02*
G37*
G36*
X184486D02*
X183162D01*
X183182Y170999D01*
X183664Y170278D01*
X184385Y169796D01*
X184486Y169776D01*
Y171100D01*
D02*
G37*
G36*
X181209D02*
X179884D01*
Y169776D01*
X179985Y169796D01*
X180706Y170278D01*
X181188Y170999D01*
X181209Y171100D01*
D02*
G37*
G36*
X178384D02*
X177059D01*
X177079Y170999D01*
X177561Y170278D01*
X178283Y169796D01*
X178384Y169776D01*
Y171100D01*
D02*
G37*
G36*
X35393Y176809D02*
X31163D01*
Y168741D01*
X31702Y168812D01*
X32903Y169310D01*
X33935Y170101D01*
X34726Y171132D01*
X35223Y172333D01*
X35393Y173622D01*
Y176809D01*
D02*
G37*
G36*
X29663D02*
X25434D01*
Y173622D01*
X25604Y172333D01*
X26101Y171132D01*
X26892Y170101D01*
X27924Y169310D01*
X29125Y168812D01*
X29663Y168741D01*
Y176809D01*
D02*
G37*
G36*
X168254Y170266D02*
X166103D01*
Y168466D01*
X168254D01*
Y170266D01*
D02*
G37*
G36*
X139014Y171691D02*
X132268D01*
Y168291D01*
X139014D01*
Y171691D01*
D02*
G37*
G36*
X116966Y169504D02*
X114157D01*
Y167876D01*
X116966D01*
Y169504D01*
D02*
G37*
G36*
X126172Y169436D02*
X124372D01*
Y167286D01*
X126172D01*
Y169436D01*
D02*
G37*
G36*
X121276Y169504D02*
X118466D01*
Y167126D01*
X117717D01*
Y166376D01*
X114157D01*
Y166245D01*
X113696Y166054D01*
X110741Y169009D01*
X110509Y169163D01*
X110236Y169218D01*
X100000Y169218D01*
X99727Y169163D01*
X99495Y169009D01*
X95952Y165465D01*
X95797Y165234D01*
X95743Y164961D01*
X95743Y150394D01*
X95797Y150120D01*
X95952Y149889D01*
X95952Y149889D01*
X105007Y140834D01*
X105239Y140679D01*
X105512Y140625D01*
X110324D01*
Y137430D01*
X117629D01*
Y140103D01*
X118129Y140310D01*
X120152Y138287D01*
Y122737D01*
X119324Y121908D01*
X118824Y122115D01*
X118824Y129921D01*
X118770Y130194D01*
X118615Y130426D01*
X117827Y131213D01*
X117596Y131368D01*
X117323Y131422D01*
X106299Y131422D01*
X106026Y131368D01*
X105795Y131213D01*
X103432Y128851D01*
X102867Y128851D01*
X100505Y131213D01*
X100273Y131368D01*
X100000Y131422D01*
X89370Y131422D01*
X89097Y131368D01*
X88865Y131213D01*
X88078Y130426D01*
X87923Y130194D01*
X87869Y129921D01*
Y122737D01*
X86319Y121186D01*
X83071D01*
X82798Y121132D01*
X82566Y120977D01*
X80991Y119402D01*
X80837Y119171D01*
X80782Y118898D01*
Y106693D01*
X80837Y106420D01*
X80991Y106188D01*
X82566Y104613D01*
X82798Y104459D01*
X83071Y104404D01*
X101181D01*
X101454Y104459D01*
X101686Y104613D01*
X102867Y105795D01*
X103432D01*
X104613Y104613D01*
X104845Y104459D01*
X105118Y104404D01*
X127165D01*
X127438Y104459D01*
X127670Y104613D01*
X133182Y110125D01*
X133337Y110357D01*
X133391Y110630D01*
Y135827D01*
X133858Y136294D01*
Y143252D01*
X133870Y143257D01*
X134276Y143549D01*
X134315Y143592D01*
X134363Y143624D01*
X134409Y143693D01*
X134465Y143753D01*
X134486Y143807D01*
X134518Y143855D01*
X134534Y143936D01*
X134563Y144014D01*
X134561Y144072D01*
X134572Y144128D01*
Y156299D01*
X134518Y156572D01*
X134363Y156804D01*
X128064Y163103D01*
X127832Y163258D01*
X127559Y163312D01*
X126538D01*
X126172Y163636D01*
Y165786D01*
X123622D01*
Y166536D01*
X122872D01*
Y169436D01*
X121276D01*
Y169504D01*
D02*
G37*
G36*
X168254Y166966D02*
X166103D01*
Y165166D01*
X168254D01*
Y166966D01*
D02*
G37*
G36*
X245420Y166330D02*
X243270D01*
Y164530D01*
X245420D01*
Y166330D01*
D02*
G37*
G36*
X241770D02*
X239620D01*
Y164530D01*
X241770D01*
Y166330D01*
D02*
G37*
G36*
X166892Y163689D02*
Y162364D01*
X168216D01*
X168196Y162465D01*
X167714Y163187D01*
X166993Y163669D01*
X166892Y163689D01*
D02*
G37*
G36*
X165392D02*
X165291Y163669D01*
X164569Y163187D01*
X164087Y162465D01*
X164067Y162364D01*
X165392D01*
Y163689D01*
D02*
G37*
G36*
X89583Y166354D02*
X83427D01*
Y162167D01*
X89583D01*
Y166354D01*
D02*
G37*
G36*
X81927D02*
X75772D01*
Y162167D01*
X81927D01*
Y166354D01*
D02*
G37*
G36*
X205671Y161327D02*
Y160002D01*
X206996D01*
X206976Y160103D01*
X206494Y160825D01*
X205772Y161307D01*
X205671Y161327D01*
D02*
G37*
G36*
X204171D02*
X204070Y161307D01*
X203349Y160825D01*
X202867Y160103D01*
X202847Y160002D01*
X204171D01*
Y161327D01*
D02*
G37*
G36*
X168216Y160864D02*
X166892D01*
Y159539D01*
X166993Y159560D01*
X167714Y160042D01*
X168196Y160763D01*
X168216Y160864D01*
D02*
G37*
G36*
X165392D02*
X164067D01*
X164087Y160763D01*
X164569Y160042D01*
X165291Y159560D01*
X165392Y159539D01*
Y160864D01*
D02*
G37*
G36*
X46949Y163641D02*
X43762D01*
Y159411D01*
X51830D01*
X51759Y159950D01*
X51261Y161151D01*
X50470Y162182D01*
X49439Y162974D01*
X48238Y163471D01*
X46949Y163641D01*
D02*
G37*
G36*
X206996Y158502D02*
X205671D01*
Y157177D01*
X205772Y157197D01*
X206494Y157679D01*
X206976Y158401D01*
X206996Y158502D01*
D02*
G37*
G36*
X204171D02*
X202847D01*
X202867Y158401D01*
X203349Y157679D01*
X204070Y157197D01*
X204171Y157177D01*
Y158502D01*
D02*
G37*
G36*
X89583Y160667D02*
X83427D01*
Y156480D01*
X89583D01*
Y160667D01*
D02*
G37*
G36*
X81927D02*
X75772D01*
Y156480D01*
X81927D01*
Y160667D01*
D02*
G37*
G36*
X182794Y159516D02*
X180390Y157113D01*
X182307Y155196D01*
X184711Y157600D01*
X182794Y159516D01*
D02*
G37*
G36*
X160843Y156118D02*
X158034D01*
Y154490D01*
X160843D01*
Y156118D01*
D02*
G37*
G36*
X169834Y158805D02*
X167430Y156401D01*
X169347Y154485D01*
X171750Y156888D01*
X169834Y158805D01*
D02*
G37*
G36*
X221026Y155224D02*
Y153900D01*
X222350D01*
X222330Y154001D01*
X221848Y154722D01*
X221127Y155204D01*
X221026Y155224D01*
D02*
G37*
G36*
X219526D02*
X219425Y155204D01*
X218703Y154722D01*
X218221Y154001D01*
X218201Y153900D01*
X219526D01*
Y155224D01*
D02*
G37*
G36*
X51830Y157911D02*
X43762D01*
Y153682D01*
X46949D01*
X48238Y153851D01*
X49439Y154349D01*
X50470Y155140D01*
X51261Y156172D01*
X51759Y157373D01*
X51830Y157911D01*
D02*
G37*
G36*
X42262Y163641D02*
X39075D01*
X37786Y163471D01*
X36585Y162974D01*
X35554Y162182D01*
X34762Y161151D01*
X34635Y160843D01*
X28407D01*
Y152915D01*
X40862D01*
Y153682D01*
X42262D01*
Y158661D01*
Y163641D01*
D02*
G37*
G36*
X26908Y160843D02*
X14453D01*
Y152915D01*
X26908D01*
Y160843D01*
D02*
G37*
G36*
X71026Y153059D02*
Y151734D01*
X72350D01*
X72330Y151835D01*
X71848Y152557D01*
X71127Y153039D01*
X71026Y153059D01*
D02*
G37*
G36*
X69526D02*
X69425Y153039D01*
X68703Y152557D01*
X68221Y151835D01*
X68201Y151734D01*
X69526D01*
Y153059D01*
D02*
G37*
G36*
X172811Y155828D02*
X170407Y153424D01*
X172324Y151507D01*
X174728Y153911D01*
X172811Y155828D01*
D02*
G37*
G36*
X160843Y152990D02*
X158034D01*
Y151362D01*
X160843D01*
Y152990D01*
D02*
G37*
G36*
X206065Y152665D02*
Y151341D01*
X207390D01*
X207369Y151442D01*
X206887Y152163D01*
X206166Y152645D01*
X206065Y152665D01*
D02*
G37*
G36*
X204565D02*
X204464Y152645D01*
X203743Y152163D01*
X203260Y151442D01*
X203240Y151341D01*
X204565D01*
Y152665D01*
D02*
G37*
G36*
X222350Y152400D02*
X221026D01*
Y151075D01*
X221127Y151095D01*
X221848Y151577D01*
X222330Y152299D01*
X222350Y152400D01*
D02*
G37*
G36*
X219526D02*
X218201D01*
X218221Y152299D01*
X218703Y151577D01*
X219425Y151095D01*
X219526Y151075D01*
Y152400D01*
D02*
G37*
G36*
X166369Y155341D02*
X163965Y152937D01*
X165882Y151020D01*
X168286Y153424D01*
X166369Y155341D01*
D02*
G37*
G36*
X81656Y151287D02*
Y149963D01*
X82980D01*
X82960Y150064D01*
X82478Y150785D01*
X81757Y151267D01*
X81656Y151287D01*
D02*
G37*
G36*
X80155D02*
X80054Y151267D01*
X79333Y150785D01*
X78851Y150064D01*
X78831Y149963D01*
X80155D01*
Y151287D01*
D02*
G37*
G36*
X72350Y150234D02*
X71026D01*
Y148910D01*
X71127Y148930D01*
X71848Y149412D01*
X72330Y150133D01*
X72350Y150234D01*
D02*
G37*
G36*
X69526D02*
X68201D01*
X68221Y150133D01*
X68703Y149412D01*
X69425Y148930D01*
X69526Y148910D01*
Y150234D01*
D02*
G37*
G36*
X207390Y149841D02*
X206065D01*
Y148516D01*
X206166Y148536D01*
X206887Y149018D01*
X207369Y149740D01*
X207390Y149841D01*
D02*
G37*
G36*
X204565D02*
X203240D01*
X203260Y149740D01*
X203743Y149018D01*
X204464Y148536D01*
X204565Y148516D01*
Y149841D01*
D02*
G37*
G36*
X169347Y152363D02*
X166943Y149959D01*
X168859Y148043D01*
X171263Y150447D01*
X169347Y152363D01*
D02*
G37*
G36*
X143126Y151394D02*
X140514D01*
Y147994D01*
X143126D01*
Y151394D01*
D02*
G37*
G36*
X139014D02*
X136402D01*
Y147994D01*
X139014D01*
Y151394D01*
D02*
G37*
G36*
X82980Y148463D02*
X81656D01*
Y147138D01*
X81757Y147158D01*
X82478Y147640D01*
X82960Y148362D01*
X82980Y148463D01*
D02*
G37*
G36*
X80155D02*
X78831D01*
X78851Y148362D01*
X79333Y147640D01*
X80054Y147158D01*
X80155Y147138D01*
Y148463D01*
D02*
G37*
G36*
X221222Y148335D02*
Y147010D01*
X222547D01*
X222527Y147111D01*
X222045Y147832D01*
X221323Y148314D01*
X221222Y148335D01*
D02*
G37*
G36*
X219722D02*
X219621Y148314D01*
X218900Y147832D01*
X218418Y147111D01*
X218398Y147010D01*
X219722D01*
Y148335D01*
D02*
G37*
G36*
X46222Y147744D02*
Y146419D01*
X47547D01*
X47527Y146520D01*
X47045Y147242D01*
X46323Y147724D01*
X46222Y147744D01*
D02*
G37*
G36*
X44722D02*
X44621Y147724D01*
X43900Y147242D01*
X43418Y146520D01*
X43398Y146419D01*
X44722D01*
Y147744D01*
D02*
G37*
G36*
X222547Y145510D02*
X221222D01*
Y144185D01*
X221323Y144205D01*
X222045Y144687D01*
X222527Y145409D01*
X222547Y145510D01*
D02*
G37*
G36*
X219722D02*
X218398D01*
X218418Y145409D01*
X218900Y144687D01*
X219621Y144205D01*
X219722Y144185D01*
Y145510D01*
D02*
G37*
G36*
X164316Y145857D02*
X162167D01*
Y144057D01*
X164316D01*
Y145857D01*
D02*
G37*
G36*
X160667D02*
X158517D01*
Y144057D01*
X160667D01*
Y145857D01*
D02*
G37*
G36*
X251026Y148116D02*
X245826D01*
Y143616D01*
X251026D01*
Y144184D01*
X253890D01*
X254306Y143906D01*
X255118Y143744D01*
X255930Y143906D01*
X256618Y144366D01*
X257078Y145054D01*
X257240Y145866D01*
X257078Y146678D01*
X256618Y147366D01*
X255930Y147827D01*
X255118Y147988D01*
X254306Y147827D01*
X253890Y147548D01*
X251026D01*
Y148116D01*
D02*
G37*
G36*
X47547Y144919D02*
X46222D01*
Y143595D01*
X46323Y143615D01*
X47045Y144097D01*
X47527Y144818D01*
X47547Y144919D01*
D02*
G37*
G36*
X44722D02*
X43398D01*
X43418Y144818D01*
X43900Y144097D01*
X44621Y143615D01*
X44722Y143595D01*
Y144919D01*
D02*
G37*
G36*
X40862Y151415D02*
X28407D01*
Y143488D01*
X40862D01*
Y151415D01*
D02*
G37*
G36*
X26908D02*
X14453D01*
Y143488D01*
X26908D01*
Y151415D01*
D02*
G37*
G36*
X143126Y146494D02*
X140514D01*
Y143095D01*
X143126D01*
Y146494D01*
D02*
G37*
G36*
X139014D02*
X136402D01*
Y143095D01*
X139014D01*
Y146494D01*
D02*
G37*
G36*
X84268Y144110D02*
X81459D01*
Y142482D01*
X84268D01*
Y144110D01*
D02*
G37*
G36*
X73266D02*
X70457D01*
Y142482D01*
X73266D01*
Y144110D01*
D02*
G37*
G36*
X95976Y145798D02*
X88670D01*
Y142430D01*
X95976D01*
Y145798D01*
D02*
G37*
G36*
X164316Y142557D02*
X162167D01*
Y140757D01*
X164316D01*
Y142557D01*
D02*
G37*
G36*
X160667D02*
X158517D01*
Y140757D01*
X160667D01*
Y142557D01*
D02*
G37*
G36*
X96276Y141098D02*
X93073D01*
Y139864D01*
X96276D01*
Y141098D01*
D02*
G37*
G36*
X91573D02*
X88370D01*
Y139864D01*
X91573D01*
Y141098D01*
D02*
G37*
G36*
X84268Y140982D02*
X81459D01*
Y139354D01*
X84268D01*
Y140982D01*
D02*
G37*
G36*
X79959Y144110D02*
X74766D01*
Y141732D01*
Y139354D01*
X79959D01*
Y141732D01*
Y144110D01*
D02*
G37*
G36*
X73266Y140982D02*
X70457D01*
Y139354D01*
X73266D01*
Y140982D01*
D02*
G37*
G36*
X48441Y139976D02*
X45632D01*
Y138348D01*
X48441D01*
Y139976D01*
D02*
G37*
G36*
X44132D02*
X41323D01*
Y138348D01*
X44132D01*
Y139976D01*
D02*
G37*
G36*
X143717Y140961D02*
X142089D01*
Y138152D01*
X143717D01*
Y140961D01*
D02*
G37*
G36*
X140589D02*
X138961D01*
Y138152D01*
X140589D01*
Y140961D01*
D02*
G37*
G36*
X169434Y139558D02*
X167284D01*
Y137758D01*
X169434D01*
Y139558D01*
D02*
G37*
G36*
X165784D02*
X163634D01*
Y137758D01*
X165784D01*
Y139558D01*
D02*
G37*
G36*
X96276Y138364D02*
X93073D01*
Y137130D01*
X96276D01*
Y138364D01*
D02*
G37*
G36*
X91573D02*
X88370D01*
Y137130D01*
X91573D01*
Y138364D01*
D02*
G37*
G36*
X186652Y137742D02*
X184852D01*
Y135592D01*
X186652D01*
Y137742D01*
D02*
G37*
G36*
X48441Y136848D02*
X45632D01*
Y135221D01*
X48441D01*
Y136848D01*
D02*
G37*
G36*
X44132D02*
X41323D01*
Y135221D01*
X44132D01*
Y136848D01*
D02*
G37*
G36*
X143717Y136652D02*
X142089D01*
Y133843D01*
X143717D01*
Y136652D01*
D02*
G37*
G36*
X140589D02*
X138961D01*
Y133843D01*
X140589D01*
Y136652D01*
D02*
G37*
G36*
X169434Y136258D02*
X166534D01*
X163634D01*
Y134814D01*
X163634Y134458D01*
X163635Y133963D01*
Y132514D01*
X166535D01*
X169435D01*
Y133958D01*
X169435Y134314D01*
X169434Y134814D01*
Y136258D01*
D02*
G37*
G36*
X117629Y135798D02*
X110324D01*
Y132430D01*
X117629D01*
Y135798D01*
D02*
G37*
G36*
X186652Y134092D02*
X184852D01*
Y131942D01*
X186652D01*
Y134092D01*
D02*
G37*
G36*
X236515Y133066D02*
X234365D01*
Y131266D01*
X236515D01*
Y133066D01*
D02*
G37*
G36*
X232865D02*
X230715D01*
Y131266D01*
X232865D01*
Y133066D01*
D02*
G37*
G36*
X243270Y132390D02*
Y131065D01*
X244594D01*
X244574Y131166D01*
X244092Y131887D01*
X243371Y132369D01*
X243270Y132390D01*
D02*
G37*
G36*
X241770D02*
X241669Y132369D01*
X240947Y131887D01*
X240465Y131166D01*
X240445Y131065D01*
X241770D01*
Y132390D01*
D02*
G37*
G36*
X159215Y131602D02*
Y130278D01*
X160539D01*
X160519Y130379D01*
X160037Y131100D01*
X159316Y131582D01*
X159215Y131602D01*
D02*
G37*
G36*
X157715D02*
X157614Y131582D01*
X156892Y131100D01*
X156410Y130379D01*
X156390Y130278D01*
X157715D01*
Y131602D01*
D02*
G37*
G36*
X169435Y131014D02*
X167285D01*
Y129214D01*
X169435D01*
Y131014D01*
D02*
G37*
G36*
X165785D02*
X163635D01*
Y129214D01*
X165785D01*
Y131014D01*
D02*
G37*
G36*
X244594Y129565D02*
X243270D01*
Y128240D01*
X243371Y128260D01*
X244092Y128743D01*
X244574Y129464D01*
X244594Y129565D01*
D02*
G37*
G36*
X241770D02*
X240445D01*
X240465Y129464D01*
X240947Y128743D01*
X241669Y128260D01*
X241770Y128240D01*
Y129565D01*
D02*
G37*
G36*
X236515Y129766D02*
X234365D01*
Y127966D01*
X236515D01*
Y129766D01*
D02*
G37*
G36*
X160539Y128778D02*
X159215D01*
Y127453D01*
X159316Y127473D01*
X160037Y127955D01*
X160519Y128676D01*
X160539Y128778D01*
D02*
G37*
G36*
X157715D02*
X156390D01*
X156410Y128676D01*
X156892Y127955D01*
X157614Y127473D01*
X157715Y127453D01*
Y128778D01*
D02*
G37*
G36*
X140711Y128649D02*
Y127325D01*
X142035D01*
X142015Y127426D01*
X141533Y128147D01*
X140812Y128629D01*
X140711Y128649D01*
D02*
G37*
G36*
X139211D02*
X139110Y128629D01*
X138388Y128147D01*
X137906Y127426D01*
X137886Y127325D01*
X139211D01*
Y128649D01*
D02*
G37*
G36*
X187364Y128453D02*
Y127128D01*
X188689D01*
X188669Y127229D01*
X188187Y127950D01*
X187465Y128433D01*
X187364Y128453D01*
D02*
G37*
G36*
X185864D02*
X185763Y128433D01*
X185042Y127950D01*
X184560Y127229D01*
X184539Y127128D01*
X185864D01*
Y128453D01*
D02*
G37*
G36*
X83858Y137722D02*
X70079D01*
X69806Y137667D01*
X69574Y137513D01*
X68393Y136331D01*
X68238Y136100D01*
X68184Y135827D01*
X68184Y128740D01*
X68238Y128467D01*
X68393Y128235D01*
X69574Y127054D01*
X69574Y127054D01*
X69806Y126900D01*
X70079Y126845D01*
X82677D01*
X82950Y126900D01*
X83182Y127054D01*
X84363Y128235D01*
X84518Y128467D01*
X84572Y128740D01*
X84572Y131964D01*
X95276D01*
X95549Y132018D01*
X95780Y132173D01*
X96568Y132960D01*
X96722Y133191D01*
X96777Y133465D01*
Y135039D01*
X96722Y135312D01*
X96568Y135544D01*
X95780Y136331D01*
X95549Y136486D01*
X95276Y136540D01*
X85335D01*
X84363Y137513D01*
X84131Y137667D01*
X83858Y137722D01*
D02*
G37*
G36*
X142035Y125825D02*
X140711D01*
Y124500D01*
X140812Y124520D01*
X141533Y125002D01*
X142015Y125724D01*
X142035Y125825D01*
D02*
G37*
G36*
X139211D02*
X137886D01*
X137906Y125724D01*
X138388Y125002D01*
X139110Y124520D01*
X139211Y124500D01*
Y125825D01*
D02*
G37*
G36*
X188689Y125628D02*
X187364D01*
Y124303D01*
X187465Y124323D01*
X188187Y124805D01*
X188669Y125527D01*
X188689Y125628D01*
D02*
G37*
G36*
X185864D02*
X184539D01*
X184560Y125527D01*
X185042Y124805D01*
X185763Y124323D01*
X185864Y124303D01*
Y125628D01*
D02*
G37*
G36*
X21260Y137556D02*
X19997Y137390D01*
X18821Y136902D01*
X17810Y136127D01*
X17035Y135117D01*
X16547Y133940D01*
X16381Y132677D01*
X16547Y131414D01*
X17035Y130238D01*
X17810Y129227D01*
X18821Y128452D01*
X19997Y127965D01*
X21260Y127798D01*
X22523Y127965D01*
X23699Y128452D01*
X24710Y129227D01*
X25485Y130238D01*
X25693Y130740D01*
X31481D01*
X33095Y129126D01*
X33723Y128706D01*
X34465Y128559D01*
X41623D01*
Y128040D01*
X44384D01*
X44519Y127950D01*
X45260Y127803D01*
X47607D01*
X50000Y125410D01*
X50008Y125369D01*
X50468Y124681D01*
X51157Y124221D01*
X51968Y124059D01*
X52780Y124221D01*
X53469Y124681D01*
X53929Y125369D01*
X54090Y126181D01*
X53929Y126993D01*
X53469Y127682D01*
X52780Y128141D01*
X52740Y128150D01*
X49779Y131110D01*
X49151Y131530D01*
X48410Y131677D01*
X48141D01*
Y132196D01*
X45380D01*
X45245Y132286D01*
X44504Y132433D01*
X35267D01*
X33653Y134047D01*
X33025Y134467D01*
X32283Y134614D01*
X25693D01*
X25485Y135117D01*
X24710Y136127D01*
X23699Y136902D01*
X22523Y137390D01*
X21260Y137556D01*
D02*
G37*
G36*
X54701Y122063D02*
X52285D01*
Y120238D01*
X54701D01*
Y122063D01*
D02*
G37*
G36*
X50785D02*
X48370D01*
Y120238D01*
X50785D01*
Y122063D01*
D02*
G37*
G36*
X54701Y118738D02*
X52285D01*
Y116913D01*
X54701D01*
Y118738D01*
D02*
G37*
G36*
X50785D02*
X48370D01*
Y116913D01*
X50785D01*
Y118738D01*
D02*
G37*
G36*
X192929Y117929D02*
X190120D01*
Y116301D01*
X192929D01*
Y117929D01*
D02*
G37*
G36*
X181927D02*
X179118D01*
Y116301D01*
X181927D01*
Y117929D01*
D02*
G37*
G36*
X63976Y142279D02*
X63164Y142118D01*
X62476Y141658D01*
X62016Y140970D01*
X61918Y140479D01*
X56291Y134851D01*
X55926Y134305D01*
X55798Y133661D01*
Y121498D01*
X55230D01*
Y116298D01*
X59730D01*
Y121498D01*
X59163D01*
Y132965D01*
X64298Y138100D01*
X64788Y138197D01*
X65477Y138657D01*
X65937Y139346D01*
X66098Y140157D01*
X65937Y140970D01*
X65477Y141658D01*
X64788Y142118D01*
X63976Y142279D01*
D02*
G37*
G36*
X174175Y117429D02*
Y116104D01*
X175500D01*
X175480Y116205D01*
X174998Y116927D01*
X174276Y117409D01*
X174175Y117429D01*
D02*
G37*
G36*
X172675D02*
X172574Y117409D01*
X171853Y116927D01*
X171371Y116205D01*
X171351Y116104D01*
X172675D01*
Y117429D01*
D02*
G37*
G36*
X46960Y118023D02*
X41229D01*
Y117685D01*
X33071D01*
X32329Y117538D01*
X31701Y117118D01*
X29709Y115126D01*
X25611D01*
X25485Y115431D01*
X24710Y116442D01*
X23699Y117217D01*
X22523Y117705D01*
X21260Y117871D01*
X19997Y117705D01*
X18821Y117217D01*
X17810Y116442D01*
X17035Y115431D01*
X16547Y114255D01*
X16381Y112992D01*
X16547Y111729D01*
X17035Y110553D01*
X17810Y109542D01*
X18821Y108767D01*
X19997Y108280D01*
X21260Y108113D01*
X22523Y108280D01*
X23699Y108767D01*
X24710Y109542D01*
X25485Y110553D01*
X25774Y111252D01*
X30512D01*
X31253Y111399D01*
X31882Y111819D01*
X33873Y113811D01*
X41229D01*
Y113473D01*
X46960D01*
Y118023D01*
D02*
G37*
G36*
X75626Y117772D02*
X70947D01*
Y113348D01*
X75626D01*
Y117772D01*
D02*
G37*
G36*
X69447D02*
X64768D01*
Y113348D01*
X69447D01*
Y117772D01*
D02*
G37*
G36*
X175500Y114604D02*
X174175D01*
Y113280D01*
X174276Y113300D01*
X174998Y113782D01*
X175480Y114503D01*
X175500Y114604D01*
D02*
G37*
G36*
X172675D02*
X171351D01*
X171371Y114503D01*
X171853Y113782D01*
X172574Y113300D01*
X172675Y113280D01*
Y114604D01*
D02*
G37*
G36*
X192929Y114801D02*
X190120D01*
Y113173D01*
X192929D01*
Y114801D01*
D02*
G37*
G36*
X188620Y117929D02*
X183427D01*
Y115551D01*
Y113173D01*
X188620D01*
Y115551D01*
Y117929D01*
D02*
G37*
G36*
X181927Y114801D02*
X179118D01*
Y113173D01*
X181927D01*
Y114801D01*
D02*
G37*
G36*
X59730Y115198D02*
X55230D01*
Y114535D01*
X54430D01*
X54353Y114520D01*
X52110D01*
X51369Y114372D01*
X51235Y114283D01*
X48670D01*
Y109733D01*
X54401D01*
Y110645D01*
X54415D01*
X54492Y110661D01*
X55230D01*
Y109998D01*
X59730D01*
Y115198D01*
D02*
G37*
G36*
X75626Y111848D02*
X70947D01*
Y107425D01*
X75626D01*
Y111848D01*
D02*
G37*
G36*
X69447D02*
X64768D01*
Y107425D01*
X69447D01*
Y111848D01*
D02*
G37*
G36*
X150602Y121271D02*
X147036D01*
Y119256D01*
X147029Y119245D01*
X146882Y118504D01*
Y107889D01*
X142189Y103197D01*
X141687Y103404D01*
X140424Y103571D01*
X139162Y103404D01*
X137985Y102917D01*
X136975Y102142D01*
X136199Y101131D01*
X135712Y99955D01*
X135546Y98692D01*
X135712Y97429D01*
X136199Y96253D01*
X136975Y95242D01*
X137985Y94467D01*
X139162Y93980D01*
X140424Y93813D01*
X141687Y93980D01*
X142189Y94187D01*
X144577Y91799D01*
X145206Y91379D01*
X145947Y91232D01*
X167913D01*
X168655Y91379D01*
X168813Y91485D01*
X171566D01*
Y94854D01*
X168813D01*
X168655Y94959D01*
X167913Y95107D01*
X146749D01*
X144929Y96927D01*
X145137Y97429D01*
X145303Y98692D01*
X145137Y99955D01*
X144929Y100457D01*
X150189Y105717D01*
X150609Y106345D01*
X150756Y107087D01*
Y118504D01*
X150609Y119245D01*
X150602Y119256D01*
Y121271D01*
D02*
G37*
G36*
X171566Y104853D02*
X164261D01*
Y104852D01*
X161059D01*
X160415Y104724D01*
X160286Y104637D01*
X155206D01*
Y101268D01*
X160543D01*
Y101270D01*
X160843D01*
X161486Y101399D01*
X161619Y101487D01*
X164261D01*
Y101485D01*
X171566D01*
Y104853D01*
D02*
G37*
G36*
X204219Y115985D02*
X199718D01*
Y110785D01*
X200439D01*
Y107480D01*
X200555Y106895D01*
X200887Y106399D01*
X204617Y102669D01*
X204426Y102207D01*
X200900D01*
Y101289D01*
X199654D01*
X199238Y101567D01*
X198426Y101729D01*
X197614Y101567D01*
X196925Y101107D01*
X196465Y100419D01*
X196304Y99607D01*
X196465Y98795D01*
X196925Y98106D01*
X197614Y97646D01*
X198426Y97485D01*
X199238Y97646D01*
X199654Y97924D01*
X200900D01*
Y97007D01*
X205400D01*
Y101233D01*
X205861Y101424D01*
X211704Y95582D01*
X211559Y95104D01*
X211393Y95071D01*
X210704Y94611D01*
X210690Y94589D01*
X205400D01*
Y95907D01*
X200900D01*
Y94648D01*
X193220D01*
Y94854D01*
X185914D01*
Y91485D01*
X193220D01*
Y91691D01*
X200900D01*
Y90707D01*
X205400D01*
Y91632D01*
X210690D01*
X210704Y91610D01*
X211393Y91150D01*
X212205Y90988D01*
X213017Y91150D01*
X213705Y91610D01*
X214165Y92298D01*
X214327Y93110D01*
X214323Y93128D01*
X214733Y93628D01*
X219182D01*
Y93473D01*
X226487D01*
Y96842D01*
X219182D01*
Y96687D01*
X214925D01*
X203498Y108114D01*
Y110785D01*
X204219D01*
Y115985D01*
D02*
G37*
G36*
X191535Y111737D02*
X175984Y111737D01*
X175711Y111683D01*
X175480Y111528D01*
X174102Y110150D01*
X173947Y109919D01*
X173893Y109646D01*
X173893Y104724D01*
X173947Y104451D01*
X174102Y104220D01*
X177645Y100677D01*
X177645Y100676D01*
X177876Y100522D01*
X178150Y100467D01*
X192520Y100467D01*
X192793Y100522D01*
X193024Y100676D01*
X194009Y101661D01*
X194163Y101892D01*
X194218Y102165D01*
Y109055D01*
X194163Y109328D01*
X194009Y109560D01*
X192040Y111528D01*
X191809Y111683D01*
X191535Y111737D01*
D02*
G37*
G36*
X193220Y99853D02*
X185914D01*
Y96485D01*
X193220D01*
Y99853D01*
D02*
G37*
G36*
X160543Y100306D02*
X155206D01*
Y96938D01*
X160168D01*
X160652Y96615D01*
X161295Y96487D01*
X164261D01*
Y96485D01*
X171566D01*
Y99853D01*
X164261D01*
Y99852D01*
X161972D01*
X161486Y100176D01*
X160843Y100304D01*
X160543D01*
Y100306D01*
D02*
G37*
G36*
X177522Y94004D02*
Y92679D01*
X178846D01*
X178826Y92780D01*
X178344Y93502D01*
X177623Y93984D01*
X177522Y94004D01*
D02*
G37*
G36*
X176022D02*
X175921Y93984D01*
X175199Y93502D01*
X174717Y92780D01*
X174697Y92679D01*
X176022D01*
Y94004D01*
D02*
G37*
G36*
X178846Y91179D02*
X177522D01*
Y89855D01*
X177623Y89875D01*
X178344Y90357D01*
X178826Y91078D01*
X178846Y91179D01*
D02*
G37*
G36*
X176022D02*
X174697D01*
X174717Y91078D01*
X175199Y90357D01*
X175921Y89875D01*
X176022Y89855D01*
Y91179D01*
D02*
G37*
G36*
X205400Y90002D02*
X200900D01*
Y89648D01*
X199332D01*
X199332Y89648D01*
X193220D01*
Y89854D01*
X185914D01*
Y86485D01*
X193220D01*
Y86691D01*
X199332D01*
X199332Y86691D01*
X200900D01*
Y84802D01*
X205400D01*
Y85923D01*
X206556D01*
X206571Y85901D01*
X207259Y85441D01*
X208071Y85280D01*
X208883Y85441D01*
X209571Y85901D01*
X210031Y86590D01*
X210193Y87402D01*
X210031Y88214D01*
X209571Y88902D01*
X208883Y89362D01*
X208071Y89523D01*
X207259Y89362D01*
X206571Y88902D01*
X206556Y88880D01*
X205400D01*
Y90002D01*
D02*
G37*
G36*
X171866Y90153D02*
X168663D01*
Y88919D01*
X171866D01*
Y90153D01*
D02*
G37*
G36*
X167163D02*
X163961D01*
Y88919D01*
X167163D01*
Y90153D01*
D02*
G37*
G36*
X171866Y87419D02*
X168663D01*
Y86185D01*
X171866D01*
Y87419D01*
D02*
G37*
G36*
X167163D02*
X163961D01*
Y86185D01*
X167163D01*
Y87419D01*
D02*
G37*
G36*
X226787Y87142D02*
X223585D01*
Y85908D01*
X226787D01*
Y87142D01*
D02*
G37*
G36*
X222085D02*
X218882D01*
Y85908D01*
X222085D01*
Y87142D01*
D02*
G37*
G36*
X126505Y89752D02*
X125216Y89583D01*
X124015Y89085D01*
X123584Y88754D01*
X126505Y85833D01*
X129426Y88754D01*
X128995Y89085D01*
X127794Y89583D01*
X126505Y89752D01*
D02*
G37*
G36*
X213939Y86720D02*
Y85396D01*
X215264D01*
X215244Y85497D01*
X214761Y86218D01*
X214040Y86700D01*
X213939Y86720D01*
D02*
G37*
G36*
X212439D02*
X212338Y86700D01*
X211616Y86218D01*
X211134Y85497D01*
X211114Y85396D01*
X212439D01*
Y86720D01*
D02*
G37*
G36*
X226787Y84408D02*
X223585D01*
Y83173D01*
X226787D01*
Y84408D01*
D02*
G37*
G36*
X222085D02*
X218882D01*
Y83173D01*
X222085D01*
Y84408D01*
D02*
G37*
G36*
X215264Y83896D02*
X213939D01*
Y82571D01*
X214040Y82591D01*
X214761Y83073D01*
X215244Y83795D01*
X215264Y83896D01*
D02*
G37*
G36*
X212439D02*
X211114D01*
X211134Y83795D01*
X211616Y83073D01*
X212338Y82591D01*
X212439Y82571D01*
Y83896D01*
D02*
G37*
G36*
X122523Y87694D02*
X122192Y87262D01*
X121695Y86061D01*
X121525Y84773D01*
X121695Y83484D01*
X122192Y82283D01*
X122523Y81852D01*
X125444Y84773D01*
X122523Y87694D01*
D02*
G37*
G36*
X130487D02*
X127566Y84773D01*
X130487Y81852D01*
X130817Y82283D01*
X131315Y83484D01*
X131484Y84773D01*
X131315Y86061D01*
X130817Y87262D01*
X130487Y87694D01*
D02*
G37*
G36*
X126505Y83712D02*
X123584Y80791D01*
X124015Y80460D01*
X125216Y79963D01*
X126505Y79793D01*
X127794Y79963D01*
X128995Y80460D01*
X129426Y80791D01*
X126505Y83712D01*
D02*
G37*
G36*
X205400Y83702D02*
X200900D01*
Y78502D01*
X205400D01*
Y79419D01*
X206646D01*
X207062Y79141D01*
X207874Y78980D01*
X208686Y79141D01*
X209374Y79601D01*
X209834Y80290D01*
X209996Y81102D01*
X209834Y81914D01*
X209374Y82602D01*
X208686Y83062D01*
X207874Y83223D01*
X207062Y83062D01*
X206646Y82784D01*
X205400D01*
Y83702D01*
D02*
G37*
G36*
X115711Y71366D02*
Y70041D01*
X117035D01*
X117015Y70142D01*
X116533Y70864D01*
X115812Y71346D01*
X115711Y71366D01*
D02*
G37*
G36*
X114211D02*
X114110Y71346D01*
X113388Y70864D01*
X112906Y70142D01*
X112886Y70041D01*
X114211D01*
Y71366D01*
D02*
G37*
G36*
X117035Y68541D02*
X115711D01*
Y67217D01*
X115812Y67237D01*
X116533Y67719D01*
X117015Y68440D01*
X117035Y68541D01*
D02*
G37*
G36*
X114211D02*
X112886D01*
X112906Y68440D01*
X113388Y67719D01*
X114110Y67237D01*
X114211Y67217D01*
Y68541D01*
D02*
G37*
%LPD*%
G36*
X112992Y165748D02*
X116142Y162598D01*
X127559Y162598D01*
X133858Y156299D01*
Y144128D01*
X133453Y143836D01*
X130905Y144685D01*
X130512Y145079D01*
X126378D01*
X126378Y145079D01*
Y145079D01*
X125967Y145293D01*
X125591Y145669D01*
Y151575D01*
X119685Y157480D01*
X113779D01*
X112992Y156693D01*
Y155512D01*
X126279Y142224D01*
X124606Y140551D01*
X129331Y135827D01*
X132677D01*
Y110630D01*
X127165Y105118D01*
X105118D01*
X103937Y106299D01*
Y119291D01*
X104527Y119882D01*
X118307D01*
X120866Y122441D01*
Y138583D01*
X118110Y141339D01*
X105512D01*
X96457Y150394D01*
X96457Y164961D01*
X100000Y168504D01*
X110236Y168504D01*
X112992Y165748D01*
D02*
G37*
G36*
X117323Y130709D02*
X118110Y129921D01*
X118110Y121653D01*
X117520Y121063D01*
X104527Y121063D01*
X103937Y121653D01*
X103937Y128347D01*
X106299Y130709D01*
X117323Y130709D01*
D02*
G37*
G36*
X100000Y130709D02*
X102362Y128347D01*
X102362Y106299D01*
X101181Y105118D01*
X83071D01*
X81496Y106693D01*
Y118898D01*
X83071Y120472D01*
X86614D01*
X88583Y122441D01*
Y129921D01*
X89370Y130709D01*
X100000Y130709D01*
D02*
G37*
%LPC*%
G36*
X117929Y146098D02*
X114726D01*
Y144864D01*
X117929D01*
Y146098D01*
D02*
G37*
G36*
X113226D02*
X110024D01*
Y144864D01*
X113226D01*
Y146098D01*
D02*
G37*
G36*
X117929Y143364D02*
X114726D01*
Y142130D01*
X117929D01*
Y143364D01*
D02*
G37*
G36*
X113226D02*
X110024D01*
Y142130D01*
X113226D01*
Y143364D01*
D02*
G37*
G36*
X117679Y119004D02*
Y117679D01*
X119004D01*
X118984Y117780D01*
X118502Y118502D01*
X117780Y118984D01*
X117679Y119004D01*
D02*
G37*
G36*
X116179D02*
X116078Y118984D01*
X115357Y118502D01*
X114875Y117780D01*
X114855Y117679D01*
X116179D01*
Y119004D01*
D02*
G37*
G36*
X119004Y116179D02*
X117679D01*
Y114855D01*
X117780Y114875D01*
X118502Y115357D01*
X118984Y116078D01*
X119004Y116179D01*
D02*
G37*
G36*
X116179D02*
X114855D01*
X114875Y116078D01*
X115357Y115357D01*
X116078Y114875D01*
X116179Y114855D01*
Y116179D01*
D02*
G37*
G36*
X123585Y115067D02*
Y113742D01*
X124909D01*
X124889Y113843D01*
X124407Y114565D01*
X123686Y115047D01*
X123585Y115067D01*
D02*
G37*
G36*
X122085D02*
X121984Y115047D01*
X121262Y114565D01*
X120780Y113843D01*
X120760Y113742D01*
X122085D01*
Y115067D01*
D02*
G37*
G36*
X124909Y112242D02*
X123585D01*
Y110917D01*
X123686Y110938D01*
X124407Y111420D01*
X124889Y112141D01*
X124909Y112242D01*
D02*
G37*
G36*
X122085D02*
X120760D01*
X120780Y112141D01*
X121262Y111420D01*
X121984Y110938D01*
X122085Y110917D01*
Y112242D01*
D02*
G37*
G36*
X117679Y111130D02*
Y109805D01*
X119004D01*
X118984Y109906D01*
X118502Y110628D01*
X117780Y111110D01*
X117679Y111130D01*
D02*
G37*
G36*
X116179D02*
X116078Y111110D01*
X115357Y110628D01*
X114875Y109906D01*
X114855Y109805D01*
X116179D01*
Y111130D01*
D02*
G37*
G36*
X119004Y108305D02*
X117679D01*
Y106981D01*
X117780Y107001D01*
X118502Y107483D01*
X118984Y108204D01*
X119004Y108305D01*
D02*
G37*
G36*
X116179D02*
X114855D01*
X114875Y108204D01*
X115357Y107483D01*
X116078Y107001D01*
X116179Y106981D01*
Y108305D01*
D02*
G37*
%LPD*%
G36*
X85039Y135827D02*
X95276D01*
X96063Y135039D01*
Y133465D01*
X95276Y132677D01*
X84252D01*
X83858Y132283D01*
X83858Y128740D01*
X82677Y127559D01*
X70079D01*
X68898Y128740D01*
X68898Y135827D01*
X70079Y137008D01*
X83858D01*
X85039Y135827D01*
D02*
G37*
G36*
X193504Y109055D02*
Y102165D01*
X192520Y101181D01*
X178150Y101181D01*
X174606Y104724D01*
X174606Y109646D01*
X175984Y111024D01*
X191535Y111024D01*
X193504Y109055D01*
D02*
G37*
%LPC*%
G36*
X313030Y116281D02*
X313005Y116278D01*
X312282Y115979D01*
X311662Y115503D01*
X311187Y114883D01*
X310887Y114161D01*
X310884Y114136D01*
X313030D01*
Y116281D01*
D02*
G37*
G36*
X327953Y116279D02*
X327204Y116181D01*
X326506Y115892D01*
X325907Y115432D01*
X325447Y114832D01*
X325158Y114135D01*
X325060Y113386D01*
X325158Y112637D01*
X325447Y111939D01*
X325907Y111340D01*
X326506Y110880D01*
X327204Y110591D01*
X327953Y110493D01*
X328702Y110591D01*
X329399Y110880D01*
X329999Y111340D01*
X330458Y111939D01*
X330747Y112637D01*
X330846Y113386D01*
X330747Y114135D01*
X330458Y114832D01*
X329999Y115432D01*
X329399Y115892D01*
X328702Y116181D01*
X327953Y116279D01*
D02*
G37*
G36*
Y102106D02*
X327204Y102007D01*
X326506Y101718D01*
X325907Y101258D01*
X325447Y100659D01*
X325158Y99961D01*
X325060Y99213D01*
X325158Y98464D01*
X325447Y97766D01*
X325907Y97167D01*
X326506Y96707D01*
X327204Y96418D01*
X327953Y96319D01*
X328702Y96418D01*
X329399Y96707D01*
X329999Y97167D01*
X330458Y97766D01*
X330747Y98464D01*
X330846Y99213D01*
X330747Y99961D01*
X330458Y100659D01*
X329999Y101258D01*
X329399Y101718D01*
X328702Y102007D01*
X327953Y102106D01*
D02*
G37*
G36*
X311774Y36524D02*
Y35199D01*
X313098D01*
X313078Y35300D01*
X312596Y36021D01*
X311875Y36503D01*
X311774Y36524D01*
D02*
G37*
G36*
X310274D02*
X310173Y36503D01*
X309451Y36021D01*
X308969Y35300D01*
X308949Y35199D01*
X310274D01*
Y36524D01*
D02*
G37*
G36*
X302862Y33502D02*
X301537D01*
Y32177D01*
X301638Y32197D01*
X302360Y32680D01*
X302842Y33401D01*
X302862Y33502D01*
D02*
G37*
G36*
X313098Y33699D02*
X308949D01*
X308969Y33598D01*
X309086Y33422D01*
Y21865D01*
X299159Y11938D01*
X298952Y11897D01*
X298231Y11415D01*
X297749Y10694D01*
X297728Y10593D01*
X299803D01*
Y9843D01*
X300553D01*
Y7768D01*
X300654Y7788D01*
X301376Y8270D01*
X301858Y8991D01*
X301899Y9199D01*
X312393Y19693D01*
X312813Y20322D01*
X312961Y21063D01*
Y33422D01*
X313078Y33598D01*
X313098Y33699D01*
D02*
G37*
G36*
X299053Y9093D02*
X297728D01*
X297749Y8991D01*
X298231Y8270D01*
X298952Y7788D01*
X299053Y7768D01*
Y9093D01*
D02*
G37*
G36*
X73047Y69110D02*
X70179D01*
Y66242D01*
X73047D01*
Y69110D01*
D02*
G37*
G36*
X54230D02*
X51362D01*
Y66242D01*
X54230D01*
Y69110D01*
D02*
G37*
G36*
X68679D02*
X62955D01*
Y65492D01*
X61455D01*
Y69110D01*
X55730D01*
Y65492D01*
X54980D01*
Y64742D01*
X51362D01*
Y61874D01*
Y59018D01*
X54980D01*
Y57518D01*
X51362D01*
Y54650D01*
Y51793D01*
X54980D01*
Y51043D01*
X55730D01*
Y47425D01*
X61455D01*
Y51043D01*
X62955D01*
Y47425D01*
X68679D01*
Y51043D01*
X69429D01*
Y51793D01*
X73047D01*
Y54650D01*
Y57518D01*
X69429D01*
Y59018D01*
X73047D01*
Y61874D01*
Y64742D01*
X69429D01*
Y65492D01*
X68679D01*
Y69110D01*
D02*
G37*
G36*
X73047Y50293D02*
X70179D01*
Y47425D01*
X73047D01*
Y50293D01*
D02*
G37*
G36*
X54230D02*
X51362D01*
Y47425D01*
X54230D01*
Y50293D01*
D02*
G37*
G36*
X25984Y37705D02*
Y36380D01*
X27309D01*
X27289Y36481D01*
X26807Y37202D01*
X26085Y37685D01*
X25984Y37705D01*
D02*
G37*
G36*
X27309Y34880D02*
X25984D01*
Y33555D01*
X26085Y33575D01*
X26807Y34057D01*
X27289Y34779D01*
X27309Y34880D01*
D02*
G37*
G36*
X31927Y33677D02*
X29906D01*
Y29490D01*
X31927D01*
Y33677D01*
D02*
G37*
G36*
X25984Y27862D02*
Y26537D01*
X27309D01*
X27289Y26638D01*
X26807Y27360D01*
X26085Y27842D01*
X25984Y27862D01*
D02*
G37*
G36*
X31927Y27990D02*
X29906D01*
Y23803D01*
X31927D01*
Y27990D01*
D02*
G37*
G36*
X27309Y25037D02*
X25984D01*
Y23713D01*
X26085Y23733D01*
X26807Y24215D01*
X27289Y24936D01*
X27309Y25037D01*
D02*
G37*
G36*
X33283Y23244D02*
X31655D01*
Y20435D01*
X33283D01*
Y23244D01*
D02*
G37*
G36*
X30156D02*
X28528D01*
Y20435D01*
X30156D01*
Y23244D01*
D02*
G37*
G36*
X25984Y19201D02*
Y17876D01*
X27309D01*
X27289Y17977D01*
X26807Y18699D01*
X26085Y19181D01*
X25984Y19201D01*
D02*
G37*
G36*
X27309Y16376D02*
X25984D01*
Y15051D01*
X26085Y15071D01*
X26807Y15553D01*
X27289Y16275D01*
X27309Y16376D01*
D02*
G37*
G36*
X33283Y18935D02*
X30906D01*
X28528D01*
Y16126D01*
Y13742D01*
X30906D01*
X33283D01*
Y16126D01*
Y18935D01*
D02*
G37*
G36*
X25984Y10539D02*
Y9215D01*
X27309D01*
X27289Y9316D01*
X26807Y10037D01*
X26085Y10519D01*
X25984Y10539D01*
D02*
G37*
G36*
X33283Y12242D02*
X30906D01*
X28528D01*
Y9433D01*
Y7049D01*
X30906D01*
X33283D01*
Y9433D01*
Y12242D01*
D02*
G37*
G36*
X27309Y7715D02*
X25984D01*
Y6390D01*
X26085Y6410D01*
X26807Y6892D01*
X27289Y7614D01*
X27309Y7715D01*
D02*
G37*
%LPD*%
D12*
X172834Y134315D02*
Y137008D01*
Y134315D02*
X172835Y134314D01*
Y131764D02*
Y134314D01*
X172834Y137008D02*
X176378D01*
X191142Y151772D01*
X220177Y42028D02*
Y45965D01*
Y28839D02*
Y32776D01*
Y28839D02*
X220276Y28740D01*
X65817Y58268D02*
X69429D01*
X62205D02*
X65817D01*
X58592D02*
X62205D01*
X54980D02*
X58592D01*
X62205D02*
Y61880D01*
Y65492D01*
X65817D02*
X69429D01*
Y61880D02*
Y65492D01*
Y58268D02*
Y61880D01*
Y51043D02*
Y54655D01*
X65817Y51043D02*
X69429D01*
X62205D02*
X65817D01*
X58592D02*
X62205D01*
X54980D02*
X58592D01*
X62205Y54655D02*
Y58268D01*
Y51043D02*
Y54655D01*
X54980D02*
Y58268D01*
Y61880D02*
Y65492D01*
X58592D01*
X62205D01*
X217323Y119685D02*
Y123085D01*
X211614Y128794D02*
X217323Y123085D01*
X211614Y128794D02*
Y136024D01*
X212205Y119685D02*
Y125394D01*
X209646Y127953D02*
Y136024D01*
Y127953D02*
X212205Y125394D01*
X229331Y145866D02*
X242126D01*
X242126Y145866D01*
X207087Y119685D02*
Y126772D01*
X205709Y128150D02*
Y136024D01*
Y128150D02*
X207087Y126772D01*
X201969Y119685D02*
Y127165D01*
X203740Y128937D01*
Y136024D01*
X191142Y151772D02*
X195866D01*
X209646Y169488D02*
Y183805D01*
D54*
X12697Y177559D02*
D03*
X161811Y13386D02*
D03*
D67*
X296850Y52756D02*
D03*
X311024Y34449D02*
D03*
X300787Y34252D02*
D03*
X299803Y9843D02*
D03*
X263977Y234941D02*
D03*
X229624Y248212D02*
D03*
X114961Y69291D02*
D03*
X220276Y153150D02*
D03*
X205315Y150591D02*
D03*
X204921Y159252D02*
D03*
X166142Y161614D02*
D03*
X179134Y171850D02*
D03*
X45472Y145669D02*
D03*
X70276Y150984D02*
D03*
X80905Y149213D02*
D03*
X82677Y173228D02*
D03*
X117913Y174409D02*
D03*
X125000Y174606D02*
D03*
X158465Y129528D02*
D03*
X139961Y126575D02*
D03*
X176772Y91929D02*
D03*
X257874Y24409D02*
D03*
X257677Y32087D02*
D03*
X235630Y39961D02*
D03*
X246063Y76575D02*
D03*
X268504Y80118D02*
D03*
Y90748D02*
D03*
X213189Y84646D02*
D03*
X173425Y115354D02*
D03*
X186614Y126378D02*
D03*
X220472Y146260D02*
D03*
X242520Y130315D02*
D03*
X242717Y172244D02*
D03*
X265551Y197441D02*
D03*
X265158Y213583D02*
D03*
X185236Y171850D02*
D03*
X209646Y199803D02*
D03*
X176181Y193898D02*
D03*
X189961D02*
D03*
X198425Y210236D02*
D03*
Y220079D02*
D03*
X184646D02*
D03*
X247207Y221222D02*
D03*
X242126Y220472D02*
D03*
X227559Y253543D02*
D03*
X157087Y171850D02*
D03*
X149016Y155709D02*
D03*
X151181Y160039D02*
D03*
Y165945D02*
D03*
X157087D02*
D03*
X266929Y97441D02*
D03*
X236220Y168898D02*
D03*
X182087Y138976D02*
D03*
X25234Y35630D02*
D03*
Y25787D02*
D03*
Y17126D02*
D03*
Y8465D02*
D03*
X63386Y19488D02*
D03*
X51968Y126181D02*
D03*
X41732Y107677D02*
D03*
X45472Y104134D02*
D03*
X191929Y130709D02*
D03*
X191732Y134646D02*
D03*
X63976Y140157D02*
D03*
X70472Y129528D02*
D03*
X74410D02*
D03*
X78347D02*
D03*
X82284D02*
D03*
X231211Y125279D02*
D03*
X198426Y99607D02*
D03*
X244291Y53347D02*
D03*
X241929Y19882D02*
D03*
X221457Y116732D02*
D03*
X48819Y6299D02*
D03*
X43110Y5512D02*
D03*
Y8858D02*
D03*
X207874Y81102D02*
D03*
X215551Y179331D02*
D03*
X242126Y230709D02*
D03*
X214173Y182677D02*
D03*
X212205Y93110D02*
D03*
X208071Y87402D02*
D03*
X255118Y145866D02*
D03*
X251772Y180315D02*
D03*
X257677Y53347D02*
D03*
X250984D02*
D03*
X176969Y105315D02*
D03*
Y109252D02*
D03*
X122835Y112992D02*
D03*
X116929Y116929D02*
D03*
Y109055D02*
D03*
X66929Y162992D02*
D03*
X59055D02*
D03*
X62992D02*
D03*
X54724Y191732D02*
D03*
X58661D02*
D03*
X62598D02*
D03*
D68*
X317126Y79134D02*
D03*
X324606D02*
D03*
X30906Y6299D02*
D03*
X38386D02*
D03*
X30906Y12992D02*
D03*
X38386D02*
D03*
X30906Y19685D02*
D03*
X38386D02*
D03*
X141339Y137402D02*
D03*
X148819D02*
D03*
X249409Y25787D02*
D03*
X241929D02*
D03*
D69*
X317716Y67913D02*
D03*
X324016D02*
D03*
X317716Y48819D02*
D03*
X324016D02*
D03*
X69489Y12008D02*
D03*
X63189D02*
D03*
X100000Y123228D02*
D03*
X106300D02*
D03*
X252756Y230709D02*
D03*
X246456D02*
D03*
X236437D02*
D03*
X230137D02*
D03*
X253937Y85039D02*
D03*
X260237D02*
D03*
X236220Y163779D02*
D03*
X242520D02*
D03*
X245275Y158893D02*
D03*
X251575D02*
D03*
X245275Y154493D02*
D03*
X251575D02*
D03*
X242126Y145866D02*
D03*
X248426D02*
D03*
X227315Y130516D02*
D03*
X233615D02*
D03*
X166535Y131764D02*
D03*
X172835D02*
D03*
X166534Y137008D02*
D03*
X172834D02*
D03*
X161416Y143307D02*
D03*
X167717D02*
D03*
X165354Y167717D02*
D03*
X171653D02*
D03*
X199430Y177457D02*
D03*
X193130D02*
D03*
D70*
X324587Y53740D02*
D03*
Y61221D02*
D03*
X317146Y57480D02*
D03*
X56870Y12008D02*
D03*
Y19488D02*
D03*
X49429Y15748D02*
D03*
X44094Y115748D02*
D03*
X51535Y119488D02*
D03*
Y112008D02*
D03*
X236043Y243898D02*
D03*
Y236417D02*
D03*
X243484Y240158D02*
D03*
X219291Y236417D02*
D03*
Y243898D02*
D03*
X211850Y240158D02*
D03*
D71*
X112205Y22441D02*
D03*
Y28741D02*
D03*
X77165Y14174D02*
D03*
Y7874D02*
D03*
X42913Y19292D02*
D03*
Y12992D02*
D03*
X57480Y118898D02*
D03*
Y112598D02*
D03*
X230315Y237598D02*
D03*
Y243898D02*
D03*
X225020D02*
D03*
Y237598D02*
D03*
X123622Y160236D02*
D03*
Y166536D02*
D03*
X203150Y87402D02*
D03*
Y81102D02*
D03*
Y93307D02*
D03*
Y99607D02*
D03*
X217323Y119685D02*
D03*
Y113385D02*
D03*
X212205D02*
D03*
Y119685D02*
D03*
X207087Y113385D02*
D03*
Y119685D02*
D03*
X201969Y113385D02*
D03*
Y119685D02*
D03*
X187402Y141142D02*
D03*
Y134842D02*
D03*
X209646Y193505D02*
D03*
Y187205D02*
D03*
D72*
X89173Y13976D02*
D03*
X100984D02*
D03*
X106890D02*
D03*
D73*
X112402Y11024D02*
D03*
X83661D02*
D03*
X112402Y3150D02*
D03*
X83661D02*
D03*
D74*
X69429Y65492D02*
D03*
Y58268D02*
D03*
Y51043D02*
D03*
X62205Y65492D02*
D03*
Y58268D02*
D03*
Y51043D02*
D03*
X54980Y65492D02*
D03*
Y58268D02*
D03*
Y51043D02*
D03*
D75*
X32677Y95669D02*
D03*
X37677D02*
D03*
X42677D02*
D03*
X47677D02*
D03*
X52677D02*
D03*
X57677D02*
D03*
X62677D02*
D03*
X67677D02*
D03*
X72677D02*
D03*
X77677D02*
D03*
X82677D02*
D03*
X87677D02*
D03*
X92677D02*
D03*
X97677D02*
D03*
Y28740D02*
D03*
X92677D02*
D03*
X87677D02*
D03*
X82677D02*
D03*
X77677D02*
D03*
X72677D02*
D03*
X67677D02*
D03*
X62677D02*
D03*
X57677D02*
D03*
X52677D02*
D03*
X47677D02*
D03*
X42677D02*
D03*
X37677D02*
D03*
X32677D02*
D03*
D76*
X101614Y84705D02*
D03*
Y79705D02*
D03*
Y74705D02*
D03*
Y69705D02*
D03*
Y64705D02*
D03*
Y59705D02*
D03*
Y54705D02*
D03*
Y49705D02*
D03*
Y44705D02*
D03*
Y39705D02*
D03*
D77*
X62894Y175000D02*
D03*
D78*
X27657Y152165D02*
D03*
Y202953D02*
D03*
D79*
X44882Y137598D02*
D03*
Y130118D02*
D03*
X80709Y141732D02*
D03*
Y134252D02*
D03*
X74016Y141732D02*
D03*
Y134252D02*
D03*
X117717Y167126D02*
D03*
Y159646D02*
D03*
X189370Y115551D02*
D03*
Y108071D02*
D03*
X182677Y115551D02*
D03*
Y108071D02*
D03*
X244291Y39961D02*
D03*
Y47441D02*
D03*
X250984Y39961D02*
D03*
Y47441D02*
D03*
X257677Y39961D02*
D03*
Y47441D02*
D03*
X259842Y92716D02*
D03*
Y100197D02*
D03*
X253150Y92716D02*
D03*
Y100197D02*
D03*
X157283Y153740D02*
D03*
Y161221D02*
D03*
X176969Y177457D02*
D03*
Y184937D02*
D03*
X185272Y177457D02*
D03*
Y184937D02*
D03*
D80*
X70197Y112598D02*
D03*
X87402D02*
D03*
D81*
X92323Y129114D02*
D03*
Y134114D02*
D03*
Y139114D02*
D03*
Y144114D02*
D03*
X113976D02*
D03*
Y139114D02*
D03*
Y134114D02*
D03*
Y129114D02*
D03*
X189567Y103169D02*
D03*
Y98169D02*
D03*
Y93169D02*
D03*
Y88169D02*
D03*
X167913D02*
D03*
Y93169D02*
D03*
Y98169D02*
D03*
Y103169D02*
D03*
X244488Y100157D02*
D03*
Y95157D02*
D03*
Y90158D02*
D03*
Y85158D02*
D03*
X222835D02*
D03*
Y90158D02*
D03*
Y95157D02*
D03*
Y100157D02*
D03*
D82*
X99016Y112598D02*
D03*
X107283D02*
D03*
D83*
X164370Y63583D02*
D03*
D84*
X187205Y28346D02*
D03*
X136417D02*
D03*
D85*
X233858Y8465D02*
D03*
X203937D02*
D03*
D86*
X231102Y19203D02*
D03*
X206693D02*
D03*
D87*
X213779Y19685D02*
D03*
X216339D02*
D03*
X218898D02*
D03*
X221457D02*
D03*
X224016D02*
D03*
D88*
X233465Y220394D02*
D03*
Y210394D02*
D03*
Y200394D02*
D03*
Y190394D02*
D03*
Y180394D02*
D03*
D89*
X250394Y243307D02*
D03*
X261417D02*
D03*
X204153D02*
D03*
X193130D02*
D03*
X230906Y32677D02*
D03*
X241929D02*
D03*
D90*
X80315Y182677D02*
D03*
Y193701D02*
D03*
X148819Y129528D02*
D03*
Y118504D02*
D03*
D91*
X80315Y203543D02*
D03*
X94488D02*
D03*
D92*
X82677Y161417D02*
D03*
X106299D02*
D03*
D93*
X130709Y147244D02*
D03*
X139764D02*
D03*
X148819D02*
D03*
D94*
X139764Y172441D02*
D03*
D95*
X223917Y32776D02*
D03*
X220177D02*
D03*
X216437D02*
D03*
Y42028D02*
D03*
X220177D02*
D03*
X223917D02*
D03*
D96*
X179647Y163724D02*
D03*
X169347Y153424D02*
D03*
X185772Y157600D02*
D03*
X175471Y147299D02*
D03*
D97*
X141339Y183051D02*
D03*
Y203563D02*
D03*
X106693Y183051D02*
D03*
Y203563D02*
D03*
D98*
X201772Y169488D02*
D03*
X203740D02*
D03*
X205709D02*
D03*
X207677D02*
D03*
X209646D02*
D03*
X211614D02*
D03*
X213583D02*
D03*
X215551D02*
D03*
X217520D02*
D03*
X219488D02*
D03*
X221457D02*
D03*
X223425D02*
D03*
Y136024D02*
D03*
X221457D02*
D03*
X219488D02*
D03*
X217520D02*
D03*
X215551D02*
D03*
X213583D02*
D03*
X211614D02*
D03*
X209646D02*
D03*
X207677D02*
D03*
X205709D02*
D03*
X203740D02*
D03*
X201772D02*
D03*
D99*
X229331Y163583D02*
D03*
Y161614D02*
D03*
Y159646D02*
D03*
Y157677D02*
D03*
Y155709D02*
D03*
Y153740D02*
D03*
Y151772D02*
D03*
Y149803D02*
D03*
Y147835D02*
D03*
Y145866D02*
D03*
Y143898D02*
D03*
Y141929D02*
D03*
X195866D02*
D03*
Y143898D02*
D03*
Y145866D02*
D03*
Y147835D02*
D03*
Y149803D02*
D03*
Y151772D02*
D03*
Y153740D02*
D03*
Y155709D02*
D03*
Y157677D02*
D03*
Y159646D02*
D03*
Y161614D02*
D03*
Y163583D02*
D03*
D100*
X157874Y102953D02*
D03*
Y98622D02*
D03*
D101*
X289173Y22835D02*
X290551D01*
X285039Y26969D02*
Y49606D01*
Y26969D02*
X289173Y22835D01*
X285039Y49606D02*
X288189Y52756D01*
X296850D01*
X320123Y64370D02*
X323666Y67913D01*
X310827Y64370D02*
X320123D01*
X296784Y34646D02*
X310957Y48819D01*
X317716D01*
X290551Y34646D02*
X296784D01*
X329134Y57480D02*
X333465Y61811D01*
X328740Y79134D02*
X333465Y74410D01*
Y61811D02*
Y74410D01*
X323666Y67913D02*
X324016D01*
X324606Y79134D02*
X328740D01*
X317146Y57480D02*
X329134D01*
X317126Y68503D02*
X317716Y67913D01*
X317126Y68503D02*
Y79134D01*
X324016Y53170D02*
X324587Y53740D01*
X324016Y48819D02*
Y53170D01*
X63189Y12008D02*
X63189Y12008D01*
X56870Y12008D02*
X63189D01*
X56870Y12008D02*
X56870Y12008D01*
X57480Y133661D02*
X63976Y140157D01*
X57480Y118898D02*
Y133661D01*
X227665Y130516D02*
X228465Y129716D01*
Y128026D02*
Y129716D01*
Y128026D02*
X231211Y125279D01*
X227315Y130516D02*
X227665D01*
X198426Y99607D02*
X203150D01*
X160843Y98622D02*
X161295Y98169D01*
X167913D01*
X157874Y98622D02*
X160843D01*
X161059Y103169D02*
X167913D01*
X160843Y102953D02*
X161059Y103169D01*
X157874Y102953D02*
X160843D01*
X203150Y81102D02*
X207874D01*
X203150Y99607D02*
X203150Y99606D01*
X236220Y163779D02*
Y168898D01*
X248426Y145866D02*
X255118D01*
D102*
X290551Y46457D02*
X297388D01*
X302953Y52022D02*
Y60039D01*
X297388Y46457D02*
X302953Y52022D01*
Y60039D02*
X307283Y64370D01*
X310827D01*
X308465Y56693D02*
X313070Y61298D01*
X308465Y51144D02*
Y56693D01*
X297872Y40551D02*
X308465Y51144D01*
X313070Y61298D02*
X324509D01*
X290551Y40551D02*
X297872D01*
X313779Y113386D02*
X320866Y106299D01*
Y75590D02*
Y106299D01*
Y75590D02*
X323622Y72835D01*
X326772D01*
X329528Y65571D02*
Y70079D01*
X326772Y72835D02*
X329528Y70079D01*
X325177Y61221D02*
X329528Y65571D01*
X324587Y61221D02*
X325177D01*
X324509Y61298D02*
X324587Y61221D01*
X241831Y25689D02*
X241929Y25591D01*
Y25787D02*
Y31693D01*
Y19882D02*
Y25591D01*
X241831Y25689D02*
X241929Y25787D01*
D103*
X299803Y9843D02*
X311024Y21063D01*
Y34449D01*
X299803Y9843D02*
Y9843D01*
X238110Y234941D02*
X263977D01*
X236634Y236417D02*
X238110Y234941D01*
X230315Y237542D02*
Y237598D01*
X230865Y236992D02*
X235469D01*
X230315Y237542D02*
X230865Y236992D01*
X235469D02*
X236043Y236417D01*
X225472Y251456D02*
X227559Y253543D01*
X225472Y244350D02*
Y251456D01*
X225020Y243898D02*
X225472Y244350D01*
X259842Y100197D02*
X264173D01*
X266929Y97441D01*
X244488Y100157D02*
X256244D01*
X256283Y100197D01*
X259842D01*
X56870Y19488D02*
X63386D01*
X63386Y19488D01*
X48410Y129740D02*
X51968Y126181D01*
X45260Y129740D02*
X48410D01*
X44504Y130496D02*
X45260Y129740D01*
X77165Y14174D02*
Y14249D01*
X77715Y14799D01*
X88795D01*
X89173Y14421D01*
Y13976D02*
Y14421D01*
X48819Y6299D02*
X67716D01*
X69291Y7874D02*
X77165D01*
X67716Y6299D02*
X69291Y7874D01*
X140424Y98692D02*
X145947Y93169D01*
X167913D01*
X140424Y98692D02*
X148819Y107087D01*
Y118504D01*
X51535Y112008D02*
X52110Y112583D01*
X54415D01*
X54430Y112598D01*
X57480D01*
X21260Y112992D02*
X21457Y113189D01*
X30512D01*
X33071Y115748D01*
X44094D01*
X21260Y132677D02*
X32283D01*
X34465Y130496D02*
X44504D01*
X32283Y132677D02*
X34465Y130496D01*
D104*
X218307Y177362D02*
Y217323D01*
X226772Y225787D02*
X234566D01*
X218307Y217323D02*
X226772Y225787D01*
X242170Y163779D02*
X242520D01*
X234071Y160236D02*
X238976D01*
X241170Y162779D02*
X242170Y163779D01*
X241170Y162430D02*
Y162779D01*
X238976Y160236D02*
X241170Y162430D01*
X232693Y161614D02*
X234071Y160236D01*
X229331Y161614D02*
X232693D01*
X184252Y141142D02*
X187402D01*
X182087Y138976D02*
X184252Y141142D01*
X187402D02*
X187434Y141175D01*
Y144324D02*
X190945Y147835D01*
X187434Y141175D02*
Y144324D01*
X190945Y147835D02*
X195866D01*
X69489Y12008D02*
Y16339D01*
X74409Y21260D01*
X101772D01*
X142717Y76575D02*
X175591D01*
X118701Y52559D02*
X142717Y76575D01*
X118701Y35587D02*
Y52559D01*
X116339Y41339D02*
Y53937D01*
X140945Y78543D02*
X176575D01*
X116339Y53937D02*
X140945Y78543D01*
X46850Y107677D02*
X52677Y101850D01*
X41732Y107677D02*
X46850D01*
X52677Y95669D02*
Y101850D01*
X45472Y104134D02*
X47835Y101772D01*
X47677Y95669D02*
X47835Y95827D01*
Y101772D01*
X191929Y130709D02*
X198228D01*
X201772Y134252D01*
Y136024D01*
X191732Y134646D02*
Y139567D01*
X194095Y141929D01*
X195866D01*
X276772Y30118D02*
Y96260D01*
X268307Y23228D02*
X269882D01*
X276772Y30118D01*
X269291Y35039D02*
X274410Y40157D01*
X262008Y107874D02*
X274410Y95472D01*
Y40157D02*
Y95472D01*
X241339Y107874D02*
X262008D01*
X219488Y132664D02*
X242309Y109843D01*
X263189D02*
X276772Y96260D01*
X242309Y109843D02*
X263189D01*
X217520Y131693D02*
X241339Y107874D01*
X217520Y131693D02*
Y136024D01*
X219488Y132664D02*
Y136024D01*
X268307Y35039D02*
X269291D01*
X223466Y133990D02*
Y135983D01*
Y133990D02*
X226550Y130905D01*
X226897Y130516D01*
X227315D01*
X224016Y116142D02*
Y122441D01*
X215551Y130905D02*
X224016Y122441D01*
Y116142D02*
X237795Y102362D01*
Y83661D02*
Y102362D01*
X221457Y116732D02*
Y121851D01*
X213583Y129725D02*
Y136024D01*
Y129725D02*
X221457Y121851D01*
X215551Y130905D02*
Y136024D01*
X217323Y109055D02*
X220669Y105709D01*
X230118D01*
X217323Y109055D02*
Y113385D01*
X230118Y105709D02*
X235039Y100787D01*
X224213Y75394D02*
X235039Y86221D01*
Y100787D01*
X179724Y75394D02*
X224213D01*
X179134Y73032D02*
X227165D01*
X237795Y83661D01*
X176575Y78543D02*
X179724Y75394D01*
X175591Y76575D02*
X179134Y73032D01*
X200787Y70669D02*
X253543D01*
X260237Y77363D02*
Y85039D01*
X253543Y70669D02*
X260237Y77363D01*
X108465Y33465D02*
X116339Y41339D01*
X108465Y27953D02*
Y33465D01*
X108074Y22641D02*
X112004D01*
X100984Y15551D02*
X108074Y22641D01*
X100984Y13976D02*
Y15551D01*
X112004Y22641D02*
X112205Y22441D01*
X114462Y31348D02*
X114462D01*
X118701Y35587D01*
X112205Y29090D02*
X114462Y31348D01*
X112205Y28741D02*
Y29090D01*
X223425Y136024D02*
X223466Y135983D01*
X101772Y21260D02*
X108465Y27953D01*
X191339Y156687D02*
X192317Y155709D01*
X191339Y156687D02*
Y159843D01*
X192317Y155709D02*
X195866D01*
X171653Y167717D02*
X175591D01*
X179583Y163724D01*
X179647D01*
X180134Y164211D02*
X186970D01*
X191339Y159843D01*
X179647Y163724D02*
X180134Y164211D01*
X171457Y143307D02*
X172244Y144095D01*
X167717Y143307D02*
X171457D01*
X172266Y144095D02*
X175471Y147299D01*
X172244Y144095D02*
X172266D01*
X175471Y147299D02*
X175471D01*
X175958Y147786D02*
X183023D01*
X175471Y147299D02*
X175958Y147786D01*
X188976Y153740D02*
X195866D01*
X183023Y147786D02*
X188976Y153740D01*
X205709Y169488D02*
Y176181D01*
X225787Y159646D02*
X229331D01*
X224016Y161417D02*
Y163976D01*
Y161417D02*
X225787Y159646D01*
X224016Y163976D02*
X227362Y167323D01*
Y186063D01*
X231693Y190394D01*
X233465D01*
X225197Y198819D02*
X226772Y200394D01*
X233465D01*
X225197Y175122D02*
Y198819D01*
X223425Y173350D02*
X225197Y175122D01*
X223425Y169488D02*
Y173350D01*
X221457Y174213D02*
X221457Y174213D01*
Y169488D02*
Y174213D01*
X221457Y174213D02*
X222835Y175591D01*
Y207087D01*
X226142Y210394D01*
X233465D01*
X252559Y220472D02*
Y230511D01*
X252756Y230709D01*
X248031Y215945D02*
X252559Y220472D01*
X225394Y215945D02*
X248031D01*
X220472Y211024D02*
X225394Y215945D01*
X220472Y176303D02*
Y211024D01*
X217520Y173350D02*
X220472Y176303D01*
X217520Y169488D02*
Y173350D01*
X215551Y169488D02*
Y174606D01*
X218307Y177362D01*
X213583D02*
X215551Y179331D01*
X213583Y169488D02*
Y177362D01*
X234566Y225787D02*
X236437Y227659D01*
Y230709D01*
X211614Y180118D02*
X214173Y182677D01*
X211614Y169488D02*
Y180118D01*
X203346Y93110D02*
X212205D01*
X203150Y93307D02*
X203346Y93110D01*
X203150Y87402D02*
X208071D01*
X203150Y87402D02*
X203150Y87402D01*
X208071D02*
X208268D01*
X199332Y88169D02*
X199332Y88169D01*
X202382D01*
X203150Y87402D01*
X189567Y88169D02*
X199332D01*
X189567Y93169D02*
X203012D01*
X203150Y93307D01*
X236023Y163583D02*
X236220Y163779D01*
X229331Y163583D02*
X236023D01*
D105*
X219291Y243898D02*
X222469D01*
X222470Y243898D01*
X225020D01*
X80768Y39705D02*
X101614D01*
X69429Y51043D02*
X80768Y39705D01*
X37205Y73622D02*
X41732D01*
X32677Y78150D02*
Y95669D01*
Y78150D02*
X37205Y73622D01*
X242126Y230709D02*
X246456D01*
D106*
X214291Y95157D02*
X222835D01*
X201969Y107480D02*
Y113385D01*
Y107480D02*
X214291Y95157D01*
X217717Y103150D02*
X228740D01*
X212205Y108661D02*
Y113385D01*
Y108661D02*
X217717Y103150D01*
X253818Y85158D02*
X253937Y85039D01*
X244488Y85158D02*
X253818D01*
X222835Y90158D02*
X228740D01*
X231693Y93110D02*
Y100197D01*
X228740Y90158D02*
X231693Y93110D01*
X228740Y103150D02*
X231693Y100197D01*
X207087Y108465D02*
Y113385D01*
Y108465D02*
X215394Y100157D01*
X222835D01*
X224016Y19685D02*
Y23622D01*
X230906Y30512D02*
Y32677D01*
X224016Y23622D02*
X230906Y30512D01*
X229331Y157677D02*
X233858D01*
X229331Y155709D02*
X238125D01*
X233858Y157677D02*
X233858Y157677D01*
X243512Y157943D02*
X244325D01*
X238962Y157729D02*
X238988Y157703D01*
X233858Y157729D02*
X238962D01*
X238151Y155683D02*
X243272D01*
X238125Y155709D02*
X238151Y155683D01*
X244325Y157943D02*
X245275Y158893D01*
X243272Y157703D02*
X243512Y157943D01*
X238988Y157703D02*
X243272D01*
Y155683D02*
X243512Y155443D01*
X244325D01*
X245275Y154493D01*
D107*
X233691Y180167D02*
X233839Y180315D01*
X251772D01*
X233465Y180394D02*
X233691Y180167D01*
D108*
X218941Y50043D02*
Y61374D01*
X216437Y28334D02*
X218941Y25830D01*
X216437Y47539D02*
X218941Y50043D01*
X218898Y19685D02*
X218941Y19728D01*
X216437Y32776D02*
Y42028D01*
Y47539D01*
X218941Y19728D02*
Y25830D01*
X211811Y64961D02*
X215354D01*
X211563Y64713D02*
X211811Y64961D01*
X211221Y64713D02*
X211563D01*
X215354Y64961D02*
X218941Y61374D01*
X216437Y28334D02*
Y32776D01*
X221413Y50043D02*
X223917Y47539D01*
Y42028D02*
Y47539D01*
Y28334D02*
Y32776D01*
Y42028D01*
X221413Y19728D02*
Y25830D01*
X211468Y67433D02*
X216379D01*
X211221Y67681D02*
X211468Y67433D01*
X221413Y25830D02*
X223917Y28334D01*
X221413Y19728D02*
X221457Y19685D01*
X216379Y67433D02*
X221413Y62398D01*
Y50043D02*
Y62398D01*
X251575Y158893D02*
X252389Y158079D01*
X253451D01*
X253602Y157929D01*
X259449D01*
X251575Y154493D02*
X252389Y155306D01*
X253451D01*
X253602Y155456D01*
X259449D01*
D109*
X209646Y183805D02*
X209646Y183805D01*
X209646Y183805D02*
Y187205D01*
D110*
X254095Y310945D02*
Y322441D01*
X238307Y295158D02*
X254095Y310945D01*
Y322441D02*
X263307Y331653D01*
Y344882D01*
X211968Y331653D02*
Y344882D01*
X202756Y322441D02*
X211968Y331653D01*
X186969Y295158D02*
X202756Y310945D01*
Y322441D01*
D111*
X151181Y327165D02*
X168898Y344882D01*
X151181Y307480D02*
Y327165D01*
X23622Y324646D02*
X40787Y307480D01*
X72441D01*
X23622Y344646D02*
X23740Y344764D01*
X50669D01*
X50787Y344882D01*
D112*
X92126Y228740D02*
D03*
X131496D02*
D03*
X72441Y307480D02*
D03*
X151181D02*
D03*
X21260Y132677D02*
D03*
Y112992D02*
D03*
X140424Y98692D02*
D03*
X126505Y84773D02*
D03*
X168898Y344882D02*
D03*
X50787D02*
D03*
X34252Y277559D02*
D03*
X14567D02*
D03*
X34252Y235039D02*
D03*
X14567D02*
D03*
D113*
X290551Y46457D02*
D03*
Y40551D02*
D03*
Y34646D02*
D03*
Y28740D02*
D03*
Y22835D02*
D03*
Y16929D02*
D03*
X268307Y17323D02*
D03*
Y23228D02*
D03*
Y29134D02*
D03*
Y35039D02*
D03*
Y40945D02*
D03*
Y46850D02*
D03*
D114*
X313779Y113386D02*
D03*
X327953D02*
D03*
Y99213D02*
D03*
D115*
X69429Y61880D02*
D03*
Y54655D02*
D03*
X65817Y65492D02*
D03*
Y58268D02*
D03*
Y51043D02*
D03*
X62205Y61880D02*
D03*
Y54655D02*
D03*
X58592Y65492D02*
D03*
Y58268D02*
D03*
Y51043D02*
D03*
X54980Y61880D02*
D03*
Y54655D02*
D03*
D116*
X30413Y177559D02*
D03*
X180709Y43701D02*
D03*
D117*
X43012Y158661D02*
D03*
X161811Y31102D02*
D03*
D118*
X55216Y181890D02*
D03*
D119*
X157480Y55905D02*
D03*
D120*
X238189Y325157D02*
D03*
X268189Y315158D02*
D03*
Y255157D02*
D03*
X238189Y295158D02*
D03*
Y255157D02*
D03*
X186969Y325157D02*
D03*
X216968Y315158D02*
D03*
Y255157D02*
D03*
X186969Y295158D02*
D03*
Y255157D02*
D03*
D121*
X243307Y344882D02*
D03*
X263307D02*
D03*
X191969D02*
D03*
X211968D02*
D03*
X23622Y344646D02*
D03*
Y324646D02*
D03*
D122*
X205709Y176181D02*
D03*
X200787Y70669D02*
D03*
D123*
X220079Y46063D02*
D03*
X220276Y28740D02*
D03*
X259431Y155512D02*
D03*
X259449Y157984D02*
D03*
X211221Y64713D02*
D03*
Y67681D02*
D03*
M02*
