G04*
G04 #@! TF.GenerationSoftware,Altium Limited,Altium Designer,22.2.1 (43)*
G04*
G04 Layer_Color=16711935*
%FSLAX25Y25*%
%MOIN*%
G70*
G04*
G04 #@! TF.SameCoordinates,A0DC7013-DE40-4D07-A028-2F209A2C4820*
G04*
G04*
G04 #@! TF.FilePolarity,Negative*
G04*
G01*
G75*
%ADD21R,0.03150X0.05512*%
%ADD22R,0.04194X0.03494*%
%ADD24R,0.03494X0.04194*%
%ADD32R,0.05512X0.03150*%
%ADD54C,0.08268*%
%ADD55O,0.07087X0.05118*%
%ADD56C,0.04331*%
%ADD57C,0.00394*%
%ADD58C,0.01575*%
%ADD59C,0.08661*%
%ADD60O,0.08268X0.16142*%
%ADD61O,0.16142X0.08268*%
%ADD62O,0.07480X0.14567*%
%ADD63O,0.14567X0.07480*%
%ADD64C,0.10236*%
%ADD65C,0.12205*%
%ADD66C,0.02165*%
%ADD67C,0.02362*%
%ADD173R,0.04724X0.02756*%
%ADD174R,0.03937X0.06693*%
%ADD175R,0.06693X0.03937*%
%ADD176R,0.05039X0.02677*%
G36*
X264803Y17717D02*
Y15945D01*
X267992Y12756D01*
X268425D01*
X271811Y16142D01*
Y17795D01*
X264803Y17717D01*
D02*
G37*
G36*
X271811Y46457D02*
Y48228D01*
X268622Y51417D01*
X268189D01*
X264803Y48031D01*
Y46378D01*
X271811Y46457D01*
D02*
G37*
G36*
X293701Y127165D02*
X289764Y123228D01*
X289764D01*
X293701Y119291D01*
X297638Y123228D01*
X297638D01*
X293701Y127165D01*
D02*
G37*
D21*
X307283Y15748D02*
D03*
X299803D02*
D03*
X297047Y63976D02*
D03*
X289567D02*
D03*
X303346Y100394D02*
D03*
X310827D02*
D03*
D22*
X319291Y22441D02*
D03*
X325591D02*
D03*
X296457Y57480D02*
D03*
X290157D02*
D03*
X296458Y73622D02*
D03*
X290158D02*
D03*
X296457Y78740D02*
D03*
X290157D02*
D03*
X349803Y55315D02*
D03*
X343503D02*
D03*
X337402D02*
D03*
X331102D02*
D03*
X310237Y94882D02*
D03*
X303937D02*
D03*
D24*
X307087Y28347D02*
D03*
Y22047D02*
D03*
X312205Y28347D02*
D03*
Y22047D02*
D03*
Y16142D02*
D03*
Y9842D02*
D03*
X334842Y16733D02*
D03*
Y10433D02*
D03*
X291732Y90552D02*
D03*
Y84252D02*
D03*
X296850Y90552D02*
D03*
Y84252D02*
D03*
X336614Y67323D02*
D03*
Y61023D02*
D03*
X341732D02*
D03*
Y67323D02*
D03*
X336614Y79134D02*
D03*
Y72834D02*
D03*
X341732Y79134D02*
D03*
Y72834D02*
D03*
X331890Y84645D02*
D03*
Y90945D02*
D03*
X336614D02*
D03*
Y84645D02*
D03*
X341732Y84645D02*
D03*
Y90945D02*
D03*
D32*
X301181Y28937D02*
D03*
Y21457D02*
D03*
X300787Y45669D02*
D03*
Y38189D02*
D03*
X307874Y45669D02*
D03*
Y38189D02*
D03*
X314961Y45669D02*
D03*
Y38189D02*
D03*
D54*
X92126Y228740D02*
D03*
X131496D02*
D03*
X72441Y307480D02*
D03*
X151181D02*
D03*
X21260Y132677D02*
D03*
Y112992D02*
D03*
X140424Y98692D02*
D03*
X126505Y84773D02*
D03*
X168898Y344882D02*
D03*
X50787D02*
D03*
X34252Y277559D02*
D03*
X14567D02*
D03*
X34252Y235039D02*
D03*
X14567D02*
D03*
D55*
X290551Y46457D02*
D03*
Y40551D02*
D03*
Y34646D02*
D03*
Y28740D02*
D03*
Y22835D02*
D03*
Y16929D02*
D03*
X268307Y17323D02*
D03*
Y23228D02*
D03*
Y29134D02*
D03*
Y35039D02*
D03*
Y40945D02*
D03*
Y46850D02*
D03*
D56*
X313779Y113386D02*
D03*
X327953D02*
D03*
Y99213D02*
D03*
D57*
X92126Y7087D02*
D03*
X103937D02*
D03*
D58*
X69429Y61880D02*
D03*
Y54655D02*
D03*
X65817Y65492D02*
D03*
Y58268D02*
D03*
Y51043D02*
D03*
X62205Y61880D02*
D03*
Y54655D02*
D03*
X58592Y65492D02*
D03*
Y58268D02*
D03*
Y51043D02*
D03*
X54980Y61880D02*
D03*
Y54655D02*
D03*
D59*
X12697Y177559D02*
D03*
X161811Y13386D02*
D03*
D60*
X30413Y177559D02*
D03*
X180709Y43701D02*
D03*
D61*
X43012Y158661D02*
D03*
X161811Y31102D02*
D03*
D62*
X55216Y181890D02*
D03*
D63*
X157480Y55905D02*
D03*
D64*
X238189Y325157D02*
D03*
X268189Y315158D02*
D03*
Y255157D02*
D03*
X238189Y295158D02*
D03*
Y255157D02*
D03*
X186969Y325157D02*
D03*
X216968Y315158D02*
D03*
Y255157D02*
D03*
X186969Y295158D02*
D03*
Y255157D02*
D03*
D65*
X243307Y344882D02*
D03*
X263307D02*
D03*
X191969D02*
D03*
X211968D02*
D03*
X23622Y344646D02*
D03*
Y324646D02*
D03*
D66*
X220079Y46063D02*
D03*
X220276Y28740D02*
D03*
X211221Y64713D02*
D03*
Y67681D02*
D03*
D67*
X200787Y70669D02*
D03*
D173*
X329528Y9646D02*
D03*
Y17126D02*
D03*
X319291D02*
D03*
Y13386D02*
D03*
Y9646D02*
D03*
D174*
X330512Y29134D02*
D03*
X319094D02*
D03*
D175*
X348819Y91142D02*
D03*
Y79724D02*
D03*
Y73032D02*
D03*
Y61614D02*
D03*
D176*
X304020Y59110D02*
D03*
Y64110D02*
D03*
Y69110D02*
D03*
Y74110D02*
D03*
Y79110D02*
D03*
Y84110D02*
D03*
Y89110D02*
D03*
X324965Y59110D02*
D03*
Y64110D02*
D03*
Y69110D02*
D03*
Y74110D02*
D03*
Y79110D02*
D03*
Y84110D02*
D03*
Y89110D02*
D03*
M02*
