G04*
G04 #@! TF.GenerationSoftware,Altium Limited,Altium Designer,22.2.1 (43)*
G04*
G04 Layer_Color=2752767*
%FSLAX25Y25*%
%MOIN*%
G70*
G04*
G04 #@! TF.SameCoordinates,A0DC7013-DE40-4D07-A028-2F209A2C4820*
G04*
G04*
G04 #@! TF.FilePolarity,Positive*
G04*
G01*
G75*
%ADD178C,0.00200*%
%ADD179C,0.00267*%
%ADD180C,0.00133*%
D178*
X91326Y227940D02*
Y229540D01*
X92926D01*
Y227940D01*
X91326D01*
X130696D02*
Y229540D01*
X132296D01*
Y227940D01*
X130696D01*
X71641Y306680D02*
Y308280D01*
X73241D01*
Y306680D01*
X71641D01*
X150381D02*
Y308280D01*
X151981D01*
Y306680D01*
X150381D01*
X313779Y112586D02*
X312980Y114186D01*
X314580D01*
X313779Y112586D01*
X327953D02*
X327153Y114186D01*
X328753D01*
X327953Y112586D01*
Y98413D02*
X327153Y100013D01*
X328753D01*
X327953Y98413D01*
X92126Y6287D02*
X92526Y6687D01*
X92926D01*
X92526Y7087D01*
X92926Y7487D01*
X92526D01*
X92126Y7887D01*
X91726Y7487D01*
X91326D01*
X91726Y7087D01*
X91326Y6687D01*
X91726D01*
X92126Y6287D01*
X103937D02*
X104337Y6687D01*
X104737D01*
X104337Y7087D01*
X104737Y7487D01*
X104337D01*
X103937Y7887D01*
X103537Y7487D01*
X103137D01*
X103537Y7087D01*
X103137Y6687D01*
X103537D01*
X103937Y6287D01*
X68629Y61080D02*
X69029Y61880D01*
X68629Y62680D01*
X69429Y62280D01*
X70229Y62680D01*
X69829Y61880D01*
X70229Y61080D01*
X69429Y61480D01*
X68629Y61080D01*
Y53856D02*
X69029Y54655D01*
X68629Y55455D01*
X69429Y55055D01*
X70229Y55455D01*
X69829Y54655D01*
X70229Y53856D01*
X69429Y54255D01*
X68629Y53856D01*
X65017Y64692D02*
X65417Y65492D01*
X65017Y66292D01*
X65817Y65892D01*
X66617Y66292D01*
X66217Y65492D01*
X66617Y64692D01*
X65817Y65092D01*
X65017Y64692D01*
Y57468D02*
X65417Y58268D01*
X65017Y59068D01*
X65817Y58668D01*
X66617Y59068D01*
X66217Y58268D01*
X66617Y57468D01*
X65817Y57868D01*
X65017Y57468D01*
Y50243D02*
X65417Y51043D01*
X65017Y51843D01*
X65817Y51443D01*
X66617Y51843D01*
X66217Y51043D01*
X66617Y50243D01*
X65817Y50643D01*
X65017Y50243D01*
X61405Y61080D02*
X61805Y61880D01*
X61405Y62680D01*
X62205Y62280D01*
X63005Y62680D01*
X62605Y61880D01*
X63005Y61080D01*
X62205Y61480D01*
X61405Y61080D01*
Y53856D02*
X61805Y54655D01*
X61405Y55455D01*
X62205Y55055D01*
X63005Y55455D01*
X62605Y54655D01*
X63005Y53856D01*
X62205Y54255D01*
X61405Y53856D01*
X57793Y64692D02*
X58192Y65492D01*
X57793Y66292D01*
X58592Y65892D01*
X59392Y66292D01*
X58992Y65492D01*
X59392Y64692D01*
X58592Y65092D01*
X57793Y64692D01*
Y57468D02*
X58192Y58268D01*
X57793Y59068D01*
X58592Y58668D01*
X59392Y59068D01*
X58992Y58268D01*
X59392Y57468D01*
X58592Y57868D01*
X57793Y57468D01*
Y50243D02*
X58192Y51043D01*
X57793Y51843D01*
X58592Y51443D01*
X59392Y51843D01*
X58992Y51043D01*
X59392Y50243D01*
X58592Y50643D01*
X57793Y50243D01*
X54180Y61080D02*
X54580Y61880D01*
X54180Y62680D01*
X54980Y62280D01*
X55780Y62680D01*
X55380Y61880D01*
X55780Y61080D01*
X54980Y61480D01*
X54180Y61080D01*
Y53856D02*
X54580Y54655D01*
X54180Y55455D01*
X54980Y55055D01*
X55780Y55455D01*
X55380Y54655D01*
X55780Y53856D01*
X54980Y54255D01*
X54180Y53856D01*
X12297Y177159D02*
Y176759D01*
X13097D01*
Y177159D01*
X13497D01*
Y177959D01*
X13097D01*
Y178359D01*
X12297D01*
Y177959D01*
X11897D01*
Y177159D01*
X12297D01*
X29613Y176759D02*
X30013D01*
X30413Y177159D01*
X30813Y176759D01*
X31213D01*
Y177159D01*
X30813Y177559D01*
X31213Y177959D01*
Y178359D01*
X30813D01*
X30413Y177959D01*
X30013Y178359D01*
X29613D01*
Y177959D01*
X30013Y177559D01*
X29613Y177159D01*
Y176759D01*
X42212Y158661D02*
X43012Y159461D01*
X43812Y158661D01*
X43012Y157861D01*
X42212Y158661D01*
X54417Y181090D02*
Y182690D01*
X56016D01*
Y181090D01*
X54417D01*
X54817Y181490D02*
Y182290D01*
X55616D01*
Y181490D01*
X54817D01*
X139624Y97892D02*
Y99492D01*
X141224D01*
Y97892D01*
X139624D01*
X125705Y83973D02*
Y85573D01*
X127305D01*
Y83973D01*
X125705D01*
X161411Y12986D02*
Y12586D01*
X162211D01*
Y12986D01*
X162611D01*
Y13786D01*
X162211D01*
Y14186D01*
X161411D01*
Y13786D01*
X161011D01*
Y12986D01*
X161411D01*
X161011Y30302D02*
X161411D01*
X161811Y30702D01*
X162211Y30302D01*
X162611D01*
Y30702D01*
X162211Y31102D01*
X162611Y31502D01*
Y31902D01*
X162211D01*
X161811Y31502D01*
X161411Y31902D01*
X161011D01*
Y31502D01*
X161411Y31102D01*
X161011Y30702D01*
Y30302D01*
X179909Y43701D02*
X180709Y44501D01*
X181509Y43701D01*
X180709Y42901D01*
X179909Y43701D01*
X156680Y55106D02*
Y56705D01*
X158280D01*
Y55106D01*
X156680D01*
X157080Y55506D02*
Y56305D01*
X157880D01*
Y55506D01*
X157080D01*
X238189Y324358D02*
X237389Y325957D01*
X238989D01*
X238189Y324358D01*
Y324758D02*
X237789Y325557D01*
X238589D01*
X238189Y324758D01*
X268189Y314357D02*
X267389Y315957D01*
X268989D01*
X268189Y314357D01*
Y314757D02*
X267789Y315558D01*
X268589D01*
X268189Y314757D01*
Y254358D02*
X267389Y255958D01*
X268989D01*
X268189Y254358D01*
Y254757D02*
X267789Y255557D01*
X268589D01*
X268189Y254757D01*
X238189Y294357D02*
X237389Y295957D01*
X238989D01*
X238189Y294357D01*
Y294758D02*
X237789Y295557D01*
X238589D01*
X238189Y294758D01*
Y254358D02*
X237389Y255958D01*
X238989D01*
X238189Y254358D01*
Y254757D02*
X237789Y255557D01*
X238589D01*
X238189Y254757D01*
X186969Y324358D02*
X186169Y325957D01*
X187768D01*
X186969Y324358D01*
Y324758D02*
X186568Y325557D01*
X187369D01*
X186969Y324758D01*
X216968Y314357D02*
X216168Y315957D01*
X217769D01*
X216968Y314357D01*
Y314757D02*
X216568Y315558D01*
X217369D01*
X216968Y314757D01*
Y254358D02*
X216168Y255958D01*
X217769D01*
X216968Y254358D01*
Y254757D02*
X216568Y255557D01*
X217369D01*
X216968Y254757D01*
X186969Y294357D02*
X186169Y295957D01*
X187768D01*
X186969Y294357D01*
Y294758D02*
X186568Y295557D01*
X187369D01*
X186969Y294758D01*
Y254358D02*
X186169Y255958D01*
X187768D01*
X186969Y254358D01*
Y254757D02*
X186568Y255557D01*
X187369D01*
X186969Y254757D01*
X243307Y344082D02*
X243707Y344482D01*
X244107D01*
X243707Y344882D01*
X244107Y345282D01*
X243707D01*
X243307Y345682D01*
X242907Y345282D01*
X242507D01*
X242907Y344882D01*
X242507Y344482D01*
X242907D01*
X243307Y344082D01*
Y344482D02*
X243507Y344682D01*
X243707D01*
X243507Y344882D01*
X243707Y345082D01*
X243507D01*
X243307Y345282D01*
X243107Y345082D01*
X242907D01*
X243107Y344882D01*
X242907Y344682D01*
X243107D01*
X243307Y344482D01*
X263307Y344082D02*
X263707Y344482D01*
X264107D01*
X263707Y344882D01*
X264107Y345282D01*
X263707D01*
X263307Y345682D01*
X262907Y345282D01*
X262507D01*
X262907Y344882D01*
X262507Y344482D01*
X262907D01*
X263307Y344082D01*
Y344482D02*
X263507Y344682D01*
X263707D01*
X263507Y344882D01*
X263707Y345082D01*
X263507D01*
X263307Y345282D01*
X263107Y345082D01*
X262907D01*
X263107Y344882D01*
X262907Y344682D01*
X263107D01*
X263307Y344482D01*
X191969Y344082D02*
X192368Y344482D01*
X192769D01*
X192368Y344882D01*
X192769Y345282D01*
X192368D01*
X191969Y345682D01*
X191569Y345282D01*
X191168D01*
X191569Y344882D01*
X191168Y344482D01*
X191569D01*
X191969Y344082D01*
Y344482D02*
X192168Y344682D01*
X192368D01*
X192168Y344882D01*
X192368Y345082D01*
X192168D01*
X191969Y345282D01*
X191769Y345082D01*
X191569D01*
X191769Y344882D01*
X191569Y344682D01*
X191769D01*
X191969Y344482D01*
X211968Y344082D02*
X212368Y344482D01*
X212769D01*
X212368Y344882D01*
X212769Y345282D01*
X212368D01*
X211968Y345682D01*
X211568Y345282D01*
X211169D01*
X211568Y344882D01*
X211169Y344482D01*
X211568D01*
X211968Y344082D01*
Y344482D02*
X212169Y344682D01*
X212368D01*
X212169Y344882D01*
X212368Y345082D01*
X212169D01*
X211968Y345282D01*
X211769Y345082D01*
X211568D01*
X211769Y344882D01*
X211568Y344682D01*
X211769D01*
X211968Y344482D01*
X168098Y344082D02*
X168498Y344882D01*
X168098Y345682D01*
X168898Y345282D01*
X169698Y345682D01*
X169298Y344882D01*
X169698Y344082D01*
X168898Y344482D01*
X168098Y344082D01*
X168498Y344482D02*
X168698Y344882D01*
X168498Y345282D01*
X168898Y345082D01*
X169298Y345282D01*
X169098Y344882D01*
X169298Y344482D01*
X168898Y344682D01*
X168498Y344482D01*
X49987Y344082D02*
X50387Y344882D01*
X49987Y345682D01*
X50787Y345282D01*
X51587Y345682D01*
X51187Y344882D01*
X51587Y344082D01*
X50787Y344482D01*
X49987Y344082D01*
X50387Y344482D02*
X50587Y344882D01*
X50387Y345282D01*
X50787Y345082D01*
X51187Y345282D01*
X50987Y344882D01*
X51187Y344482D01*
X50787Y344682D01*
X50387Y344482D01*
X23622Y343846D02*
X24022Y344246D01*
X24422D01*
X24022Y344646D01*
X24422Y345046D01*
X24022D01*
X23622Y345446D01*
X23222Y345046D01*
X22822D01*
X23222Y344646D01*
X22822Y344246D01*
X23222D01*
X23622Y343846D01*
Y344246D02*
X23822Y344446D01*
X24022D01*
X23822Y344646D01*
X24022Y344846D01*
X23822D01*
X23622Y345046D01*
X23422Y344846D01*
X23222D01*
X23422Y344646D01*
X23222Y344446D01*
X23422D01*
X23622Y344246D01*
Y323846D02*
X24022Y324246D01*
X24422D01*
X24022Y324646D01*
X24422Y325046D01*
X24022D01*
X23622Y325446D01*
X23222Y325046D01*
X22822D01*
X23222Y324646D01*
X22822Y324246D01*
X23222D01*
X23622Y323846D01*
Y324246D02*
X23822Y324446D01*
X24022D01*
X23822Y324646D01*
X24022Y324846D01*
X23822D01*
X23622Y325046D01*
X23422Y324846D01*
X23222D01*
X23422Y324646D01*
X23222Y324446D01*
X23422D01*
X23622Y324246D01*
X33452Y276759D02*
Y278359D01*
X35052D01*
Y276759D01*
X33452D01*
X13767D02*
Y278359D01*
X15367D01*
Y276759D01*
X13767D01*
X33452Y234239D02*
Y235839D01*
X35052D01*
Y234239D01*
X33452D01*
X13767D02*
Y235839D01*
X15367D01*
Y234239D01*
X13767D01*
X205309Y175781D02*
Y175381D01*
X206109D01*
Y175781D01*
X206509D01*
Y176581D01*
X206109D01*
Y176981D01*
X205309D01*
Y176581D01*
X204909D01*
Y175781D01*
X205309D01*
X205509Y175981D02*
Y175781D01*
X205909D01*
Y175981D01*
X206109D01*
Y176381D01*
X205909D01*
Y176581D01*
X205509D01*
Y176381D01*
X205309D01*
Y175981D01*
X205509D01*
X296050Y51956D02*
X296450D01*
X296850Y52356D01*
X297250Y51956D01*
X297650D01*
Y52356D01*
X297250Y52756D01*
X297650Y53156D01*
Y53556D01*
X297250D01*
X296850Y53156D01*
X296450Y53556D01*
X296050D01*
Y53156D01*
X296450Y52756D01*
X296050Y52356D01*
Y51956D01*
X296450Y52356D02*
X296650D01*
X296850Y52556D01*
X297050Y52356D01*
X297250D01*
Y52556D01*
X297050Y52756D01*
X297250Y52956D01*
Y53156D01*
X297050D01*
X296850Y52956D01*
X296650Y53156D01*
X296450D01*
Y52956D01*
X296650Y52756D01*
X296450Y52556D01*
Y52356D01*
X310224Y33649D02*
X310624D01*
X311024Y34049D01*
X311424Y33649D01*
X311824D01*
Y34049D01*
X311424Y34449D01*
X311824Y34849D01*
Y35249D01*
X311424D01*
X311024Y34849D01*
X310624Y35249D01*
X310224D01*
Y34849D01*
X310624Y34449D01*
X310224Y34049D01*
Y33649D01*
X310624Y34049D02*
X310824D01*
X311024Y34249D01*
X311224Y34049D01*
X311424D01*
Y34249D01*
X311224Y34449D01*
X311424Y34649D01*
Y34849D01*
X311224D01*
X311024Y34649D01*
X310824Y34849D01*
X310624D01*
Y34649D01*
X310824Y34449D01*
X310624Y34249D01*
Y34049D01*
X299987Y33452D02*
X300387D01*
X300787Y33852D01*
X301187Y33452D01*
X301587D01*
Y33852D01*
X301187Y34252D01*
X301587Y34652D01*
Y35052D01*
X301187D01*
X300787Y34652D01*
X300387Y35052D01*
X299987D01*
Y34652D01*
X300387Y34252D01*
X299987Y33852D01*
Y33452D01*
X300387Y33852D02*
X300587D01*
X300787Y34052D01*
X300987Y33852D01*
X301187D01*
Y34052D01*
X300987Y34252D01*
X301187Y34452D01*
Y34652D01*
X300987D01*
X300787Y34452D01*
X300587Y34652D01*
X300387D01*
Y34452D01*
X300587Y34252D01*
X300387Y34052D01*
Y33852D01*
X299003Y9042D02*
X299403D01*
X299803Y9443D01*
X300203Y9042D01*
X300603D01*
Y9443D01*
X300203Y9843D01*
X300603Y10243D01*
Y10643D01*
X300203D01*
X299803Y10243D01*
X299403Y10643D01*
X299003D01*
Y10243D01*
X299403Y9843D01*
X299003Y9443D01*
Y9042D01*
X299403Y9443D02*
X299603D01*
X299803Y9642D01*
X300003Y9443D01*
X300203D01*
Y9642D01*
X300003Y9843D01*
X300203Y10042D01*
Y10243D01*
X300003D01*
X299803Y10042D01*
X299603Y10243D01*
X299403D01*
Y10042D01*
X299603Y9843D01*
X299403Y9642D01*
Y9443D01*
X263177Y234141D02*
X263577D01*
X263977Y234541D01*
X264377Y234141D01*
X264777D01*
Y234541D01*
X264377Y234941D01*
X264777Y235341D01*
Y235741D01*
X264377D01*
X263977Y235341D01*
X263577Y235741D01*
X263177D01*
Y235341D01*
X263577Y234941D01*
X263177Y234541D01*
Y234141D01*
X263577Y234541D02*
X263777D01*
X263977Y234741D01*
X264177Y234541D01*
X264377D01*
Y234741D01*
X264177Y234941D01*
X264377Y235141D01*
Y235341D01*
X264177D01*
X263977Y235141D01*
X263777Y235341D01*
X263577D01*
Y235141D01*
X263777Y234941D01*
X263577Y234741D01*
Y234541D01*
X228824Y247412D02*
X229224D01*
X229624Y247812D01*
X230024Y247412D01*
X230424D01*
Y247812D01*
X230024Y248212D01*
X230424Y248612D01*
Y249012D01*
X230024D01*
X229624Y248612D01*
X229224Y249012D01*
X228824D01*
Y248612D01*
X229224Y248212D01*
X228824Y247812D01*
Y247412D01*
X229224Y247812D02*
X229424D01*
X229624Y248012D01*
X229824Y247812D01*
X230024D01*
Y248012D01*
X229824Y248212D01*
X230024Y248412D01*
Y248612D01*
X229824D01*
X229624Y248412D01*
X229424Y248612D01*
X229224D01*
Y248412D01*
X229424Y248212D01*
X229224Y248012D01*
Y247812D01*
X114161Y68491D02*
X114561D01*
X114961Y68891D01*
X115361Y68491D01*
X115761D01*
Y68891D01*
X115361Y69291D01*
X115761Y69691D01*
Y70091D01*
X115361D01*
X114961Y69691D01*
X114561Y70091D01*
X114161D01*
Y69691D01*
X114561Y69291D01*
X114161Y68891D01*
Y68491D01*
X114561Y68891D02*
X114761D01*
X114961Y69091D01*
X115161Y68891D01*
X115361D01*
Y69091D01*
X115161Y69291D01*
X115361Y69491D01*
Y69691D01*
X115161D01*
X114961Y69491D01*
X114761Y69691D01*
X114561D01*
Y69491D01*
X114761Y69291D01*
X114561Y69091D01*
Y68891D01*
X219476Y152350D02*
X219876D01*
X220276Y152750D01*
X220676Y152350D01*
X221076D01*
Y152750D01*
X220676Y153150D01*
X221076Y153550D01*
Y153950D01*
X220676D01*
X220276Y153550D01*
X219876Y153950D01*
X219476D01*
Y153550D01*
X219876Y153150D01*
X219476Y152750D01*
Y152350D01*
X219876Y152750D02*
X220076D01*
X220276Y152950D01*
X220476Y152750D01*
X220676D01*
Y152950D01*
X220476Y153150D01*
X220676Y153350D01*
Y153550D01*
X220476D01*
X220276Y153350D01*
X220076Y153550D01*
X219876D01*
Y153350D01*
X220076Y153150D01*
X219876Y152950D01*
Y152750D01*
X204515Y149791D02*
X204915D01*
X205315Y150191D01*
X205715Y149791D01*
X206115D01*
Y150191D01*
X205715Y150591D01*
X206115Y150991D01*
Y151391D01*
X205715D01*
X205315Y150991D01*
X204915Y151391D01*
X204515D01*
Y150991D01*
X204915Y150591D01*
X204515Y150191D01*
Y149791D01*
X204915Y150191D02*
X205115D01*
X205315Y150391D01*
X205515Y150191D01*
X205715D01*
Y150391D01*
X205515Y150591D01*
X205715Y150791D01*
Y150991D01*
X205515D01*
X205315Y150791D01*
X205115Y150991D01*
X204915D01*
Y150791D01*
X205115Y150591D01*
X204915Y150391D01*
Y150191D01*
X204121Y158452D02*
X204521D01*
X204921Y158852D01*
X205321Y158452D01*
X205721D01*
Y158852D01*
X205321Y159252D01*
X205721Y159652D01*
Y160052D01*
X205321D01*
X204921Y159652D01*
X204521Y160052D01*
X204121D01*
Y159652D01*
X204521Y159252D01*
X204121Y158852D01*
Y158452D01*
X204521Y158852D02*
X204721D01*
X204921Y159052D01*
X205121Y158852D01*
X205321D01*
Y159052D01*
X205121Y159252D01*
X205321Y159452D01*
Y159652D01*
X205121D01*
X204921Y159452D01*
X204721Y159652D01*
X204521D01*
Y159452D01*
X204721Y159252D01*
X204521Y159052D01*
Y158852D01*
X165342Y160814D02*
X165742D01*
X166142Y161214D01*
X166542Y160814D01*
X166942D01*
Y161214D01*
X166542Y161614D01*
X166942Y162014D01*
Y162414D01*
X166542D01*
X166142Y162014D01*
X165742Y162414D01*
X165342D01*
Y162014D01*
X165742Y161614D01*
X165342Y161214D01*
Y160814D01*
X165742Y161214D02*
X165942D01*
X166142Y161414D01*
X166342Y161214D01*
X166542D01*
Y161414D01*
X166342Y161614D01*
X166542Y161814D01*
Y162014D01*
X166342D01*
X166142Y161814D01*
X165942Y162014D01*
X165742D01*
Y161814D01*
X165942Y161614D01*
X165742Y161414D01*
Y161214D01*
X178334Y171050D02*
X178734D01*
X179134Y171450D01*
X179534Y171050D01*
X179934D01*
Y171450D01*
X179534Y171850D01*
X179934Y172250D01*
Y172650D01*
X179534D01*
X179134Y172250D01*
X178734Y172650D01*
X178334D01*
Y172250D01*
X178734Y171850D01*
X178334Y171450D01*
Y171050D01*
X178734Y171450D02*
X178934D01*
X179134Y171650D01*
X179334Y171450D01*
X179534D01*
Y171650D01*
X179334Y171850D01*
X179534Y172050D01*
Y172250D01*
X179334D01*
X179134Y172050D01*
X178934Y172250D01*
X178734D01*
Y172050D01*
X178934Y171850D01*
X178734Y171650D01*
Y171450D01*
X44672Y144869D02*
X45072D01*
X45472Y145269D01*
X45872Y144869D01*
X46272D01*
Y145269D01*
X45872Y145669D01*
X46272Y146069D01*
Y146469D01*
X45872D01*
X45472Y146069D01*
X45072Y146469D01*
X44672D01*
Y146069D01*
X45072Y145669D01*
X44672Y145269D01*
Y144869D01*
X45072Y145269D02*
X45272D01*
X45472Y145469D01*
X45672Y145269D01*
X45872D01*
Y145469D01*
X45672Y145669D01*
X45872Y145869D01*
Y146069D01*
X45672D01*
X45472Y145869D01*
X45272Y146069D01*
X45072D01*
Y145869D01*
X45272Y145669D01*
X45072Y145469D01*
Y145269D01*
X69476Y150184D02*
X69876D01*
X70276Y150584D01*
X70676Y150184D01*
X71076D01*
Y150584D01*
X70676Y150984D01*
X71076Y151384D01*
Y151784D01*
X70676D01*
X70276Y151384D01*
X69876Y151784D01*
X69476D01*
Y151384D01*
X69876Y150984D01*
X69476Y150584D01*
Y150184D01*
X69876Y150584D02*
X70076D01*
X70276Y150784D01*
X70476Y150584D01*
X70676D01*
Y150784D01*
X70476Y150984D01*
X70676Y151184D01*
Y151384D01*
X70476D01*
X70276Y151184D01*
X70076Y151384D01*
X69876D01*
Y151184D01*
X70076Y150984D01*
X69876Y150784D01*
Y150584D01*
X80106Y148413D02*
X80506D01*
X80905Y148813D01*
X81305Y148413D01*
X81705D01*
Y148813D01*
X81305Y149213D01*
X81705Y149613D01*
Y150013D01*
X81305D01*
X80905Y149613D01*
X80506Y150013D01*
X80106D01*
Y149613D01*
X80506Y149213D01*
X80106Y148813D01*
Y148413D01*
X80506Y148813D02*
X80705D01*
X80905Y149013D01*
X81106Y148813D01*
X81305D01*
Y149013D01*
X81106Y149213D01*
X81305Y149413D01*
Y149613D01*
X81106D01*
X80905Y149413D01*
X80705Y149613D01*
X80506D01*
Y149413D01*
X80705Y149213D01*
X80506Y149013D01*
Y148813D01*
X81877Y172428D02*
X82277D01*
X82677Y172828D01*
X83077Y172428D01*
X83477D01*
Y172828D01*
X83077Y173228D01*
X83477Y173628D01*
Y174028D01*
X83077D01*
X82677Y173628D01*
X82277Y174028D01*
X81877D01*
Y173628D01*
X82277Y173228D01*
X81877Y172828D01*
Y172428D01*
X82277Y172828D02*
X82477D01*
X82677Y173028D01*
X82877Y172828D01*
X83077D01*
Y173028D01*
X82877Y173228D01*
X83077Y173428D01*
Y173628D01*
X82877D01*
X82677Y173428D01*
X82477Y173628D01*
X82277D01*
Y173428D01*
X82477Y173228D01*
X82277Y173028D01*
Y172828D01*
X117113Y173609D02*
X117513D01*
X117913Y174009D01*
X118313Y173609D01*
X118713D01*
Y174009D01*
X118313Y174409D01*
X118713Y174809D01*
Y175209D01*
X118313D01*
X117913Y174809D01*
X117513Y175209D01*
X117113D01*
Y174809D01*
X117513Y174409D01*
X117113Y174009D01*
Y173609D01*
X117513Y174009D02*
X117713D01*
X117913Y174209D01*
X118113Y174009D01*
X118313D01*
Y174209D01*
X118113Y174409D01*
X118313Y174609D01*
Y174809D01*
X118113D01*
X117913Y174609D01*
X117713Y174809D01*
X117513D01*
Y174609D01*
X117713Y174409D01*
X117513Y174209D01*
Y174009D01*
X124200Y173806D02*
X124600D01*
X125000Y174206D01*
X125400Y173806D01*
X125800D01*
Y174206D01*
X125400Y174606D01*
X125800Y175006D01*
Y175406D01*
X125400D01*
X125000Y175006D01*
X124600Y175406D01*
X124200D01*
Y175006D01*
X124600Y174606D01*
X124200Y174206D01*
Y173806D01*
X124600Y174206D02*
X124800D01*
X125000Y174406D01*
X125200Y174206D01*
X125400D01*
Y174406D01*
X125200Y174606D01*
X125400Y174806D01*
Y175006D01*
X125200D01*
X125000Y174806D01*
X124800Y175006D01*
X124600D01*
Y174806D01*
X124800Y174606D01*
X124600Y174406D01*
Y174206D01*
X157665Y128728D02*
X158065D01*
X158465Y129128D01*
X158865Y128728D01*
X159265D01*
Y129128D01*
X158865Y129528D01*
X159265Y129928D01*
Y130328D01*
X158865D01*
X158465Y129928D01*
X158065Y130328D01*
X157665D01*
Y129928D01*
X158065Y129528D01*
X157665Y129128D01*
Y128728D01*
X158065Y129128D02*
X158265D01*
X158465Y129328D01*
X158665Y129128D01*
X158865D01*
Y129328D01*
X158665Y129528D01*
X158865Y129728D01*
Y129928D01*
X158665D01*
X158465Y129728D01*
X158265Y129928D01*
X158065D01*
Y129728D01*
X158265Y129528D01*
X158065Y129328D01*
Y129128D01*
X139161Y125775D02*
X139561D01*
X139961Y126175D01*
X140361Y125775D01*
X140761D01*
Y126175D01*
X140361Y126575D01*
X140761Y126975D01*
Y127375D01*
X140361D01*
X139961Y126975D01*
X139561Y127375D01*
X139161D01*
Y126975D01*
X139561Y126575D01*
X139161Y126175D01*
Y125775D01*
X139561Y126175D02*
X139761D01*
X139961Y126375D01*
X140161Y126175D01*
X140361D01*
Y126375D01*
X140161Y126575D01*
X140361Y126775D01*
Y126975D01*
X140161D01*
X139961Y126775D01*
X139761Y126975D01*
X139561D01*
Y126775D01*
X139761Y126575D01*
X139561Y126375D01*
Y126175D01*
X175972Y91129D02*
X176372D01*
X176772Y91529D01*
X177172Y91129D01*
X177572D01*
Y91529D01*
X177172Y91929D01*
X177572Y92329D01*
Y92729D01*
X177172D01*
X176772Y92329D01*
X176372Y92729D01*
X175972D01*
Y92329D01*
X176372Y91929D01*
X175972Y91529D01*
Y91129D01*
X176372Y91529D02*
X176572D01*
X176772Y91729D01*
X176972Y91529D01*
X177172D01*
Y91729D01*
X176972Y91929D01*
X177172Y92129D01*
Y92329D01*
X176972D01*
X176772Y92129D01*
X176572Y92329D01*
X176372D01*
Y92129D01*
X176572Y91929D01*
X176372Y91729D01*
Y91529D01*
X257074Y23609D02*
X257474D01*
X257874Y24010D01*
X258274Y23609D01*
X258674D01*
Y24010D01*
X258274Y24409D01*
X258674Y24810D01*
Y25210D01*
X258274D01*
X257874Y24810D01*
X257474Y25210D01*
X257074D01*
Y24810D01*
X257474Y24409D01*
X257074Y24010D01*
Y23609D01*
X257474Y24010D02*
X257674D01*
X257874Y24209D01*
X258074Y24010D01*
X258274D01*
Y24209D01*
X258074Y24409D01*
X258274Y24610D01*
Y24810D01*
X258074D01*
X257874Y24610D01*
X257674Y24810D01*
X257474D01*
Y24610D01*
X257674Y24409D01*
X257474Y24209D01*
Y24010D01*
X256877Y31287D02*
X257277D01*
X257677Y31687D01*
X258077Y31287D01*
X258477D01*
Y31687D01*
X258077Y32087D01*
X258477Y32487D01*
Y32887D01*
X258077D01*
X257677Y32487D01*
X257277Y32887D01*
X256877D01*
Y32487D01*
X257277Y32087D01*
X256877Y31687D01*
Y31287D01*
X257277Y31687D02*
X257477D01*
X257677Y31887D01*
X257877Y31687D01*
X258077D01*
Y31887D01*
X257877Y32087D01*
X258077Y32287D01*
Y32487D01*
X257877D01*
X257677Y32287D01*
X257477Y32487D01*
X257277D01*
Y32287D01*
X257477Y32087D01*
X257277Y31887D01*
Y31687D01*
X234830Y39161D02*
X235230D01*
X235630Y39561D01*
X236030Y39161D01*
X236430D01*
Y39561D01*
X236030Y39961D01*
X236430Y40361D01*
Y40761D01*
X236030D01*
X235630Y40361D01*
X235230Y40761D01*
X234830D01*
Y40361D01*
X235230Y39961D01*
X234830Y39561D01*
Y39161D01*
X235230Y39561D02*
X235430D01*
X235630Y39761D01*
X235830Y39561D01*
X236030D01*
Y39761D01*
X235830Y39961D01*
X236030Y40161D01*
Y40361D01*
X235830D01*
X235630Y40161D01*
X235430Y40361D01*
X235230D01*
Y40161D01*
X235430Y39961D01*
X235230Y39761D01*
Y39561D01*
X245263Y75775D02*
X245663D01*
X246063Y76175D01*
X246463Y75775D01*
X246863D01*
Y76175D01*
X246463Y76575D01*
X246863Y76975D01*
Y77375D01*
X246463D01*
X246063Y76975D01*
X245663Y77375D01*
X245263D01*
Y76975D01*
X245663Y76575D01*
X245263Y76175D01*
Y75775D01*
X245663Y76175D02*
X245863D01*
X246063Y76375D01*
X246263Y76175D01*
X246463D01*
Y76375D01*
X246263Y76575D01*
X246463Y76775D01*
Y76975D01*
X246263D01*
X246063Y76775D01*
X245863Y76975D01*
X245663D01*
Y76775D01*
X245863Y76575D01*
X245663Y76375D01*
Y76175D01*
X267704Y79318D02*
X268104D01*
X268504Y79718D01*
X268904Y79318D01*
X269304D01*
Y79718D01*
X268904Y80118D01*
X269304Y80518D01*
Y80918D01*
X268904D01*
X268504Y80518D01*
X268104Y80918D01*
X267704D01*
Y80518D01*
X268104Y80118D01*
X267704Y79718D01*
Y79318D01*
X268104Y79718D02*
X268304D01*
X268504Y79918D01*
X268704Y79718D01*
X268904D01*
Y79918D01*
X268704Y80118D01*
X268904Y80318D01*
Y80518D01*
X268704D01*
X268504Y80318D01*
X268304Y80518D01*
X268104D01*
Y80318D01*
X268304Y80118D01*
X268104Y79918D01*
Y79718D01*
X267704Y89948D02*
X268104D01*
X268504Y90348D01*
X268904Y89948D01*
X269304D01*
Y90348D01*
X268904Y90748D01*
X269304Y91148D01*
Y91548D01*
X268904D01*
X268504Y91148D01*
X268104Y91548D01*
X267704D01*
Y91148D01*
X268104Y90748D01*
X267704Y90348D01*
Y89948D01*
X268104Y90348D02*
X268304D01*
X268504Y90548D01*
X268704Y90348D01*
X268904D01*
Y90548D01*
X268704Y90748D01*
X268904Y90948D01*
Y91148D01*
X268704D01*
X268504Y90948D01*
X268304Y91148D01*
X268104D01*
Y90948D01*
X268304Y90748D01*
X268104Y90548D01*
Y90348D01*
X212389Y83846D02*
X212789D01*
X213189Y84246D01*
X213589Y83846D01*
X213989D01*
Y84246D01*
X213589Y84646D01*
X213989Y85046D01*
Y85446D01*
X213589D01*
X213189Y85046D01*
X212789Y85446D01*
X212389D01*
Y85046D01*
X212789Y84646D01*
X212389Y84246D01*
Y83846D01*
X212789Y84246D02*
X212989D01*
X213189Y84446D01*
X213389Y84246D01*
X213589D01*
Y84446D01*
X213389Y84646D01*
X213589Y84846D01*
Y85046D01*
X213389D01*
X213189Y84846D01*
X212989Y85046D01*
X212789D01*
Y84846D01*
X212989Y84646D01*
X212789Y84446D01*
Y84246D01*
X172625Y114554D02*
X173025D01*
X173425Y114954D01*
X173825Y114554D01*
X174225D01*
Y114954D01*
X173825Y115354D01*
X174225Y115754D01*
Y116154D01*
X173825D01*
X173425Y115754D01*
X173025Y116154D01*
X172625D01*
Y115754D01*
X173025Y115354D01*
X172625Y114954D01*
Y114554D01*
X173025Y114954D02*
X173225D01*
X173425Y115154D01*
X173625Y114954D01*
X173825D01*
Y115154D01*
X173625Y115354D01*
X173825Y115554D01*
Y115754D01*
X173625D01*
X173425Y115554D01*
X173225Y115754D01*
X173025D01*
Y115554D01*
X173225Y115354D01*
X173025Y115154D01*
Y114954D01*
X185814Y125578D02*
X186214D01*
X186614Y125978D01*
X187014Y125578D01*
X187414D01*
Y125978D01*
X187014Y126378D01*
X187414Y126778D01*
Y127178D01*
X187014D01*
X186614Y126778D01*
X186214Y127178D01*
X185814D01*
Y126778D01*
X186214Y126378D01*
X185814Y125978D01*
Y125578D01*
X186214Y125978D02*
X186414D01*
X186614Y126178D01*
X186814Y125978D01*
X187014D01*
Y126178D01*
X186814Y126378D01*
X187014Y126578D01*
Y126778D01*
X186814D01*
X186614Y126578D01*
X186414Y126778D01*
X186214D01*
Y126578D01*
X186414Y126378D01*
X186214Y126178D01*
Y125978D01*
X219672Y145460D02*
X220072D01*
X220472Y145860D01*
X220872Y145460D01*
X221272D01*
Y145860D01*
X220872Y146260D01*
X221272Y146660D01*
Y147060D01*
X220872D01*
X220472Y146660D01*
X220072Y147060D01*
X219672D01*
Y146660D01*
X220072Y146260D01*
X219672Y145860D01*
Y145460D01*
X220072Y145860D02*
X220272D01*
X220472Y146060D01*
X220672Y145860D01*
X220872D01*
Y146060D01*
X220672Y146260D01*
X220872Y146460D01*
Y146660D01*
X220672D01*
X220472Y146460D01*
X220272Y146660D01*
X220072D01*
Y146460D01*
X220272Y146260D01*
X220072Y146060D01*
Y145860D01*
X241720Y129515D02*
X242120D01*
X242520Y129915D01*
X242920Y129515D01*
X243320D01*
Y129915D01*
X242920Y130315D01*
X243320Y130715D01*
Y131115D01*
X242920D01*
X242520Y130715D01*
X242120Y131115D01*
X241720D01*
Y130715D01*
X242120Y130315D01*
X241720Y129915D01*
Y129515D01*
X242120Y129915D02*
X242320D01*
X242520Y130115D01*
X242720Y129915D01*
X242920D01*
Y130115D01*
X242720Y130315D01*
X242920Y130515D01*
Y130715D01*
X242720D01*
X242520Y130515D01*
X242320Y130715D01*
X242120D01*
Y130515D01*
X242320Y130315D01*
X242120Y130115D01*
Y129915D01*
X241916Y171444D02*
X242317D01*
X242717Y171844D01*
X243116Y171444D01*
X243516D01*
Y171844D01*
X243116Y172244D01*
X243516Y172644D01*
Y173044D01*
X243116D01*
X242717Y172644D01*
X242317Y173044D01*
X241916D01*
Y172644D01*
X242317Y172244D01*
X241916Y171844D01*
Y171444D01*
X242317Y171844D02*
X242516D01*
X242717Y172044D01*
X242916Y171844D01*
X243116D01*
Y172044D01*
X242916Y172244D01*
X243116Y172444D01*
Y172644D01*
X242916D01*
X242717Y172444D01*
X242516Y172644D01*
X242317D01*
Y172444D01*
X242516Y172244D01*
X242317Y172044D01*
Y171844D01*
X264751Y196641D02*
X265151D01*
X265551Y197041D01*
X265951Y196641D01*
X266351D01*
Y197041D01*
X265951Y197441D01*
X266351Y197841D01*
Y198241D01*
X265951D01*
X265551Y197841D01*
X265151Y198241D01*
X264751D01*
Y197841D01*
X265151Y197441D01*
X264751Y197041D01*
Y196641D01*
X265151Y197041D02*
X265351D01*
X265551Y197241D01*
X265751Y197041D01*
X265951D01*
Y197241D01*
X265751Y197441D01*
X265951Y197641D01*
Y197841D01*
X265751D01*
X265551Y197641D01*
X265351Y197841D01*
X265151D01*
Y197641D01*
X265351Y197441D01*
X265151Y197241D01*
Y197041D01*
X264357Y212783D02*
X264757D01*
X265158Y213183D01*
X265558Y212783D01*
X265957D01*
Y213183D01*
X265558Y213583D01*
X265957Y213983D01*
Y214383D01*
X265558D01*
X265158Y213983D01*
X264757Y214383D01*
X264357D01*
Y213983D01*
X264757Y213583D01*
X264357Y213183D01*
Y212783D01*
X264757Y213183D02*
X264957D01*
X265158Y213383D01*
X265357Y213183D01*
X265558D01*
Y213383D01*
X265357Y213583D01*
X265558Y213783D01*
Y213983D01*
X265357D01*
X265158Y213783D01*
X264957Y213983D01*
X264757D01*
Y213783D01*
X264957Y213583D01*
X264757Y213383D01*
Y213183D01*
X184436Y171050D02*
X184836D01*
X185236Y171450D01*
X185636Y171050D01*
X186036D01*
Y171450D01*
X185636Y171850D01*
X186036Y172250D01*
Y172650D01*
X185636D01*
X185236Y172250D01*
X184836Y172650D01*
X184436D01*
Y172250D01*
X184836Y171850D01*
X184436Y171450D01*
Y171050D01*
X184836Y171450D02*
X185036D01*
X185236Y171650D01*
X185436Y171450D01*
X185636D01*
Y171650D01*
X185436Y171850D01*
X185636Y172050D01*
Y172250D01*
X185436D01*
X185236Y172050D01*
X185036Y172250D01*
X184836D01*
Y172050D01*
X185036Y171850D01*
X184836Y171650D01*
Y171450D01*
X208846Y199003D02*
X209246D01*
X209646Y199403D01*
X210046Y199003D01*
X210446D01*
Y199403D01*
X210046Y199803D01*
X210446Y200203D01*
Y200603D01*
X210046D01*
X209646Y200203D01*
X209246Y200603D01*
X208846D01*
Y200203D01*
X209246Y199803D01*
X208846Y199403D01*
Y199003D01*
X209246Y199403D02*
X209446D01*
X209646Y199603D01*
X209846Y199403D01*
X210046D01*
Y199603D01*
X209846Y199803D01*
X210046Y200003D01*
Y200203D01*
X209846D01*
X209646Y200003D01*
X209446Y200203D01*
X209246D01*
Y200003D01*
X209446Y199803D01*
X209246Y199603D01*
Y199403D01*
X175381Y193098D02*
X175781D01*
X176181Y193498D01*
X176581Y193098D01*
X176981D01*
Y193498D01*
X176581Y193898D01*
X176981Y194298D01*
Y194698D01*
X176581D01*
X176181Y194298D01*
X175781Y194698D01*
X175381D01*
Y194298D01*
X175781Y193898D01*
X175381Y193498D01*
Y193098D01*
X175781Y193498D02*
X175981D01*
X176181Y193698D01*
X176381Y193498D01*
X176581D01*
Y193698D01*
X176381Y193898D01*
X176581Y194098D01*
Y194298D01*
X176381D01*
X176181Y194098D01*
X175981Y194298D01*
X175781D01*
Y194098D01*
X175981Y193898D01*
X175781Y193698D01*
Y193498D01*
X189161Y193098D02*
X189561D01*
X189961Y193498D01*
X190361Y193098D01*
X190761D01*
Y193498D01*
X190361Y193898D01*
X190761Y194298D01*
Y194698D01*
X190361D01*
X189961Y194298D01*
X189561Y194698D01*
X189161D01*
Y194298D01*
X189561Y193898D01*
X189161Y193498D01*
Y193098D01*
X189561Y193498D02*
X189761D01*
X189961Y193698D01*
X190161Y193498D01*
X190361D01*
Y193698D01*
X190161Y193898D01*
X190361Y194098D01*
Y194298D01*
X190161D01*
X189961Y194098D01*
X189761Y194298D01*
X189561D01*
Y194098D01*
X189761Y193898D01*
X189561Y193698D01*
Y193498D01*
X197625Y209436D02*
X198025D01*
X198425Y209836D01*
X198825Y209436D01*
X199225D01*
Y209836D01*
X198825Y210236D01*
X199225Y210636D01*
Y211036D01*
X198825D01*
X198425Y210636D01*
X198025Y211036D01*
X197625D01*
Y210636D01*
X198025Y210236D01*
X197625Y209836D01*
Y209436D01*
X198025Y209836D02*
X198225D01*
X198425Y210036D01*
X198625Y209836D01*
X198825D01*
Y210036D01*
X198625Y210236D01*
X198825Y210436D01*
Y210636D01*
X198625D01*
X198425Y210436D01*
X198225Y210636D01*
X198025D01*
Y210436D01*
X198225Y210236D01*
X198025Y210036D01*
Y209836D01*
X197625Y219279D02*
X198025D01*
X198425Y219679D01*
X198825Y219279D01*
X199225D01*
Y219679D01*
X198825Y220079D01*
X199225Y220479D01*
Y220879D01*
X198825D01*
X198425Y220479D01*
X198025Y220879D01*
X197625D01*
Y220479D01*
X198025Y220079D01*
X197625Y219679D01*
Y219279D01*
X198025Y219679D02*
X198225D01*
X198425Y219879D01*
X198625Y219679D01*
X198825D01*
Y219879D01*
X198625Y220079D01*
X198825Y220279D01*
Y220479D01*
X198625D01*
X198425Y220279D01*
X198225Y220479D01*
X198025D01*
Y220279D01*
X198225Y220079D01*
X198025Y219879D01*
Y219679D01*
X183846Y219279D02*
X184246D01*
X184646Y219679D01*
X185046Y219279D01*
X185446D01*
Y219679D01*
X185046Y220079D01*
X185446Y220479D01*
Y220879D01*
X185046D01*
X184646Y220479D01*
X184246Y220879D01*
X183846D01*
Y220479D01*
X184246Y220079D01*
X183846Y219679D01*
Y219279D01*
X184246Y219679D02*
X184446D01*
X184646Y219879D01*
X184846Y219679D01*
X185046D01*
Y219879D01*
X184846Y220079D01*
X185046Y220279D01*
Y220479D01*
X184846D01*
X184646Y220279D01*
X184446Y220479D01*
X184246D01*
Y220279D01*
X184446Y220079D01*
X184246Y219879D01*
Y219679D01*
X246407Y220422D02*
X246807D01*
X247207Y220822D01*
X247607Y220422D01*
X248007D01*
Y220822D01*
X247607Y221222D01*
X248007Y221622D01*
Y222022D01*
X247607D01*
X247207Y221622D01*
X246807Y222022D01*
X246407D01*
Y221622D01*
X246807Y221222D01*
X246407Y220822D01*
Y220422D01*
X246807Y220822D02*
X247007D01*
X247207Y221022D01*
X247407Y220822D01*
X247607D01*
Y221022D01*
X247407Y221222D01*
X247607Y221422D01*
Y221622D01*
X247407D01*
X247207Y221422D01*
X247007Y221622D01*
X246807D01*
Y221422D01*
X247007Y221222D01*
X246807Y221022D01*
Y220822D01*
X241326Y219672D02*
X241726D01*
X242126Y220072D01*
X242526Y219672D01*
X242926D01*
Y220072D01*
X242526Y220472D01*
X242926Y220872D01*
Y221272D01*
X242526D01*
X242126Y220872D01*
X241726Y221272D01*
X241326D01*
Y220872D01*
X241726Y220472D01*
X241326Y220072D01*
Y219672D01*
X241726Y220072D02*
X241926D01*
X242126Y220272D01*
X242326Y220072D01*
X242526D01*
Y220272D01*
X242326Y220472D01*
X242526Y220672D01*
Y220872D01*
X242326D01*
X242126Y220672D01*
X241926Y220872D01*
X241726D01*
Y220672D01*
X241926Y220472D01*
X241726Y220272D01*
Y220072D01*
X226759Y252743D02*
X227159D01*
X227559Y253143D01*
X227959Y252743D01*
X228359D01*
Y253143D01*
X227959Y253543D01*
X228359Y253943D01*
Y254343D01*
X227959D01*
X227559Y253943D01*
X227159Y254343D01*
X226759D01*
Y253943D01*
X227159Y253543D01*
X226759Y253143D01*
Y252743D01*
X227159Y253143D02*
X227359D01*
X227559Y253343D01*
X227759Y253143D01*
X227959D01*
Y253343D01*
X227759Y253543D01*
X227959Y253743D01*
Y253943D01*
X227759D01*
X227559Y253743D01*
X227359Y253943D01*
X227159D01*
Y253743D01*
X227359Y253543D01*
X227159Y253343D01*
Y253143D01*
X156287Y171050D02*
X156687D01*
X157087Y171450D01*
X157487Y171050D01*
X157887D01*
Y171450D01*
X157487Y171850D01*
X157887Y172250D01*
Y172650D01*
X157487D01*
X157087Y172250D01*
X156687Y172650D01*
X156287D01*
Y172250D01*
X156687Y171850D01*
X156287Y171450D01*
Y171050D01*
X156687Y171450D02*
X156887D01*
X157087Y171650D01*
X157287Y171450D01*
X157487D01*
Y171650D01*
X157287Y171850D01*
X157487Y172050D01*
Y172250D01*
X157287D01*
X157087Y172050D01*
X156887Y172250D01*
X156687D01*
Y172050D01*
X156887Y171850D01*
X156687Y171650D01*
Y171450D01*
X148216Y154909D02*
X148616D01*
X149016Y155309D01*
X149416Y154909D01*
X149816D01*
Y155309D01*
X149416Y155709D01*
X149816Y156109D01*
Y156509D01*
X149416D01*
X149016Y156109D01*
X148616Y156509D01*
X148216D01*
Y156109D01*
X148616Y155709D01*
X148216Y155309D01*
Y154909D01*
X148616Y155309D02*
X148816D01*
X149016Y155509D01*
X149216Y155309D01*
X149416D01*
Y155509D01*
X149216Y155709D01*
X149416Y155909D01*
Y156109D01*
X149216D01*
X149016Y155909D01*
X148816Y156109D01*
X148616D01*
Y155909D01*
X148816Y155709D01*
X148616Y155509D01*
Y155309D01*
X150381Y159239D02*
X150781D01*
X151181Y159639D01*
X151581Y159239D01*
X151981D01*
Y159639D01*
X151581Y160039D01*
X151981Y160439D01*
Y160839D01*
X151581D01*
X151181Y160439D01*
X150781Y160839D01*
X150381D01*
Y160439D01*
X150781Y160039D01*
X150381Y159639D01*
Y159239D01*
X150781Y159639D02*
X150981D01*
X151181Y159839D01*
X151381Y159639D01*
X151581D01*
Y159839D01*
X151381Y160039D01*
X151581Y160239D01*
Y160439D01*
X151381D01*
X151181Y160239D01*
X150981Y160439D01*
X150781D01*
Y160239D01*
X150981Y160039D01*
X150781Y159839D01*
Y159639D01*
X150381Y165145D02*
X150781D01*
X151181Y165545D01*
X151581Y165145D01*
X151981D01*
Y165545D01*
X151581Y165945D01*
X151981Y166345D01*
Y166745D01*
X151581D01*
X151181Y166345D01*
X150781Y166745D01*
X150381D01*
Y166345D01*
X150781Y165945D01*
X150381Y165545D01*
Y165145D01*
X150781Y165545D02*
X150981D01*
X151181Y165745D01*
X151381Y165545D01*
X151581D01*
Y165745D01*
X151381Y165945D01*
X151581Y166145D01*
Y166345D01*
X151381D01*
X151181Y166145D01*
X150981Y166345D01*
X150781D01*
Y166145D01*
X150981Y165945D01*
X150781Y165745D01*
Y165545D01*
X156287Y165145D02*
X156687D01*
X157087Y165545D01*
X157487Y165145D01*
X157887D01*
Y165545D01*
X157487Y165945D01*
X157887Y166345D01*
Y166745D01*
X157487D01*
X157087Y166345D01*
X156687Y166745D01*
X156287D01*
Y166345D01*
X156687Y165945D01*
X156287Y165545D01*
Y165145D01*
X156687Y165545D02*
X156887D01*
X157087Y165745D01*
X157287Y165545D01*
X157487D01*
Y165745D01*
X157287Y165945D01*
X157487Y166145D01*
Y166345D01*
X157287D01*
X157087Y166145D01*
X156887Y166345D01*
X156687D01*
Y166145D01*
X156887Y165945D01*
X156687Y165745D01*
Y165545D01*
X266129Y96641D02*
X266529D01*
X266929Y97041D01*
X267329Y96641D01*
X267729D01*
Y97041D01*
X267329Y97441D01*
X267729Y97841D01*
Y98241D01*
X267329D01*
X266929Y97841D01*
X266529Y98241D01*
X266129D01*
Y97841D01*
X266529Y97441D01*
X266129Y97041D01*
Y96641D01*
X266529Y97041D02*
X266729D01*
X266929Y97241D01*
X267129Y97041D01*
X267329D01*
Y97241D01*
X267129Y97441D01*
X267329Y97641D01*
Y97841D01*
X267129D01*
X266929Y97641D01*
X266729Y97841D01*
X266529D01*
Y97641D01*
X266729Y97441D01*
X266529Y97241D01*
Y97041D01*
X235420Y168098D02*
X235820D01*
X236220Y168498D01*
X236620Y168098D01*
X237020D01*
Y168498D01*
X236620Y168898D01*
X237020Y169298D01*
Y169698D01*
X236620D01*
X236220Y169298D01*
X235820Y169698D01*
X235420D01*
Y169298D01*
X235820Y168898D01*
X235420Y168498D01*
Y168098D01*
X235820Y168498D02*
X236020D01*
X236220Y168698D01*
X236420Y168498D01*
X236620D01*
Y168698D01*
X236420Y168898D01*
X236620Y169098D01*
Y169298D01*
X236420D01*
X236220Y169098D01*
X236020Y169298D01*
X235820D01*
Y169098D01*
X236020Y168898D01*
X235820Y168698D01*
Y168498D01*
X181287Y138176D02*
X181687D01*
X182087Y138576D01*
X182487Y138176D01*
X182887D01*
Y138576D01*
X182487Y138976D01*
X182887Y139376D01*
Y139776D01*
X182487D01*
X182087Y139376D01*
X181687Y139776D01*
X181287D01*
Y139376D01*
X181687Y138976D01*
X181287Y138576D01*
Y138176D01*
X181687Y138576D02*
X181887D01*
X182087Y138776D01*
X182287Y138576D01*
X182487D01*
Y138776D01*
X182287Y138976D01*
X182487Y139176D01*
Y139376D01*
X182287D01*
X182087Y139176D01*
X181887Y139376D01*
X181687D01*
Y139176D01*
X181887Y138976D01*
X181687Y138776D01*
Y138576D01*
X219679Y45663D02*
Y45263D01*
X220479D01*
Y45663D01*
X220879D01*
Y46463D01*
X220479D01*
Y46863D01*
X219679D01*
Y46463D01*
X219279D01*
Y45663D01*
X219679D01*
X219879Y45863D02*
Y45663D01*
X220279D01*
Y45863D01*
X220479D01*
Y46263D01*
X220279D01*
Y46463D01*
X219879D01*
Y46263D01*
X219679D01*
Y45863D01*
X219879D01*
X219876Y28340D02*
Y27940D01*
X220676D01*
Y28340D01*
X221076D01*
Y29140D01*
X220676D01*
Y29540D01*
X219876D01*
Y29140D01*
X219476D01*
Y28340D01*
X219876D01*
X220076Y28540D02*
Y28340D01*
X220476D01*
Y28540D01*
X220676D01*
Y28940D01*
X220476D01*
Y29140D01*
X220076D01*
Y28940D01*
X219876D01*
Y28540D01*
X220076D01*
X24434Y34830D02*
X24834D01*
X25234Y35230D01*
X25634Y34830D01*
X26034D01*
Y35230D01*
X25634Y35630D01*
X26034Y36030D01*
Y36430D01*
X25634D01*
X25234Y36030D01*
X24834Y36430D01*
X24434D01*
Y36030D01*
X24834Y35630D01*
X24434Y35230D01*
Y34830D01*
X24834Y35230D02*
X25034D01*
X25234Y35430D01*
X25434Y35230D01*
X25634D01*
Y35430D01*
X25434Y35630D01*
X25634Y35830D01*
Y36030D01*
X25434D01*
X25234Y35830D01*
X25034Y36030D01*
X24834D01*
Y35830D01*
X25034Y35630D01*
X24834Y35430D01*
Y35230D01*
X24434Y24987D02*
X24834D01*
X25234Y25387D01*
X25634Y24987D01*
X26034D01*
Y25387D01*
X25634Y25787D01*
X26034Y26187D01*
Y26587D01*
X25634D01*
X25234Y26187D01*
X24834Y26587D01*
X24434D01*
Y26187D01*
X24834Y25787D01*
X24434Y25387D01*
Y24987D01*
X24834Y25387D02*
X25034D01*
X25234Y25587D01*
X25434Y25387D01*
X25634D01*
Y25587D01*
X25434Y25787D01*
X25634Y25987D01*
Y26187D01*
X25434D01*
X25234Y25987D01*
X25034Y26187D01*
X24834D01*
Y25987D01*
X25034Y25787D01*
X24834Y25587D01*
Y25387D01*
X24434Y16326D02*
X24834D01*
X25234Y16726D01*
X25634Y16326D01*
X26034D01*
Y16726D01*
X25634Y17126D01*
X26034Y17526D01*
Y17926D01*
X25634D01*
X25234Y17526D01*
X24834Y17926D01*
X24434D01*
Y17526D01*
X24834Y17126D01*
X24434Y16726D01*
Y16326D01*
X24834Y16726D02*
X25034D01*
X25234Y16926D01*
X25434Y16726D01*
X25634D01*
Y16926D01*
X25434Y17126D01*
X25634Y17326D01*
Y17526D01*
X25434D01*
X25234Y17326D01*
X25034Y17526D01*
X24834D01*
Y17326D01*
X25034Y17126D01*
X24834Y16926D01*
Y16726D01*
X24434Y7665D02*
X24834D01*
X25234Y8065D01*
X25634Y7665D01*
X26034D01*
Y8065D01*
X25634Y8465D01*
X26034Y8865D01*
Y9265D01*
X25634D01*
X25234Y8865D01*
X24834Y9265D01*
X24434D01*
Y8865D01*
X24834Y8465D01*
X24434Y8065D01*
Y7665D01*
X24834Y8065D02*
X25034D01*
X25234Y8265D01*
X25434Y8065D01*
X25634D01*
Y8265D01*
X25434Y8465D01*
X25634Y8665D01*
Y8865D01*
X25434D01*
X25234Y8665D01*
X25034Y8865D01*
X24834D01*
Y8665D01*
X25034Y8465D01*
X24834Y8265D01*
Y8065D01*
X62586Y18688D02*
X62986D01*
X63386Y19088D01*
X63786Y18688D01*
X64186D01*
Y19088D01*
X63786Y19488D01*
X64186Y19888D01*
Y20288D01*
X63786D01*
X63386Y19888D01*
X62986Y20288D01*
X62586D01*
Y19888D01*
X62986Y19488D01*
X62586Y19088D01*
Y18688D01*
X62986Y19088D02*
X63186D01*
X63386Y19288D01*
X63586Y19088D01*
X63786D01*
Y19288D01*
X63586Y19488D01*
X63786Y19688D01*
Y19888D01*
X63586D01*
X63386Y19688D01*
X63186Y19888D01*
X62986D01*
Y19688D01*
X63186Y19488D01*
X62986Y19288D01*
Y19088D01*
X51169Y125381D02*
X51569D01*
X51968Y125781D01*
X52368Y125381D01*
X52768D01*
Y125781D01*
X52368Y126181D01*
X52768Y126581D01*
Y126981D01*
X52368D01*
X51968Y126581D01*
X51569Y126981D01*
X51169D01*
Y126581D01*
X51569Y126181D01*
X51169Y125781D01*
Y125381D01*
X51569Y125781D02*
X51768D01*
X51968Y125981D01*
X52169Y125781D01*
X52368D01*
Y125981D01*
X52169Y126181D01*
X52368Y126381D01*
Y126581D01*
X52169D01*
X51968Y126381D01*
X51768Y126581D01*
X51569D01*
Y126381D01*
X51768Y126181D01*
X51569Y125981D01*
Y125781D01*
X40932Y106877D02*
X41332D01*
X41732Y107277D01*
X42132Y106877D01*
X42532D01*
Y107277D01*
X42132Y107677D01*
X42532Y108077D01*
Y108477D01*
X42132D01*
X41732Y108077D01*
X41332Y108477D01*
X40932D01*
Y108077D01*
X41332Y107677D01*
X40932Y107277D01*
Y106877D01*
X41332Y107277D02*
X41532D01*
X41732Y107477D01*
X41932Y107277D01*
X42132D01*
Y107477D01*
X41932Y107677D01*
X42132Y107877D01*
Y108077D01*
X41932D01*
X41732Y107877D01*
X41532Y108077D01*
X41332D01*
Y107877D01*
X41532Y107677D01*
X41332Y107477D01*
Y107277D01*
X44672Y103334D02*
X45072D01*
X45472Y103734D01*
X45872Y103334D01*
X46272D01*
Y103734D01*
X45872Y104134D01*
X46272Y104534D01*
Y104934D01*
X45872D01*
X45472Y104534D01*
X45072Y104934D01*
X44672D01*
Y104534D01*
X45072Y104134D01*
X44672Y103734D01*
Y103334D01*
X45072Y103734D02*
X45272D01*
X45472Y103934D01*
X45672Y103734D01*
X45872D01*
Y103934D01*
X45672Y104134D01*
X45872Y104334D01*
Y104534D01*
X45672D01*
X45472Y104334D01*
X45272Y104534D01*
X45072D01*
Y104334D01*
X45272Y104134D01*
X45072Y103934D01*
Y103734D01*
X191129Y129909D02*
X191529D01*
X191929Y130309D01*
X192329Y129909D01*
X192729D01*
Y130309D01*
X192329Y130709D01*
X192729Y131109D01*
Y131509D01*
X192329D01*
X191929Y131109D01*
X191529Y131509D01*
X191129D01*
Y131109D01*
X191529Y130709D01*
X191129Y130309D01*
Y129909D01*
X191529Y130309D02*
X191729D01*
X191929Y130509D01*
X192129Y130309D01*
X192329D01*
Y130509D01*
X192129Y130709D01*
X192329Y130909D01*
Y131109D01*
X192129D01*
X191929Y130909D01*
X191729Y131109D01*
X191529D01*
Y130909D01*
X191729Y130709D01*
X191529Y130509D01*
Y130309D01*
X190932Y133846D02*
X191332D01*
X191732Y134246D01*
X192132Y133846D01*
X192532D01*
Y134246D01*
X192132Y134646D01*
X192532Y135046D01*
Y135446D01*
X192132D01*
X191732Y135046D01*
X191332Y135446D01*
X190932D01*
Y135046D01*
X191332Y134646D01*
X190932Y134246D01*
Y133846D01*
X191332Y134246D02*
X191532D01*
X191732Y134446D01*
X191932Y134246D01*
X192132D01*
Y134446D01*
X191932Y134646D01*
X192132Y134846D01*
Y135046D01*
X191932D01*
X191732Y134846D01*
X191532Y135046D01*
X191332D01*
Y134846D01*
X191532Y134646D01*
X191332Y134446D01*
Y134246D01*
X63176Y139357D02*
X63576D01*
X63976Y139758D01*
X64376Y139357D01*
X64776D01*
Y139758D01*
X64376Y140157D01*
X64776Y140558D01*
Y140957D01*
X64376D01*
X63976Y140558D01*
X63576Y140957D01*
X63176D01*
Y140558D01*
X63576Y140157D01*
X63176Y139758D01*
Y139357D01*
X63576Y139758D02*
X63776D01*
X63976Y139957D01*
X64176Y139758D01*
X64376D01*
Y139957D01*
X64176Y140157D01*
X64376Y140357D01*
Y140558D01*
X64176D01*
X63976Y140357D01*
X63776Y140558D01*
X63576D01*
Y140357D01*
X63776Y140157D01*
X63576Y139957D01*
Y139758D01*
X69672Y128728D02*
X70072D01*
X70472Y129128D01*
X70872Y128728D01*
X71272D01*
Y129128D01*
X70872Y129528D01*
X71272Y129928D01*
Y130328D01*
X70872D01*
X70472Y129928D01*
X70072Y130328D01*
X69672D01*
Y129928D01*
X70072Y129528D01*
X69672Y129128D01*
Y128728D01*
X70072Y129128D02*
X70272D01*
X70472Y129328D01*
X70672Y129128D01*
X70872D01*
Y129328D01*
X70672Y129528D01*
X70872Y129728D01*
Y129928D01*
X70672D01*
X70472Y129728D01*
X70272Y129928D01*
X70072D01*
Y129728D01*
X70272Y129528D01*
X70072Y129328D01*
Y129128D01*
X73610Y128728D02*
X74010D01*
X74410Y129128D01*
X74809Y128728D01*
X75209D01*
Y129128D01*
X74809Y129528D01*
X75209Y129928D01*
Y130328D01*
X74809D01*
X74410Y129928D01*
X74010Y130328D01*
X73610D01*
Y129928D01*
X74010Y129528D01*
X73610Y129128D01*
Y128728D01*
X74010Y129128D02*
X74209D01*
X74410Y129328D01*
X74610Y129128D01*
X74809D01*
Y129328D01*
X74610Y129528D01*
X74809Y129728D01*
Y129928D01*
X74610D01*
X74410Y129728D01*
X74209Y129928D01*
X74010D01*
Y129728D01*
X74209Y129528D01*
X74010Y129328D01*
Y129128D01*
X77547Y128728D02*
X77947D01*
X78347Y129128D01*
X78746Y128728D01*
X79146D01*
Y129128D01*
X78746Y129528D01*
X79146Y129928D01*
Y130328D01*
X78746D01*
X78347Y129928D01*
X77947Y130328D01*
X77547D01*
Y129928D01*
X77947Y129528D01*
X77547Y129128D01*
Y128728D01*
X77947Y129128D02*
X78146D01*
X78347Y129328D01*
X78547Y129128D01*
X78746D01*
Y129328D01*
X78547Y129528D01*
X78746Y129728D01*
Y129928D01*
X78547D01*
X78347Y129728D01*
X78146Y129928D01*
X77947D01*
Y129728D01*
X78146Y129528D01*
X77947Y129328D01*
Y129128D01*
X81484Y128728D02*
X81884D01*
X82284Y129128D01*
X82683Y128728D01*
X83083D01*
Y129128D01*
X82683Y129528D01*
X83083Y129928D01*
Y130328D01*
X82683D01*
X82284Y129928D01*
X81884Y130328D01*
X81484D01*
Y129928D01*
X81884Y129528D01*
X81484Y129128D01*
Y128728D01*
X81884Y129128D02*
X82083D01*
X82284Y129328D01*
X82484Y129128D01*
X82683D01*
Y129328D01*
X82484Y129528D01*
X82683Y129728D01*
Y129928D01*
X82484D01*
X82284Y129728D01*
X82083Y129928D01*
X81884D01*
Y129728D01*
X82083Y129528D01*
X81884Y129328D01*
Y129128D01*
X230411Y124479D02*
X230811D01*
X231211Y124879D01*
X231611Y124479D01*
X232011D01*
Y124879D01*
X231611Y125279D01*
X232011Y125679D01*
Y126079D01*
X231611D01*
X231211Y125679D01*
X230811Y126079D01*
X230411D01*
Y125679D01*
X230811Y125279D01*
X230411Y124879D01*
Y124479D01*
X230811Y124879D02*
X231011D01*
X231211Y125079D01*
X231411Y124879D01*
X231611D01*
Y125079D01*
X231411Y125279D01*
X231611Y125479D01*
Y125679D01*
X231411D01*
X231211Y125479D01*
X231011Y125679D01*
X230811D01*
Y125479D01*
X231011Y125279D01*
X230811Y125079D01*
Y124879D01*
X197626Y98807D02*
X198026D01*
X198426Y99207D01*
X198826Y98807D01*
X199226D01*
Y99207D01*
X198826Y99607D01*
X199226Y100007D01*
Y100407D01*
X198826D01*
X198426Y100007D01*
X198026Y100407D01*
X197626D01*
Y100007D01*
X198026Y99607D01*
X197626Y99207D01*
Y98807D01*
X198026Y99207D02*
X198226D01*
X198426Y99407D01*
X198626Y99207D01*
X198826D01*
Y99407D01*
X198626Y99607D01*
X198826Y99807D01*
Y100007D01*
X198626D01*
X198426Y99807D01*
X198226Y100007D01*
X198026D01*
Y99807D01*
X198226Y99607D01*
X198026Y99407D01*
Y99207D01*
X200387Y70269D02*
Y69869D01*
X201187D01*
Y70269D01*
X201587D01*
Y71069D01*
X201187D01*
Y71469D01*
X200387D01*
Y71069D01*
X199987D01*
Y70269D01*
X200387D01*
X200587Y70469D02*
Y70269D01*
X200987D01*
Y70469D01*
X201187D01*
Y70869D01*
X200987D01*
Y71069D01*
X200587D01*
Y70869D01*
X200387D01*
Y70469D01*
X200587D01*
X243491Y52547D02*
X243891D01*
X244291Y52947D01*
X244691Y52547D01*
X245091D01*
Y52947D01*
X244691Y53347D01*
X245091Y53746D01*
Y54146D01*
X244691D01*
X244291Y53746D01*
X243891Y54146D01*
X243491D01*
Y53746D01*
X243891Y53347D01*
X243491Y52947D01*
Y52547D01*
X243891Y52947D02*
X244091D01*
X244291Y53146D01*
X244491Y52947D01*
X244691D01*
Y53146D01*
X244491Y53347D01*
X244691Y53547D01*
Y53746D01*
X244491D01*
X244291Y53547D01*
X244091Y53746D01*
X243891D01*
Y53547D01*
X244091Y53347D01*
X243891Y53146D01*
Y52947D01*
X241129Y19082D02*
X241529D01*
X241929Y19482D01*
X242329Y19082D01*
X242729D01*
Y19482D01*
X242329Y19882D01*
X242729Y20282D01*
Y20682D01*
X242329D01*
X241929Y20282D01*
X241529Y20682D01*
X241129D01*
Y20282D01*
X241529Y19882D01*
X241129Y19482D01*
Y19082D01*
X241529Y19482D02*
X241729D01*
X241929Y19682D01*
X242129Y19482D01*
X242329D01*
Y19682D01*
X242129Y19882D01*
X242329Y20082D01*
Y20282D01*
X242129D01*
X241929Y20082D01*
X241729Y20282D01*
X241529D01*
Y20082D01*
X241729Y19882D01*
X241529Y19682D01*
Y19482D01*
X220657Y115932D02*
X221057D01*
X221457Y116332D01*
X221857Y115932D01*
X222257D01*
Y116332D01*
X221857Y116732D01*
X222257Y117132D01*
Y117532D01*
X221857D01*
X221457Y117132D01*
X221057Y117532D01*
X220657D01*
Y117132D01*
X221057Y116732D01*
X220657Y116332D01*
Y115932D01*
X221057Y116332D02*
X221257D01*
X221457Y116532D01*
X221657Y116332D01*
X221857D01*
Y116532D01*
X221657Y116732D01*
X221857Y116932D01*
Y117132D01*
X221657D01*
X221457Y116932D01*
X221257Y117132D01*
X221057D01*
Y116932D01*
X221257Y116732D01*
X221057Y116532D01*
Y116332D01*
X48019Y5499D02*
X48419D01*
X48819Y5899D01*
X49219Y5499D01*
X49619D01*
Y5899D01*
X49219Y6299D01*
X49619Y6699D01*
Y7099D01*
X49219D01*
X48819Y6699D01*
X48419Y7099D01*
X48019D01*
Y6699D01*
X48419Y6299D01*
X48019Y5899D01*
Y5499D01*
X48419Y5899D02*
X48619D01*
X48819Y6099D01*
X49019Y5899D01*
X49219D01*
Y6099D01*
X49019Y6299D01*
X49219Y6499D01*
Y6699D01*
X49019D01*
X48819Y6499D01*
X48619Y6699D01*
X48419D01*
Y6499D01*
X48619Y6299D01*
X48419Y6099D01*
Y5899D01*
X42310Y4712D02*
X42710D01*
X43110Y5112D01*
X43510Y4712D01*
X43910D01*
Y5112D01*
X43510Y5512D01*
X43910Y5912D01*
Y6312D01*
X43510D01*
X43110Y5912D01*
X42710Y6312D01*
X42310D01*
Y5912D01*
X42710Y5512D01*
X42310Y5112D01*
Y4712D01*
X42710Y5112D02*
X42910D01*
X43110Y5312D01*
X43310Y5112D01*
X43510D01*
Y5312D01*
X43310Y5512D01*
X43510Y5712D01*
Y5912D01*
X43310D01*
X43110Y5712D01*
X42910Y5912D01*
X42710D01*
Y5712D01*
X42910Y5512D01*
X42710Y5312D01*
Y5112D01*
X42310Y8058D02*
X42710D01*
X43110Y8458D01*
X43510Y8058D01*
X43910D01*
Y8458D01*
X43510Y8858D01*
X43910Y9258D01*
Y9658D01*
X43510D01*
X43110Y9258D01*
X42710Y9658D01*
X42310D01*
Y9258D01*
X42710Y8858D01*
X42310Y8458D01*
Y8058D01*
X42710Y8458D02*
X42910D01*
X43110Y8658D01*
X43310Y8458D01*
X43510D01*
Y8658D01*
X43310Y8858D01*
X43510Y9058D01*
Y9258D01*
X43310D01*
X43110Y9058D01*
X42910Y9258D01*
X42710D01*
Y9058D01*
X42910Y8858D01*
X42710Y8658D01*
Y8458D01*
X207074Y80302D02*
X207474D01*
X207874Y80702D01*
X208274Y80302D01*
X208674D01*
Y80702D01*
X208274Y81102D01*
X208674Y81502D01*
Y81902D01*
X208274D01*
X207874Y81502D01*
X207474Y81902D01*
X207074D01*
Y81502D01*
X207474Y81102D01*
X207074Y80702D01*
Y80302D01*
X207474Y80702D02*
X207674D01*
X207874Y80902D01*
X208074Y80702D01*
X208274D01*
Y80902D01*
X208074Y81102D01*
X208274Y81302D01*
Y81502D01*
X208074D01*
X207874Y81302D01*
X207674Y81502D01*
X207474D01*
Y81302D01*
X207674Y81102D01*
X207474Y80902D01*
Y80702D01*
X214751Y178531D02*
X215151D01*
X215551Y178931D01*
X215951Y178531D01*
X216351D01*
Y178931D01*
X215951Y179331D01*
X216351Y179731D01*
Y180131D01*
X215951D01*
X215551Y179731D01*
X215151Y180131D01*
X214751D01*
Y179731D01*
X215151Y179331D01*
X214751Y178931D01*
Y178531D01*
X215151Y178931D02*
X215351D01*
X215551Y179131D01*
X215751Y178931D01*
X215951D01*
Y179131D01*
X215751Y179331D01*
X215951Y179531D01*
Y179731D01*
X215751D01*
X215551Y179531D01*
X215351Y179731D01*
X215151D01*
Y179531D01*
X215351Y179331D01*
X215151Y179131D01*
Y178931D01*
X241326Y229909D02*
X241726D01*
X242126Y230309D01*
X242526Y229909D01*
X242926D01*
Y230309D01*
X242526Y230709D01*
X242926Y231109D01*
Y231509D01*
X242526D01*
X242126Y231109D01*
X241726Y231509D01*
X241326D01*
Y231109D01*
X241726Y230709D01*
X241326Y230309D01*
Y229909D01*
X241726Y230309D02*
X241926D01*
X242126Y230509D01*
X242326Y230309D01*
X242526D01*
Y230509D01*
X242326Y230709D01*
X242526Y230909D01*
Y231109D01*
X242326D01*
X242126Y230909D01*
X241926Y231109D01*
X241726D01*
Y230909D01*
X241926Y230709D01*
X241726Y230509D01*
Y230309D01*
X259031Y155112D02*
Y154712D01*
X259831D01*
Y155112D01*
X260231D01*
Y155912D01*
X259831D01*
Y156312D01*
X259031D01*
Y155912D01*
X258631D01*
Y155112D01*
X259031D01*
X259231Y155312D02*
Y155112D01*
X259631D01*
Y155312D01*
X259831D01*
Y155712D01*
X259631D01*
Y155912D01*
X259231D01*
Y155712D01*
X259031D01*
Y155312D01*
X259231D01*
X259049Y157585D02*
Y157185D01*
X259849D01*
Y157585D01*
X260249D01*
Y158385D01*
X259849D01*
Y158784D01*
X259049D01*
Y158385D01*
X258649D01*
Y157585D01*
X259049D01*
X259249Y157784D02*
Y157585D01*
X259649D01*
Y157784D01*
X259849D01*
Y158185D01*
X259649D01*
Y158385D01*
X259249D01*
Y158185D01*
X259049D01*
Y157784D01*
X259249D01*
X210821Y64313D02*
Y63913D01*
X211620D01*
Y64313D01*
X212020D01*
Y65113D01*
X211620D01*
Y65513D01*
X210821D01*
Y65113D01*
X210420D01*
Y64313D01*
X210821D01*
X211020Y64513D02*
Y64313D01*
X211420D01*
Y64513D01*
X211620D01*
Y64913D01*
X211420D01*
Y65113D01*
X211020D01*
Y64913D01*
X210821D01*
Y64513D01*
X211020D01*
X210821Y67281D02*
Y66881D01*
X211620D01*
Y67281D01*
X212020D01*
Y68081D01*
X211620D01*
Y68481D01*
X210821D01*
Y68081D01*
X210420D01*
Y67281D01*
X210821D01*
X211020Y67481D02*
Y67281D01*
X211420D01*
Y67481D01*
X211620D01*
Y67881D01*
X211420D01*
Y68081D01*
X211020D01*
Y67881D01*
X210821D01*
Y67481D01*
X211020D01*
X213373Y181877D02*
X213773D01*
X214173Y182277D01*
X214573Y181877D01*
X214973D01*
Y182277D01*
X214573Y182677D01*
X214973Y183077D01*
Y183477D01*
X214573D01*
X214173Y183077D01*
X213773Y183477D01*
X213373D01*
Y183077D01*
X213773Y182677D01*
X213373Y182277D01*
Y181877D01*
X213773Y182277D02*
X213973D01*
X214173Y182477D01*
X214373Y182277D01*
X214573D01*
Y182477D01*
X214373Y182677D01*
X214573Y182877D01*
Y183077D01*
X214373D01*
X214173Y182877D01*
X213973Y183077D01*
X213773D01*
Y182877D01*
X213973Y182677D01*
X213773Y182477D01*
Y182277D01*
X211405Y92310D02*
X211805D01*
X212205Y92710D01*
X212605Y92310D01*
X213005D01*
Y92710D01*
X212605Y93110D01*
X213005Y93510D01*
Y93910D01*
X212605D01*
X212205Y93510D01*
X211805Y93910D01*
X211405D01*
Y93510D01*
X211805Y93110D01*
X211405Y92710D01*
Y92310D01*
X211805Y92710D02*
X212005D01*
X212205Y92910D01*
X212405Y92710D01*
X212605D01*
Y92910D01*
X212405Y93110D01*
X212605Y93310D01*
Y93510D01*
X212405D01*
X212205Y93310D01*
X212005Y93510D01*
X211805D01*
Y93310D01*
X212005Y93110D01*
X211805Y92910D01*
Y92710D01*
X207271Y86602D02*
X207671D01*
X208071Y87002D01*
X208471Y86602D01*
X208871D01*
Y87002D01*
X208471Y87402D01*
X208871Y87802D01*
Y88202D01*
X208471D01*
X208071Y87802D01*
X207671Y88202D01*
X207271D01*
Y87802D01*
X207671Y87402D01*
X207271Y87002D01*
Y86602D01*
X207671Y87002D02*
X207871D01*
X208071Y87202D01*
X208271Y87002D01*
X208471D01*
Y87202D01*
X208271Y87402D01*
X208471Y87602D01*
Y87802D01*
X208271D01*
X208071Y87602D01*
X207871Y87802D01*
X207671D01*
Y87602D01*
X207871Y87402D01*
X207671Y87202D01*
Y87002D01*
X254318Y145066D02*
X254718D01*
X255118Y145466D01*
X255518Y145066D01*
X255918D01*
Y145466D01*
X255518Y145866D01*
X255918Y146266D01*
Y146666D01*
X255518D01*
X255118Y146266D01*
X254718Y146666D01*
X254318D01*
Y146266D01*
X254718Y145866D01*
X254318Y145466D01*
Y145066D01*
X254718Y145466D02*
X254918D01*
X255118Y145666D01*
X255318Y145466D01*
X255518D01*
Y145666D01*
X255318Y145866D01*
X255518Y146066D01*
Y146266D01*
X255318D01*
X255118Y146066D01*
X254918Y146266D01*
X254718D01*
Y146066D01*
X254918Y145866D01*
X254718Y145666D01*
Y145466D01*
X250972Y179515D02*
X251372D01*
X251772Y179915D01*
X252172Y179515D01*
X252572D01*
Y179915D01*
X252172Y180315D01*
X252572Y180715D01*
Y181115D01*
X252172D01*
X251772Y180715D01*
X251372Y181115D01*
X250972D01*
Y180715D01*
X251372Y180315D01*
X250972Y179915D01*
Y179515D01*
X251372Y179915D02*
X251572D01*
X251772Y180115D01*
X251972Y179915D01*
X252172D01*
Y180115D01*
X251972Y180315D01*
X252172Y180515D01*
Y180715D01*
X251972D01*
X251772Y180515D01*
X251572Y180715D01*
X251372D01*
Y180515D01*
X251572Y180315D01*
X251372Y180115D01*
Y179915D01*
X256877Y52547D02*
X257277D01*
X257677Y52947D01*
X258077Y52547D01*
X258477D01*
Y52947D01*
X258077Y53347D01*
X258477Y53746D01*
Y54146D01*
X258077D01*
X257677Y53746D01*
X257277Y54146D01*
X256877D01*
Y53746D01*
X257277Y53347D01*
X256877Y52947D01*
Y52547D01*
X257277Y52947D02*
X257477D01*
X257677Y53146D01*
X257877Y52947D01*
X258077D01*
Y53146D01*
X257877Y53347D01*
X258077Y53547D01*
Y53746D01*
X257877D01*
X257677Y53547D01*
X257477Y53746D01*
X257277D01*
Y53547D01*
X257477Y53347D01*
X257277Y53146D01*
Y52947D01*
X250184Y52547D02*
X250584D01*
X250984Y52947D01*
X251384Y52547D01*
X251784D01*
Y52947D01*
X251384Y53347D01*
X251784Y53746D01*
Y54146D01*
X251384D01*
X250984Y53746D01*
X250584Y54146D01*
X250184D01*
Y53746D01*
X250584Y53347D01*
X250184Y52947D01*
Y52547D01*
X250584Y52947D02*
X250784D01*
X250984Y53146D01*
X251184Y52947D01*
X251384D01*
Y53146D01*
X251184Y53347D01*
X251384Y53547D01*
Y53746D01*
X251184D01*
X250984Y53547D01*
X250784Y53746D01*
X250584D01*
Y53547D01*
X250784Y53347D01*
X250584Y53146D01*
Y52947D01*
X176169Y104515D02*
X176568D01*
X176969Y104915D01*
X177368Y104515D01*
X177769D01*
Y104915D01*
X177368Y105315D01*
X177769Y105715D01*
Y106115D01*
X177368D01*
X176969Y105715D01*
X176568Y106115D01*
X176169D01*
Y105715D01*
X176568Y105315D01*
X176169Y104915D01*
Y104515D01*
X176568Y104915D02*
X176769D01*
X176969Y105115D01*
X177169Y104915D01*
X177368D01*
Y105115D01*
X177169Y105315D01*
X177368Y105515D01*
Y105715D01*
X177169D01*
X176969Y105515D01*
X176769Y105715D01*
X176568D01*
Y105515D01*
X176769Y105315D01*
X176568Y105115D01*
Y104915D01*
X176169Y108452D02*
X176568D01*
X176969Y108852D01*
X177368Y108452D01*
X177769D01*
Y108852D01*
X177368Y109252D01*
X177769Y109652D01*
Y110052D01*
X177368D01*
X176969Y109652D01*
X176568Y110052D01*
X176169D01*
Y109652D01*
X176568Y109252D01*
X176169Y108852D01*
Y108452D01*
X176568Y108852D02*
X176769D01*
X176969Y109052D01*
X177169Y108852D01*
X177368D01*
Y109052D01*
X177169Y109252D01*
X177368Y109452D01*
Y109652D01*
X177169D01*
X176969Y109452D01*
X176769Y109652D01*
X176568D01*
Y109452D01*
X176769Y109252D01*
X176568Y109052D01*
Y108852D01*
X122035Y112192D02*
X122435D01*
X122835Y112592D01*
X123235Y112192D01*
X123635D01*
Y112592D01*
X123235Y112992D01*
X123635Y113392D01*
Y113792D01*
X123235D01*
X122835Y113392D01*
X122435Y113792D01*
X122035D01*
Y113392D01*
X122435Y112992D01*
X122035Y112592D01*
Y112192D01*
X122435Y112592D02*
X122635D01*
X122835Y112792D01*
X123035Y112592D01*
X123235D01*
Y112792D01*
X123035Y112992D01*
X123235Y113192D01*
Y113392D01*
X123035D01*
X122835Y113192D01*
X122635Y113392D01*
X122435D01*
Y113192D01*
X122635Y112992D01*
X122435Y112792D01*
Y112592D01*
X116129Y116129D02*
X116529D01*
X116929Y116529D01*
X117329Y116129D01*
X117729D01*
Y116529D01*
X117329Y116929D01*
X117729Y117329D01*
Y117729D01*
X117329D01*
X116929Y117329D01*
X116529Y117729D01*
X116129D01*
Y117329D01*
X116529Y116929D01*
X116129Y116529D01*
Y116129D01*
X116529Y116529D02*
X116729D01*
X116929Y116729D01*
X117129Y116529D01*
X117329D01*
Y116729D01*
X117129Y116929D01*
X117329Y117129D01*
Y117329D01*
X117129D01*
X116929Y117129D01*
X116729Y117329D01*
X116529D01*
Y117129D01*
X116729Y116929D01*
X116529Y116729D01*
Y116529D01*
X116129Y108255D02*
X116529D01*
X116929Y108655D01*
X117329Y108255D01*
X117729D01*
Y108655D01*
X117329Y109055D01*
X117729Y109455D01*
Y109855D01*
X117329D01*
X116929Y109455D01*
X116529Y109855D01*
X116129D01*
Y109455D01*
X116529Y109055D01*
X116129Y108655D01*
Y108255D01*
X116529Y108655D02*
X116729D01*
X116929Y108855D01*
X117129Y108655D01*
X117329D01*
Y108855D01*
X117129Y109055D01*
X117329Y109255D01*
Y109455D01*
X117129D01*
X116929Y109255D01*
X116729Y109455D01*
X116529D01*
Y109255D01*
X116729Y109055D01*
X116529Y108855D01*
Y108655D01*
X66129Y162192D02*
X66529D01*
X66929Y162592D01*
X67329Y162192D01*
X67729D01*
Y162592D01*
X67329Y162992D01*
X67729Y163392D01*
Y163792D01*
X67329D01*
X66929Y163392D01*
X66529Y163792D01*
X66129D01*
Y163392D01*
X66529Y162992D01*
X66129Y162592D01*
Y162192D01*
X66529Y162592D02*
X66729D01*
X66929Y162792D01*
X67129Y162592D01*
X67329D01*
Y162792D01*
X67129Y162992D01*
X67329Y163192D01*
Y163392D01*
X67129D01*
X66929Y163192D01*
X66729Y163392D01*
X66529D01*
Y163192D01*
X66729Y162992D01*
X66529Y162792D01*
Y162592D01*
X58255Y162192D02*
X58655D01*
X59055Y162592D01*
X59455Y162192D01*
X59855D01*
Y162592D01*
X59455Y162992D01*
X59855Y163392D01*
Y163792D01*
X59455D01*
X59055Y163392D01*
X58655Y163792D01*
X58255D01*
Y163392D01*
X58655Y162992D01*
X58255Y162592D01*
Y162192D01*
X58655Y162592D02*
X58855D01*
X59055Y162792D01*
X59255Y162592D01*
X59455D01*
Y162792D01*
X59255Y162992D01*
X59455Y163192D01*
Y163392D01*
X59255D01*
X59055Y163192D01*
X58855Y163392D01*
X58655D01*
Y163192D01*
X58855Y162992D01*
X58655Y162792D01*
Y162592D01*
X62192Y162192D02*
X62592D01*
X62992Y162592D01*
X63392Y162192D01*
X63792D01*
Y162592D01*
X63392Y162992D01*
X63792Y163392D01*
Y163792D01*
X63392D01*
X62992Y163392D01*
X62592Y163792D01*
X62192D01*
Y163392D01*
X62592Y162992D01*
X62192Y162592D01*
Y162192D01*
X62592Y162592D02*
X62792D01*
X62992Y162792D01*
X63192Y162592D01*
X63392D01*
Y162792D01*
X63192Y162992D01*
X63392Y163192D01*
Y163392D01*
X63192D01*
X62992Y163192D01*
X62792Y163392D01*
X62592D01*
Y163192D01*
X62792Y162992D01*
X62592Y162792D01*
Y162592D01*
X53924Y190932D02*
X54324D01*
X54724Y191332D01*
X55124Y190932D01*
X55524D01*
Y191332D01*
X55124Y191732D01*
X55524Y192132D01*
Y192532D01*
X55124D01*
X54724Y192132D01*
X54324Y192532D01*
X53924D01*
Y192132D01*
X54324Y191732D01*
X53924Y191332D01*
Y190932D01*
X54324Y191332D02*
X54524D01*
X54724Y191532D01*
X54924Y191332D01*
X55124D01*
Y191532D01*
X54924Y191732D01*
X55124Y191932D01*
Y192132D01*
X54924D01*
X54724Y191932D01*
X54524Y192132D01*
X54324D01*
Y191932D01*
X54524Y191732D01*
X54324Y191532D01*
Y191332D01*
X57861Y190932D02*
X58261D01*
X58661Y191332D01*
X59061Y190932D01*
X59461D01*
Y191332D01*
X59061Y191732D01*
X59461Y192132D01*
Y192532D01*
X59061D01*
X58661Y192132D01*
X58261Y192532D01*
X57861D01*
Y192132D01*
X58261Y191732D01*
X57861Y191332D01*
Y190932D01*
X58261Y191332D02*
X58461D01*
X58661Y191532D01*
X58861Y191332D01*
X59061D01*
Y191532D01*
X58861Y191732D01*
X59061Y191932D01*
Y192132D01*
X58861D01*
X58661Y191932D01*
X58461Y192132D01*
X58261D01*
Y191932D01*
X58461Y191732D01*
X58261Y191532D01*
Y191332D01*
X61798Y190932D02*
X62198D01*
X62598Y191332D01*
X62998Y190932D01*
X63398D01*
Y191332D01*
X62998Y191732D01*
X63398Y192132D01*
Y192532D01*
X62998D01*
X62598Y192132D01*
X62198Y192532D01*
X61798D01*
Y192132D01*
X62198Y191732D01*
X61798Y191332D01*
Y190932D01*
X62198Y191332D02*
X62398D01*
X62598Y191532D01*
X62798Y191332D01*
X62998D01*
Y191532D01*
X62798Y191732D01*
X62998Y191932D01*
Y192132D01*
X62798D01*
X62598Y191932D01*
X62398Y192132D01*
X62198D01*
Y191932D01*
X62398Y191732D01*
X62198Y191532D01*
Y191332D01*
D179*
X291351Y46457D02*
G03*
X291351Y46457I-800J0D01*
G01*
Y40551D02*
G03*
X291351Y40551I-800J0D01*
G01*
Y34646D02*
G03*
X291351Y34646I-800J0D01*
G01*
Y28740D02*
G03*
X291351Y28740I-800J0D01*
G01*
Y22835D02*
G03*
X291351Y22835I-800J0D01*
G01*
Y16929D02*
G03*
X291351Y16929I-800J0D01*
G01*
X269107Y17323D02*
G03*
X269107Y17323I-800J0D01*
G01*
Y23228D02*
G03*
X269107Y23228I-800J0D01*
G01*
Y29134D02*
G03*
X269107Y29134I-800J0D01*
G01*
Y35039D02*
G03*
X269107Y35039I-800J0D01*
G01*
Y40945D02*
G03*
X269107Y40945I-800J0D01*
G01*
Y46850D02*
G03*
X269107Y46850I-800J0D01*
G01*
X22060Y132677D02*
G03*
X22060Y132677I-800J0D01*
G01*
Y112992D02*
G03*
X22060Y112992I-800J0D01*
G01*
D180*
X21660Y132677D02*
G03*
X21660Y132677I-400J0D01*
G01*
Y112992D02*
G03*
X21660Y112992I-400J0D01*
G01*
M02*
