G04*
G04 #@! TF.GenerationSoftware,Altium Limited,Altium Designer,22.2.1 (43)*
G04*
G04 Layer_Color=128*
%FSLAX25Y25*%
%MOIN*%
G70*
G04*
G04 #@! TF.SameCoordinates,A0DC7013-DE40-4D07-A028-2F209A2C4820*
G04*
G04*
G04 #@! TF.FilePolarity,Positive*
G04*
G01*
G75*
%ADD21R,0.03150X0.05512*%
%ADD22R,0.04194X0.03494*%
%ADD24R,0.03494X0.04194*%
%ADD32R,0.05512X0.03150*%
%ADD173R,0.04724X0.02756*%
%ADD174R,0.03937X0.06693*%
%ADD175R,0.06693X0.03937*%
%ADD176R,0.05039X0.02677*%
D21*
X307283Y15748D02*
D03*
X299803D02*
D03*
X297047Y63976D02*
D03*
X289567D02*
D03*
X303346Y100394D02*
D03*
X310827D02*
D03*
D22*
X319291Y22441D02*
D03*
X325591D02*
D03*
X296457Y57480D02*
D03*
X290157D02*
D03*
X296458Y73622D02*
D03*
X290158D02*
D03*
X296457Y78740D02*
D03*
X290157D02*
D03*
X349803Y55315D02*
D03*
X343503D02*
D03*
X337402D02*
D03*
X331102D02*
D03*
X310237Y94882D02*
D03*
X303937D02*
D03*
D24*
X307087Y28347D02*
D03*
Y22047D02*
D03*
X312205Y28347D02*
D03*
Y22047D02*
D03*
Y16142D02*
D03*
Y9842D02*
D03*
X334842Y16733D02*
D03*
Y10433D02*
D03*
X291732Y90552D02*
D03*
Y84252D02*
D03*
X296850Y90552D02*
D03*
Y84252D02*
D03*
X336614Y67323D02*
D03*
Y61023D02*
D03*
X341732D02*
D03*
Y67323D02*
D03*
X336614Y79134D02*
D03*
Y72834D02*
D03*
X341732Y79134D02*
D03*
Y72834D02*
D03*
X331890Y84645D02*
D03*
Y90945D02*
D03*
X336614D02*
D03*
Y84645D02*
D03*
X341732Y84645D02*
D03*
Y90945D02*
D03*
D32*
X301181Y28937D02*
D03*
Y21457D02*
D03*
X300787Y45669D02*
D03*
Y38189D02*
D03*
X307874Y45669D02*
D03*
Y38189D02*
D03*
X314961Y45669D02*
D03*
Y38189D02*
D03*
D173*
X329528Y9646D02*
D03*
Y17126D02*
D03*
X319291D02*
D03*
Y13386D02*
D03*
Y9646D02*
D03*
D174*
X330512Y29134D02*
D03*
X319094D02*
D03*
D175*
X348819Y91142D02*
D03*
Y79724D02*
D03*
Y73032D02*
D03*
Y61614D02*
D03*
D176*
X304020Y59110D02*
D03*
Y64110D02*
D03*
Y69110D02*
D03*
Y74110D02*
D03*
Y79110D02*
D03*
Y84110D02*
D03*
Y89110D02*
D03*
X324965Y59110D02*
D03*
Y64110D02*
D03*
Y69110D02*
D03*
Y74110D02*
D03*
Y79110D02*
D03*
Y84110D02*
D03*
Y89110D02*
D03*
M02*
